<svg version="1" xmlns="http://www.w3.org/2000/svg" width="2730.667" height="2730.667" viewBox="0 0 2048.000000 2048.000000"><path d="M1014 21.1c-5.2 8.9-9.9 17-10.5 18-.5 1.1-9.9 17.1-20.7 35.6-10.9 18.5-19.6 33.8-19.4 34 .2.2 5.4-.8 11.7-2.1 6.3-1.4 13.9-2.8 16.9-3.1 3-.3 7.8-.8 10.5-1.2 7.1-.9 33.8-1 41-.2 3.3.4 8.7 1 12 1.4 3.3.3 6.9.8 8 1.1 1.1.2 3.1.6 4.5.8 1.4.2 5.6 1.1 9.4 2 3.8.9 7.1 1.5 7.3 1.3.4-.5 1.1.7-35.6-62-13.4-22.9-24.7-41.7-25-41.7-.4 0-4.9 7.3-10.1 16.1zM856.3 76.8c-.1 15.2-.3 42.2-.4 59.9-.1 17.8 0 32.5.3 32.9.4.3 1.5-.3 2.5-1.3 25.5-25 57.7-44.2 93.7-55.8l9.9-3.2-3.9-2.3c-2.2-1.2-5.9-3.4-8.4-4.8s-23.6-13.4-47-26.7c-23.4-13.3-43.4-24.7-44.6-25.3-2-1.1-2-1-2.1 26.6zM1161.5 66.1c-16.5 9.4-31.8 18.1-34 19.4-12.9 7.4-24.6 14-28.5 16.2-2.5 1.4-6.5 3.7-9 5.1l-4.4 2.6 4.1 1.1c2.3.5 4.5 1.3 4.9 1.7.4.5 1.4.8 2.3.8 2.6 0 19.9 6.8 30.1 11.8 28.8 14 54.2 33.4 76.1 57.7 5.2 5.8 17.8 22.8 23.3 31.5 7.5 11.7 18 34.2 22.9 48.8 2.4 7.3 4.6 13.4 4.8 13.7.3.2 2.9-3.9 5.9-9.2 3-5.3 6.7-11.7 8.1-14.2 11.5-20.2 36.6-64.2 38-66.6 2.2-3.8 7.9-14.3 7.9-14.7 0-.2-27.1-.4-60.2-.6-33.1-.2-60.5-.5-60.8-.8-.5-.6-.7-15.9-1-87.2-.1-18.8-.3-34.2-.4-34.2 0 0-13.6 7.7-30.1 17.1z"/><path d="M1008.9 117.4c-.2.2-3.8.6-7.9 1-7.5.6-19.8 2.4-20.9 3.1-.3.1-2.2.6-4.1.9-12.4 2-32.5 9-49 17.1-70.3 34.2-118.2 103.9-124.5 181.5-.6 6.7-.6 30.9-.1 35.5.3 2.2.8 6.5 1.1 9.5 1.2 9.9 1.5 11.8 3.1 19.2.8 4 1.8 8.3 2 9.5 1.6 8.4 9.8 29.4 16.9 43.8 11.1 22.3 22.7 38.5 40 56 19.3 19.6 38.4 33.5 61.5 44.7 14.1 6.8 35.2 14.5 44.3 16.2l10 2c39.5 8.4 85.9 4 125.2-11.7 60.7-24.3 107.5-74 128.5-136.7 4.7-13.8 7.4-25.8 9.5-41 .8-5.7 1.7-19.8 1.8-27.4.1-8.1-1.2-29.6-1.8-30.6-.1-.3-.6-2.8-.9-5.5-1-7.6-4.4-21.9-7.8-32.5-19.8-63.1-68.4-115-130.9-139.8-10.4-4.2-33.5-10.7-41.1-11.6-1.2-.2-3.9-.6-5.8-1-1.9-.3-5.3-.9-7.5-1.2-4.5-.7-41-1.5-41.6-1z"/><path d="M734 171.8c0 .3 6.4 11.8 12.5 22.4 1.2 2.1 13.1 23 15.5 27.3 1 1.6 2.7 4.6 3.8 6.5 1.1 1.9 3.3 5.8 4.9 8.6 12.4 22.4 22.9 40.4 23.6 40.4.4 0 .7-.6.7-1.3 0-3.8 8.2-25.9 14.6-39.4 4.2-8.8 15.8-29 17.3-30.3.4-.3 2.4-3.1 4.6-6.4 2.2-3.2 4.9-6.8 6-8 1.1-1.2 3.6-4.2 5.6-6.7 2-2.4 5.8-6.6 8.3-9.2l4.7-4.8-61 .3c-33.6.2-61.1.5-61.1.6zM783.5 284c-5.5 3.3-10.7 6.3-11.5 6.7-.8.4-7.1 4-13.9 8-6.7 4-12.7 7.3-13.2 7.3s-.9.4-.9 1c0 .5-.4 1-.9 1s-5.6 2.8-11.3 6.1c-5.6 3.4-11.9 7.1-13.8 8.2-9.6 5.3-29.1 17-28.8 17.2.2.2 6.9 4.1 14.9 8.9 8.1 4.7 16.2 9.4 18 10.5 1.9 1.2 4.1 2.4 4.9 2.8.8.3 2.6 1.4 4 2.3 1.4 1 4.5 2.8 7 4.2 2.5 1.4 12.4 7.2 22 12.8 30.2 17.8 34 19.9 34 19.3 0-.3-.6-3.1-1.4-6.2-1.4-5.1-3.4-16.3-5.1-28.1-.4-2.5-.8-12.8-1-23-.4-22.2 2.3-45.8 7.1-62.8.3-1.2.5-2.2.3-2.2s-4.9 2.7-10.4 6zM1254.7 278.6c-.3.3.1 2.7.8 5.2.7 2.6 1.8 7.6 2.4 11.2.6 3.6 1.3 7.6 1.6 9 2 9.5 2.8 48.3 1.3 60.5-1.8 14.5-2.6 18.8-5.2 30-.8 3.3-1.4 6-1.3 6.1.1.1 6.7-3.7 14.7-8.4 8-4.7 30.9-18.1 51-29.8s37.1-21.7 37.9-22.2c1-.5-2-2.8-10.5-7.9-11-6.5-37.9-22.3-44.9-26.3-10.5-6-45.2-26.4-46.1-27.1-.6-.5-1.3-.6-1.7-.3zM532.3 409c-9.2 12.1-17 22-17.3 22-.4 0-27.1-20.5-33-25.3-.8-.7-3.9-3-6.9-5.1l-5.3-3.9.6 4.9c.4 2.8.9 6.1 1 7.4.7 5.4 1.8 14.2 3.8 28.4 1.1 8.1 1.6 15.2 1.1 15.6-.4.5-3.7 1.1-7.3 1.4-3.6.4-7.6.8-9 1-3.7.7-8.8 1.4-15.5 2.2-3.3.3-6.7.8-7.5.9-.8.2-4.5.6-8.3 1-3.7.4-6.9 1-7.1 1.4-.4.6 7.2 6.5 34.7 27.3 4.9 3.8 9.1 6.8 9.3 6.8.2 0 .2-2.1 0-4.6-.9-11.3 4.1-26.9 11.9-36.9 10.9-14.1 25.2-21.5 43-22 11.7-.4 17.6.9 28.5 6.2 12.9 6.2 23.5 19 28.6 34.3 2.2 6.8 2.5 23.2.5 30.5-1.6 5.9-6.5 16.2-8.9 18.9-1.6 1.8-1.5 1.8 3.8 1.1 3-.4 6.2-.9 7-1 .8-.2 4-.6 7.1-.9 3.1-.4 6.6-.8 7.7-1.1 1.2-.2 5.2-.7 8.9-1 3.7-.4 7-.9 7.3-1 .3-.2 3.5-.7 7-1 3.6-.4 6.6-.8 6.7-.9.2-.1-3-2.7-7-5.7-6.1-4.5-11.4-8.6-19.7-15.2-.8-.7-4.7-3.6-8.6-6.5-4-2.9-7.7-5.9-8.4-6.6-.9-1.2 1.8-5.3 14.5-21.8 8.6-11.2 16.2-21.1 17-22.1 2.1-2.5 1.9-2.9-1.2-2.3-3 .6-5.2.9-18.3 2.6-4.7.6-9.8 1.3-11.5 1.6-6.9.9-11.4 1.5-17.6 2l-6.6.7-.7-6.4c-.3-3.5-.8-7.5-1-8.9-.3-1.4-1-6.6-1.6-11.5-.6-5-1.3-10-1.5-11-.6-3.8-1.9-16-1.7-16.8.9-3.3-4 2.4-18.5 21.3zM1498 387c-.5 2.3-1 5.2-1.5 9.5-.4 2.7-.8 6.1-1 7.5-.5 2.7-3.2 24.6-4.1 32-.8 6.8-1.1 7.2-4.1 6.6-1.6-.3-5-.8-7.8-1.1-4.7-.5-11.1-1.4-14.5-2-.8-.1-4.2-.6-7.5-1-3.2-.4-6.6-.8-7.5-1-.8-.2-4.4-.6-8-1-3.6-.4-6.8-.9-7.2-1.2-2-1.2.1 1.9 10.5 15.5 18.9 24.5 22.7 29.5 22.7 30.1-.1.3-10.1 8.2-22.4 17.6-12.3 9.3-22.3 17.1-22.2 17.2.1.1 2.4.5 5.2.9 2.7.3 5.8.7 6.9.9 1.1.1 4.7.6 8 1s6.7.9 7.5 1c.9.2 4.3.6 7.5 1 3.3.4 7.1.8 8.5 1 8.8 1.3 12 1.6 12 1 0-.4-.8-1.9-1.9-3.3-5.9-8.4-9.4-22.4-8.6-34.7.6-10.5 3.6-19 9.7-28.2 20-29.8 62-33.5 87.4-7.8 22.5 22.7 22.5 57.6 0 80-22.4 22.3-57.4 22.7-79.9.9-3.1-3-5.8-5.2-5.9-4.7-.3 1.8-.5 3.1-1.3 9.3-.5 3.6-.9 6.7-1 7-.1.3-.5 3.4-.9 7-.5 3.6-1 7.2-1.1 8.1-.2.9-.6 4-1 7s-1 8-1.4 11.1c-.5 4-.4 5.5.3 5 1-.6 22.2-16.7 25.6-19.5 7.2-5.8 17.8-13.7 18.5-13.7.9 0 .5-.5 12 14.6 5 6.6 9.3 12.1 9.6 12.4.3.3 3.4 4.3 6.9 9l6.4 8.5.8-4.5c.4-2.5 1.3-8.3 1.8-13 .6-4.7 1.3-10 1.6-11.8 1-7.4 1.3-10 2-15.2.4-3 .8-6.2 1-7 .1-.8.3-2.3.3-3.3.1-1.9 2.5-1.9 13.2-.2 1.4.3 4.1.7 6 .9 23.5 3 36.6 4.9 37.3 5.4.5.3.6-.1.1-.9-1-1.6-19.6-26.1-20.5-26.9-1.8-1.7-13-17-13-17.8 0-1 39.2-31.5 43.4-33.9 2.3-1.3 1.6-1.4-20.9-4.3-8.8-1.1-18-2.3-20.5-2.7-5.5-.7-8.8-1.1-11.8-1.2-2.2-.1-2.3-.4-1.7-5.8.3-3.1.8-7.2 1.1-9.2.3-2 .9-6.3 1.4-9.6.5-3.3 1.2-8.7 1.6-12 .3-3.3.8-6.7.9-7.5.2-.9.6-4.3 1-7.5.7-5.1.6-5.8-.6-4.9-8.4 6.7-42.5 32.7-43.4 33-.7.3-3.1-2.1-5.5-5.3-2.4-3.2-4.6-6-5-6.3-.3-.3-3-3.9-6-8s-5.7-7.7-6-8c-.3-.3-1.9-2.3-3.6-4.5-5.7-7.7-9.3-12.1-9.4-11.5zM788.5 410.7c-2.7 4.8-6.5 11.4-8.4 14.8-1.8 3.3-4.6 8.1-6.2 10.8-1.6 2.6-2.9 5-2.9 5.3 0 .3-1.6 3-3.5 6s-3.5 5.6-3.5 5.9c0 .2-2.9 5.4-6.5 11.6-3.6 6.1-6.5 11.3-6.5 11.4 0 .1-3.8 6.8-8.5 15-4.7 8.1-8.4 14.9-8.2 15.1.1.2 27.3.5 60.2.6 33 .2 60.3.7 60.6 1.2.6.7.7 13.8 1.2 96.3.1 16.3.4 24.3 1.1 24.3.6 0 2.2-.9 3.6-2s2.8-2 3.1-2c.4 0 6.7-3.4 14-7.6 7.4-4.2 15.2-8.7 17.4-9.9 2.2-1.3 8.5-4.9 14-8 5.5-3.2 12-6.9 14.5-8.3 2.5-1.4 8.3-4.7 12.9-7.4 4.6-2.6 8.5-4.8 8.7-4.8.2 0 3.3-1.8 6.9-4 3.6-2.2 7-4 7.5-4s1.1-.4 1.5-.9c.3-.5-4-2.4-9.6-4.1-27-8.4-54.7-23.3-77.9-42.1-9.1-7.4-28.1-26.3-34.6-34.4-5.1-6.4-16.4-22.1-16.4-22.9 0-.3-1.5-2.9-3.4-5.8-7.6-11.9-15.2-28.7-20.8-45.8-2.4-7.1-4.5-12.9-4.8-13-.3 0-2.7 3.9-5.5 8.7zM1253.6 403.1c-.3.8-2.2 6.3-4.1 12.4-2 6-4.1 11.4-4.6 11.9-.5.6-.9 1.5-.9 2.2 0 1.5-7.7 17.7-12.5 26.3-8.6 15.4-21.9 33.6-33.5 45.7-2.8 2.9-4.7 5.5-4.3 5.7.5.2 17.7.3 38.3.1 20.6-.1 47.5-.3 59.7-.3 20.8-.1 22.2-.2 21.6-1.9-.4-.9-3.8-7.1-7.6-13.7-10.5-18.2-10.8-18.6-13.9-24.3-1.6-3-3.5-6.4-4.2-7.5-2.8-4.5-10.1-17.2-10.1-17.7 0-.3-.8-1.6-1.6-3-2.5-3.9-13.3-22.8-16.9-29.5-4-7.3-4.8-8.3-5.4-6.4z"/><path d="M511.4 445.9c-28.9 8.1-41.4 40.9-25.2 66.4 10.7 16.7 32.9 23.9 52.1 16.7 20.8-7.8 32.4-30.7 26.6-52.5-6.2-22.7-30.9-36.9-53.5-30.6zM1517.5 445.2c-11.8 2.1-23.9 10.7-30 21.2-14.7 25.4-.5 58.2 28 64.6 15.1 3.4 31.2-1.5 41.4-12.6 9.1-10 12.7-20.1 11.8-33.6-1.1-16.9-12.5-31.8-28.6-37.4-7.9-2.7-15.3-3.4-22.6-2.2z"/><path d="M454.2 510.8c-6.1 8.1-13.9 18.2-17.3 22.5l-6.1 7.9 5.2-.7c2.9-.4 6-.8 6.9-1 .9-.1 4.3-.6 7.6-1 3.2-.4 6.8-.9 7.9-1.1 1.1-.2 4.4-.6 7.5-.9 3.1-.3 8.3-1 11.6-1.5 3.3-.5 7-1 8.2-1 2.2 0 2.4.4 3.8 12.5 1 7.8 1.5 11.7 2 15.5.3 1.9 1.2 8.9 2 15.5.9 6.5 1.7 12.1 1.9 12.2.2.2 2.3-2.2 4.6-5.4 2.4-3.2 4.6-6 4.9-6.3.3-.3 6-7.6 12.5-16.3 6.5-8.6 12.4-15.7 13.1-15.7 1 0 8.5 5.5 19.5 14.3.9.7 7 5.4 13.7 10.4 11.2 8.6 12.1 9.1 11.7 6.5-.4-3.1-5.2-38.7-6-44.7-.4-3.3-1-6.7-1.3-8.4-.1-.2-2.9 2.3-6.4 5.6-6.7 6.3-17.6 12.2-26.1 14.2-6.2 1.5-18.7 1.5-25.2.1-19.6-4.4-35.3-18.9-41.9-38.6l-3.1-9.3-11.2 14.7zM1189.5 510.2c-22 22.4-58.3 44.5-90 54.8-5.5 1.7-10.8 3.5-11.7 3.8-1.3.5 6 5.2 25.4 16.2 14.9 8.5 29.2 16.6 31.7 18 2.5 1.4 6.2 3.5 8.1 4.6 1.9 1.2 5.5 3.3 8 4.7 17.5 9.7 28.7 16.1 29.6 16.8.8.7 1.2-7.3 1.3-29.3.1-16.7.3-44.1.4-61.1.1-16.9 0-30.7-.3-30.6-.3 0-1.4.9-2.5 2.1zM312 582.8c-5.1 12.5-9.6 23.1-10 23.5-.4.5-2.7-.1-5.1-1.2-7.2-3.2-41.1-17.1-41.9-17.1-.4 0 1.6 5.5 4.5 12.2 2.8 6.8 7.2 17.1 9.6 23 2.4 5.9 4.6 10.8 4.9 10.8.3 0 1.6-2.1 3-4.8 3.6-6.8 13.8-16.6 20.7-19.8 12.6-6 26.3-7.4 37.8-4 2.7.9 5 1.4 5.2 1.2.3-.3-18.1-45.3-18.8-46.1-.3-.2-4.7 9.8-9.9 22.3zM1721.8 570.7c-2.5 6-6.7 16.2-9.3 22.8-2.7 6.6-5.1 12.4-5.5 12.8-.6.7-6.9-1.3-14.5-4.7-8.7-3.9-32.7-13.7-33-13.4-.1.2 4 10.4 9.1 22.8 5.2 12.4 9.4 23 9.4 23.6 0 .6-2.6 2.1-5.7 3.4-3.2 1.2-7.1 2.9-8.8 3.6-9.6 4.2-27.6 11.4-28.4 11.4-.5 0-1.3.6-1.9 1.3-.9 1 1 2.2 9.1 5.4 5.6 2.3 16.2 6.6 23.5 9.7 10 4.1 13.2 5.1 12.7 3.8-3.5-8.2-4.1-24.5-1.3-33.2 5.5-16.5 17-28.4 32.4-33.4 7.1-2.3 9-2.6 16.4-2.7 18.8-.1 35.1 9 44.5 25 3.3 5.5 4 6 4.8 3.3.5-1.6 8.1-19.7 11.1-26.5.7-1.7 2.4-5.9 3.7-9.2 1.3-3.3 2.8-6.6 3.3-7.4 1.5-2-.2-1.4-25.3 9.1-11.7 4.9-21.7 8.6-22.1 8.1-.5-.4-4.9-10.9-10-23.3s-9.3-22.6-9.4-22.8c-.2-.1-2.3 4.6-4.8 10.5zM963 569.8c0 .2 12 20.9 26.7 46 14.7 25.2 28.3 48.5 30.2 51.9 2 3.5 3.8 6.3 4.1 6.3.3 0 4.4-6.6 9.1-14.8 4.7-8.1 18.1-30.9 29.7-50.8 11.6-19.9 21.4-36.8 21.7-37.6.5-1.4-.2-1.3-5.7.2-3.5.9-8.7 2-11.7 2.4-2.9.3-5.6.8-6 1-.3.2-4.2.7-8.6 1.1-4.4.4-8.9.9-10 1.1-2.6.6-35.4.6-38 0-1.1-.2-5.1-.7-9-1.1-3.8-.4-7.2-.8-7.5-1-.3-.2-2.8-.6-5.5-.9-2.8-.4-8.3-1.5-12.3-2.5-3.9-1-7.2-1.6-7.2-1.3zM372.9 593.9c-8.6 3.6-17.4 7.4-19.5 8.3-2.2.9-5.7 2.4-7.9 3.3l-4 1.7 5 2.5c5.9 3 17.3 14.3 19.8 19.5 1 2.1 2.1 3.9 2.6 4.2.4.3 4.3-7.9 8.5-18.2 4.3-10.3 8.2-19.6 8.7-20.7 1.1-2.6 2.9-7.5 2.6-7.4-.1.1-7.2 3.1-15.8 6.8z"/><path d="M314.2 616.1c-7.1 1.3-14.7 5.4-20 10.6-19.6 19.4-14.1 51.7 10.8 63.7 6 2.9 7.3 3.1 17 3.1 9.8-.1 10.9-.3 16.6-3.2 20.4-10.6 28.4-35.2 17.6-54.3-8.6-15.1-25.3-23-42-19.9zM1721.5 615.8c-8.9 1-19.8 7.2-25.8 14.5-10.8 13.5-11.4 33.8-1.3 47.6 4.5 6.1 8.9 9.8 15.1 12.7 25.6 11.9 55.1-5.9 56-33.9.3-8.7-1.1-14.7-5.2-21.5-7.8-13.4-23.4-21.2-38.8-19.4zM250.2 644.8c-12.7 5.3-22.9 9.9-22.5 10.3.5.4 9.8 4.4 20.8 8.9s21.2 8.8 22.8 9.5c1.5.7 2.7 1.2 2.7 1.1 0-.1-.7-2.6-1.6-5.5-2.3-7.9-2.5-18.4-.4-26.6 1-3.9 1.7-7.1 1.6-7.1 0-.1-10.6 4.2-23.4 9.4z"/><path d="M371 641.3c7.2 25.8-6.3 51.7-32.2 61.9-8.1 3.3-25.9 3.2-34.7-.2-11.5-4.3-20-11.3-26.4-21.8-1.7-2.8-3.4-5.2-3.7-5.2-.4 0-2.8 5.3-5.5 11.7-2.6 6.5-6.8 16.4-9.1 22.1-2.4 5.7-4.4 10.7-4.4 11.2 0 .7 14.1-4.8 38.3-15 4.6-2 8.1-2.9 8.6-2.4s4.5 9.7 8.9 20.4 8.7 21 9.5 22.8l1.4 3.3 2.6-6.3c1.4-3.5 4.9-11.9 7.7-18.8 2.9-6.9 5.8-13.8 6.6-15.4.8-1.6 1.4-3.5 1.4-4.2 0-2.5 2.2-2.6 7.8-.3 3.1 1.2 6.1 2.6 6.7 3.1.5.4 1.5.8 2.2.8.7 0 3.6 1.1 6.5 2.5 2.9 1.3 9.4 4.1 14.3 6 5 2 9.5 3.9 10.2 4.2 1.4.6.2-2.6-10.1-27.2-4.2-9.9-7.6-18.5-7.6-19.1 0-.6 4.6-3 10.3-5.4 5.6-2.3 12-5 14.2-6 2.2-.9 7.9-3.2 12.7-5.1 4.8-1.9 8.8-3.7 8.8-4 0-.6-2.7-1.8-19-8.4-13.3-5.4-16.9-6.9-22.8-9.6-2.3-1-4.4-1.9-4.6-1.9-.2 0 .5 2.9 1.4 6.3zM1774.3 636.4c4 10.5 4 26.8 0 37.3-.5 1.3-.3 1.3 2.5-.1 1.7-.9 5.7-2.5 8.9-3.7 3.2-1.2 8.1-3.1 10.8-4.4 2.8-1.2 9.4-3.9 14.7-6.1 8.8-3.5 11.8-5.4 8.7-5.4-.6 0-2.5-.6-4.2-1.4-1.8-.7-4.8-2.1-6.7-2.9-1.9-.8-8-3.3-13.5-5.5s-12.6-5.2-15.9-6.6c-4.1-1.8-5.6-2.2-5.3-1.2zM1673 688.7c-2.9 7.1-6.1 14.6-7 16.8-1 2.2-2.9 6.8-4.4 10.3-3 7.6-5.6 8 22.8-3.9 11.6-4.9 21.3-8.9 21.7-8.9.3 0 2.4 4.4 4.7 9.7 13.5 32.5 15.6 37.3 15.8 37.1.1-.2 4.4-10.4 9.4-22.8 5.1-12.4 9.6-22.9 10-23.3.4-.4 11 3.5 23.5 8.7 12.6 5.2 23.1 9.3 23.3 9.1.3-.2-3-8.7-7.1-18.7-10.9-26.2-11.1-26.8-11.8-26.8-.3 0-1.8 2.1-3.2 4.7-7 12.8-21.1 22.7-35.7 24.9-4.5.7-13.6.7-17.5 0-14.9-2.7-30-13.4-35.8-25.4-1.2-2.3-2.4-4.2-2.8-4.2-.3 0-3 5.7-5.9 12.7zM993.7 684.6c-.1.1-5.4.4-11.7.8-15.1.9-21.7 1.4-32 2.7-4.7.6-10.3 1.2-12.5 1.5-8.6 1-12.1 1.5-14.5 1.9-2.4.4-5.9 1-12.5 2.1-1.6.2-4.1.6-5.5.9-1.4.3-4.1.7-6 1-3 .5-32.6 7.1-35.5 7.9-.5.2-2.7.6-4.7 1.1-2.1.4-3.8.9-3.8 1.2 0 .2 1.6 6.3 3.6 13.6s4.7 17.2 6 22.2c2.8 10.6 4.5 16.6 8 29.5 1.4 5.2 2.7 9.9 2.8 10.5.6 2.4 2 7.8 4.8 17.9 1.6 5.9 3.1 11.5 3.3 12.5.3 1.4 1.8 7.3 4.5 17.1 5.2 18.7 6.9 25.4 6.7 25.7-.2.1-2.2-.6-4.5-1.7-2.2-1.1-4.8-2-5.6-2-1.9 0-1.3 2.1-22.7-78.1l-17.3-64.7-5 1.5c-26 7.4-59.8 19.5-84.7 30.4-13.8 6-52.9 25.4-59.6 29.5l-3.2 2 13 22.5c7.2 12.3 14.3 24.6 15.8 27.4 1.6 2.7 10.9 18.9 20.8 36 24.2 41.7 22 36.6 18.2 42.1-1.7 2.5-3.4 4.2-3.7 3.9-.4-.4-1.8-2.6-3.2-5-5.2-9.1-19.6-34-22.2-38.4-1.5-2.5-3.1-5.2-3.4-5.9-.4-.7-6.7-11.8-14.1-24.5-7.5-12.8-14.5-25-15.7-27.2-1.2-2.2-5-8.8-8.5-14.7-5.3-9.2-6.5-10.6-8-9.8-10.4 5.5-53.1 34.1-61.6 41.2-.5.5-5.8 4.5-11.6 9.1-8.9 6.9-21.1 16.9-22.9 18.7-.3.3-2.5 2.3-5 4.4-2.5 2.1-9.8 8.9-16.3 14.9l-11.8 11.1 56.2 56.2 56.3 56.3-3.6 3.9-3.6 4-56-55.9c-30.7-30.7-56.3-55.9-56.9-55.9-1.4 0-19.2 19-31.4 33.4-1.3 1.6-2.9 3.4-3.5 4-6.4 6.8-24.6 30.6-38 49.6-11.3 16-27.4 41.4-27.4 43.1 0 .4.8.9 1.8 1.2 1.7.6 4.5 2.2 16.5 9.6 3.7 2.2 6.9 4.1 7.1 4.1.2 0 15.4 8.7 33.7 19.3 18.4 10.7 35.4 20.5 37.9 21.9 5 2.8 61 35.1 84.5 48.8 8.3 4.8 17 9.8 19.5 11.2 2.5 1.4 8.8 5 14 8l9.4 5.5 6.5-10.1c12.9-20.2 30.3-42.6 46.9-60.6l6.1-6.5-16.5-16.4c-19.1-19.1-22.6-22.9-21.9-24 .2-.5.7-2.6 1.1-4.7.3-2.2.8-4.3 1.1-4.8.3-.4 10.3 8.9 22.2 20.7l21.6 21.6 4.5-4.1c2.5-2.2 6.8-6.1 9.5-8.7 2.8-2.6 6.6-5.9 8.6-7.4l3.5-2.7-.7 5.3c-.4 2.8-.8 6.2-.8 7.4-.1 2.4 0 2.3-10 11.2l-7.2 6.4 3.1 3.2 3.1 3.2-2.4 5.1-2.4 5.2-4.5-4.5-4.4-4.6-8.1 8.8c-11 12-21.8 25.4-31.7 39.2-8.8 12.4-18.1 27-17.5 27.5.2.2 3.1 1.8 6.4 3.6 3.3 1.8 7.2 4.1 8.7 5.1 1.4 1.1 2.8 1.9 3 1.9.3 0 12.6 7 27.4 15.6 14.8 8.6 29.4 17 32.4 18.7 3 1.7 7.3 4.1 9.4 5.5 2.2 1.3 6 3.6 8.5 4.9 2.5 1.4 5.6 3.1 6.8 3.7l2.2 1.2-2.6 3c-1.3 1.6-2.8 3.5-3.3 4.3-.6 1.2-1.5 1-5.1-1.1-2.4-1.4-6.6-3.8-9.3-5.3-2.7-1.5-18.4-10.6-34.8-20.1-16.4-9.6-30.1-17.4-30.2-17.4-.2 0-6.1-3.4-13-7.4l-12.6-7.5-8.9 18.2c-9.8 19.9-18.1 40.4-23.2 56.7-1.7 5.8-3.4 11-3.6 11.6-.3.9 6.2 3.3 13.5 4.9 1.8.4 9.5 2.5 19 5.1 3.1.9 7.3 2 9.2 2.4 1.9.5 7.3 1.9 11.9 3.1l8.3 2.2-7.2 3.3c-8.3 3.9-8.7 3.9-15.5 1.9-2.7-.9-5.9-1.7-7-2-1.1-.2-8.5-2.2-16.5-4.3-8-2.2-15.5-4.2-16.7-4.5-2.2-.5-2.7.5-3.9 7.3-.3 1.4-.9 4.1-1.4 6-1.8 6.9-5.5 29.9-6.6 41-.4 3.6-.8 7.8-1 9.5-.1 1.6-.6 9-.9 16.2l-.6 13.3h53c29.2 0 53.1.4 53.1.9 0 .4-1.5 2.8-3.4 5.2l-3.3 4.4-49.4.1h-49.4l.1 9.5c0 8.5 1.2 28.2 1.9 31.9.1.8.6 4 1 7s.9 6.4 1.1 7.5c.2 1-1 5.9-2.6 10.9-1.7 4.9-3 9.6-3 10.5 0 3.8-1.9-1-2.9-7.4-1.1-6.8-1.5-9.4-2.7-16.5-.8-4.7-1.2-8.3-2.9-26.3-.3-2.8-.6-10-.7-15.9-.3-9.8-.5-10.7-2.3-11-1.7-.3-250.6-.2-255.9.1-1.8.1-1.9.9-1.3 18.3.4 10.1.9 21 1.2 24.3.7 9.7 1.5 18.7 2 22.5.5 3.6.9 8 2 18.5.4 3.3.8 6.2 1 6.5.2.3.6 3.3 1 6.5.3 3.3.9 6.8 1.1 7.7.3 1 .7 2.8.9 4 3.5 20.6 10.6 53.2 11.8 54.4.3.3 2.5 0 4.8-.6 2.4-.7 5.1-1.4 5.9-1.5.8-.2 4.9-1.3 9-2.4 4.1-1.1 13.4-3.6 20.5-5.5 7.2-1.9 16.6-4.4 21-5.6 4.4-1.2 8.7-2.3 9.5-2.6.8-.2 5.8-1.5 11-2.9s10.3-2.8 11.4-3c1-.2 4.2-1.1 7-1.9 2.8-.8 11.2-3.1 18.6-5 7.4-2 17.8-4.7 23-6.1 80.3-21.8 102.3-27.5 102.9-26.9 1 .9-.1 8.9-1.2 10-.9.9-16.6 5.5-26.7 7.8-.8.2-8.5 2.3-16.9 4.6-8.5 2.3-18.7 5-22.5 6-3.9 1-29.1 7.7-56.1 15-56 15-50.1 13.4-88 23.5-15.9 4.3-29.3 8-29.8 8.4-.4.4-.1 2.7.7 5.2.8 2.4 3.6 11.1 6.1 19.4 4.4 14 13 38.2 16 45 .7 1.6 3.6 8.6 6.5 15.5 7.9 19 30.2 63.5 33.5 66.8.2.3 1.6-.3 2.9-1.2 2.1-1.3 14.5-8.6 31.8-18.5 1.8-1 12.1-6.9 22.8-13.1 36.1-20.9 45.3-26.1 45.5-25.8.1.2 1.4 1.9 2.8 3.9 1.5 2 2.7 3.8 2.7 4.2 0 .3-5.3 3.6-11.7 7.4-6.5 3.7-12.7 7.3-13.8 8-1.1.7-2.7 1.5-3.5 1.9-.8.4-7.3 4.2-14.6 8.5-7.2 4.2-15.1 8.8-17.5 10.2-2.4 1.3-10 5.7-16.9 9.7-6.9 4-14.5 8.4-17 9.9-2.5 1.4-5.4 3.1-6.5 3.7-1.7 1.1-1.4 2 5.5 13 11.3 18.1 26.5 40.3 36.7 53.4 23 29.6 55.3 66.2 57.1 64.6.4-.3 20.6-20.5 45-44.8 44.1-44 44.3-44.2 44-40.3-.1 2.2.1 5.4.6 7.1.7 3.1-.1 4-40.9 44.8l-41.6 41.6 3.4 3.3c14.5 13.8 19.5 18.4 29.2 26.7 27.1 23.4 56.9 45.3 86.2 63.3l12 7.4 5.1-8.6c2.7-4.7 5.9-10.2 7-12.1 1.1-1.9 4.3-7.6 7.2-12.5 2.9-5 6.2-10.8 7.5-13 6.3-11.2 20.8-36.3 22.1-38.2l1.3-2.1 4 1.9c2.2 1 4.5 1.9 5 1.9.6 0-.2 2.2-1.8 4.8-1.5 2.6-3.9 6.8-5.3 9.3-1.4 2.4-7.5 12.9-13.5 23.4-6.1 10.4-15.1 26.1-20.1 34.7l-9.1 15.7 6.8 3.9c28.4 16.4 73.6 36.3 110.1 48.5 17.6 5.9 33.2 10.7 34.7 10.7.5 0 2.7-6.4 4.7-14.2 2.1-7.9 4.4-16.3 5.1-18.8.8-2.5 2.5-8.8 3.9-14 1.3-5.2 5.7-21.4 9.6-36 4-14.6 7.4-27.4 7.6-28.5.2-1.1 3.1-11.9 6.4-24 3.4-12.1 6.3-22.9 6.5-24 .4-2 3-11.7 6.5-24.5 1-3.6 4.1-15.3 7-26 2.9-10.7 6.5-24.1 8-29.8 1.9-7.1 2.4-10.5 1.6-10.7-.6-.2-6.3-2.1-12.6-4.1-13.3-4.2-35.4-12.8-47.6-18.4-8.7-4.1-9.1-4.5-8.4-10.4.2-1.7-.4-1.8-7.2-1.3-5.5.4-7.8.2-9.2-.9-3-2.1-4.1-1.7-6.2 2.1-1.4 2.7-2.5 3.5-4.6 3.5-1.6 0-3.1.7-3.7 1.9-1 1.7-.8 5.8.3 6.9.7.6-3.5 8.2-4.5 8.2-.3 0-2.3-1.5-4.2-3.3l-3.6-3.3 4.6-7.9c2.5-4.4 5.4-9.6 6.5-11.5l2-3.4-2.3-1.9c-1.3-1-8-5.6-14.9-10.1-11.1-7.3-12.5-8.5-12.3-10.9.2-3 0-3.1-2.8-1.6-1.8.9-3.7-.3-14.2-8.8-6.7-5.4-14.3-11.8-17-14.3l-4.9-4.5.6-5.9c.3-3.2.8-6.1 1-6.3.2-.3 1.8.8 3.5 2.4 16.1 15.4 38.4 32.8 59.2 46l9.6 6.1 3-5.2c8.7-14.6 63.2-109 68.4-118.1 14.3-25.7 23.8-41 25.5-41.3 1-.2 3-1.2 4.4-2.2l2.5-2-2.2-1.8-2.2-1.7 3.6-6c2-3.3 8.1-13.9 13.6-23.5s10.1-17.7 10.3-17.8c.1-.2 2.3.8 4.8 2.3l4.6 2.7-3.2 5.7c-1.7 3.1-3.9 6.7-4.8 8.1-1 1.4-1.9 3-2.1 3.5-2 5.2-13.8 24-15.7 24.8-1.5.7-2.1 1.6-1.6 2.9.3 1.2-5 11.4-16.7 31.6-9.5 16.3-18.1 31.3-19.2 33.2-1.1 1.9-6.1 10.7-11.2 19.5l-11.3 19.5c-1.1 1.9-7 12.3-13.3 23-6.2 10.7-15 26-19.6 34l-8.3 14.5 17.8 8.8c9.7 4.8 23.6 11 30.7 13.8 12.6 5 35.9 12.8 38.1 12.9.9 0 4.9-12.6 6-18.5.1-.6 1.3-5.3 2.8-10.5 3.6-13.3 18.6-69.1 19.1-71.2.2-.9 3.5-13.3 7.3-27.5s7.3-27.2 7.7-28.8c.5-1.7.9-3.5 1.1-4 .1-.6 3.5-12.9 7.4-27.5 10.7-40.1 9.4-36.5 14.5-40 2.5-1.7 4.5-3.7 4.5-4.4 0-1.5 3.7-5.6 5.1-5.6.6 0 .7.4.4 1-.5.8-12.9 46.2-14 51.3-.2 1-4.1 15.4-8.5 32-4.5 16.6-11.3 41.9-15.1 56.2-8.4 31.3-14 52.2-21.4 79.5-3 11.2-5.2 20.7-4.7 21.1.6.7 15.2 4 22.7 5.3 29.2 4.9 41.5 6.2 66.5 7l3.5.1.1-125.3.2-125.4 5-4.8c3.3-3.2 5.5-6.3 6.1-8.7 1-3.7 1.1-3.8 6.3-4.1 2.9-.1 9.5-1.2 14.7-2.2 11.2-2.4 10.1-2.3 10.1-.7 0 .7 1.6 3.1 3.5 5.3 1.9 2.1 3.5 4.5 3.5 5.3 0 .8.8 4.4 1.9 8 1 3.6 2.7 10 3.9 14.1 7.2 26.9 9.7 36.2 13.3 49.5 2.2 8.2 4.4 16.6 4.9 18.5.4 1.9 3.8 14.5 7.5 28s7.1 26.1 7.5 28c.5 1.9 2.5 9.6 4.5 17s3.8 14.2 4 15c.2.8 2.5 9.1 5 18.5 6.8 25.1 10.4 38.4 11.7 43.7.6 2.7 1.5 4.8 1.9 4.8 2.1 0 25.2-7.8 37.7-12.7 16.5-6.4 48.8-22.3 48.5-23.8-.1-.9-85.8-149.8-88.3-153.5-.5-.8-1.8-3.1-2.9-5-1-1.9-8.3-14.4-16-27.8l-14.1-24.3 3.8-4.1 3.9-4 4 6.9c4.6 7.6 13.5 23.2 30.5 52.8 6.3 11 17.1 29.7 24 41.5 6.9 11.8 13.6 23.5 15 26 1.4 2.5 5.8 10.1 9.8 17 4 6.8 8.1 13.8 9 15.5.9 1.6 7 12.2 13.5 23.5 6.6 11.3 13 22.6 14.4 25.2 1.5 2.6 3 4.8 3.5 4.8 2.5 0 34.5-21.9 46-31.4 5.9-5 18.5-15.9 24.6-21.4l4.4-4.1-88.1-88.1-88.1-88.1 8.2.6 8.1.7 83.8 83.6 83.8 83.7 2.6-3c1.4-1.7 4.9-5.5 7.7-8.5 11.1-11.7 27.7-33.4 39.1-50.9 3.7-5.8 6.9-11 7.2-11.7.3-1-7.5-6.1-18.3-12-1.1-.6-8.1-4.6-15.5-8.9-7.4-4.3-14.7-8.6-16.4-9.5-1.6-.9-10.6-6.1-20-11.5-9.3-5.5-24.9-14.4-34.6-20l-17.6-10 3.6-4.2 3.6-4.2 29.2 16.9c16.1 9.3 31.6 18.3 34.5 19.9 2.9 1.6 17 9.7 31.3 18 14.2 8.3 26.2 14.8 26.6 14.3 2.9-3.3 18.7-36.9 24.9-53.2 5.1-13.2 11-32.4 10.2-33.1-.4-.3-11-3.3-23.7-6.7-12.6-3.4-25-6.6-27.5-7.3-5.1-1.4-4.3-1.2-13.2-3.5l-6.7-1.7 1.9-2.5c1.1-1.3 2-3 2-3.6.1-3.9 1.4-3.8 28.1 3.4 33.8 9.1 42 11.2 42.5 10.7.6-.5 6.1-25.9 6.8-31.2.3-2.2.7-4.9 1-6 .6-3 1.5-10.3 2.1-17 .3-3.3.7-7.4 1-9 .2-1.7.7-8.9 1-16.1.5-10.4.4-13.2-.7-13.6-.7-.2-12-.3-25-.3-13.1.1-23.8 0-23.8-.2 0-.3 1-2.7 2.1-5.4l2.1-4.9 10.2-.1c5.5 0 15.8 0 22.9.1l12.7.1-.5-12.3c-.4-11.4-1.2-21.8-2-27.8-.2-1.4-.7-5.2-1.1-8.4-.6-5.5-.5-5.8 1.2-5.1 1.1.4 3.3 1.2 4.9 1.7 1.7.6 3.3 1.3 3.7 1.7 1.5 1.3 3.4 20.3 4 40.4l.3 9.7H1697.8l-.3-2.8c-.2-1.5-.6-10.8-1-20.7-.3-9.9-.8-19.6-1-21.5-.1-1.9-.6-7.1-.9-11.5-.4-4.4-.9-9.4-1.1-11-.2-1.7-.7-5.5-1-8.6-.3-3.1-.7-6.5-.9-7.5-.3-1.9-1.3-8.6-2.2-15.4-.3-1.9-.7-4.6-1-6-1.1-5.8-1.3-6.9-1.8-10.6-2-12.1-9.6-45.3-10.8-47-.6-.8-3.8-.3-11 1.8-5.7 1.5-10.7 2.7-11.3 2.4-.6-.2-1.1-1.6-1.3-3-.1-1.5-.6-3.6-1.2-4.6-1.1-2.1-2-1.7 11.9-5.4 5.1-1.4 9.6-2.7 9.8-3 .6-.6-8.9-31.5-14.4-46.6-6.5-18.1-12-31.8-17.7-44.3-1.4-3.2-2.6-6-2.6-6.3 0-.7-20.7-42.1-23.2-46.4-.8-1.4-2.3-3.9-3.3-5.6l-1.8-3.1-14.5 8.5c-13.7 8-14.6 8.3-15.9 6.6-.7-1.1-2-2.7-2.9-3.7-1.9-2.3-1.2-4.4 1.8-5.7 1.3-.5 4.6-2.3 7.3-4 2.8-1.6 8-4.7 11.7-6.7 3.8-2.1 6.8-4.1 6.8-4.5 0-1.5-26.4-42.7-30.3-47.3-.4-.6-4.3-5.7-8.5-11.5-7.5-10.3-22.6-29.5-24.7-31.5-.6-.6-3.6-3.9-6.6-7.5-11.3-13.5-28.7-32-30.1-32-.5 0-27.2 26.3-59.3 58.4-32.1 32.1-58.6 58.2-58.8 58-.2-.3-2.7-1.2-5.4-2.2l-5.1-1.8 60.5-60.4 60.4-60.5-8.3-8c-10.3-10-19.7-18.4-31.3-28-3.3-2.8-6.9-5.8-8-6.8-16.4-14-56.7-42.2-78.6-55l-4.6-2.7-5.4 9.2c-2.9 5.1-16.7 29.1-30.7 53.3-14 24.2-26.4 45.6-27.4 47.5-1.1 1.9-6.3 10.9-11.6 20-5.2 9.1-11.9 20.5-14.7 25.5-2.8 4.9-12.9 22.5-22.4 39l-17.3 29.9 2.3 1.9c1.3 1 7.1 4.9 12.9 8.7 13.3 8.7 18.1 12.1 27.2 19.3 6.2 4.9 7.9 6.9 11.2 13.5 2.2 4.2 5.7 10.3 7.8 13.4 4 6 5 8.4 2.1 5.2-9.5-10.4-41-34.8-61-47.2l-8.1-5.1-18.3 31.7c-10.1 17.4-20.2 34.8-22.4 38.7-2.3 3.8-5.3 9-6.7 11.5-1.4 2.5-7.7 13.5-14 24.5-6.4 11-24 41.5-39.2 67.8-15.2 26.3-27.6 47.9-27.6 48.1 0 .1 2.1 1.8 4.8 3.6 2.6 1.8 7 5.3 9.8 7.6 2.8 2.4 5.6 4.4 6.3 4.6.6.2 41.9-40.4 91.6-90.1 49.8-49.7 90.6-90.2 90.7-90 .2.2 1.8 2 3.6 4l3.3 3.6-90.5 90.6-90.6 90.6 3.2 3.8c1.8 2.1 3.8 4.3 4.3 4.9.6.6 2.8 3.6 4.9 6.7 2.2 3.2 4.4 5.7 4.9 5.7s3.2-1.4 5.9-3c2.6-1.7 5.1-3 5.3-3 .3 0 2.4-1.2 4.6-2.6l4.1-2.6-.7 4.4c-1.4 9.4-1.3 9.2-8.1 13.2-4.5 2.6-6.3 4.1-5.7 4.9 3.3 4.4 3.2 6.4-.2 11.8l-3.3 5.2-4.1-8.5c-15.3-32.2-44.2-58.1-77.5-69.4-8.1-2.8-23.4-6.4-27.1-6.4-3.4 0-3.3-3.5.1-7.4 2.3-2.6 2.9-2.8 7.5-2.2 2.7.4 5.5.9 6.2 1.1.6.2 2-1.2 3.1-3.3l3.7-7.4c1.1-2.1 1.9-4.8 1.8-6-.3-7.9.4-12.1 4.9-28.3 2.8-9.9 7.8-28.6 11.2-41.5 9.4-35.9 8.8-34 12.2-35.9 1.7-.9 4.6-2.8 6.3-4.4 1.8-1.5 3.5-2.7 3.7-2.7.3 0-.6 3.9-1.9 8.7-1.3 4.9-3.5 13.1-4.9 18.3-1.4 5.2-7.2 26.8-12.9 48-10.1 37.4-14.2 52.8-15 56.1-.3 1.3 1.4 2.3 7.3 4.4 4.2 1.5 9.9 3.8 12.5 5.2 2.7 1.3 5 2.3 5.2 2.1.4-.4 14.3-24.3 16.4-28.3.9-1.6 1.9-3.2 2.3-3.5.4-.3 1.2-1.7 1.8-3 .5-1.4 2.3-4.6 3.8-7.1s7.3-12.7 13-22.5 10.7-18.6 11.2-19.4c.9-1.5 7.4-12.6 12.5-21.5 1.6-2.8 3.9-6.6 5-8.6 2-3.6 21.5-37.4 24.6-42.7 6.7-11.4 25.5-44.1 26.3-45.9.6-1.3 1.4-2.3 1.9-2.3.4 0 .7-.5.7-1 0-.6 2-4.5 4.5-8.8l4.5-7.6-10.3-5.3c-11.1-5.8-31.3-15-41.7-19-10.9-4.2-35.1-12-35.5-11.4-.2.3-2.4 8.7-5 18.6-2.5 9.9-5.1 19-5.6 20.3-.5 1.3-.9 3.2-.9 4.2 0 3.2-1.7 2.3-5.1-2.6-3.7-5.4-3.7-6.3-.9-16.9 3-11 4-14.7 4.4-16.6.3-.9.9-3.4 1.5-5.5s.7-4.2.3-4.6c-.4-.4-2.8-1.2-5.2-1.7-2.5-.5-7.9-1.6-12-2.5-4.1-.9-8.9-1.9-10.7-2.1-6.6-1-9.9-1.5-12.1-1.9-1.3-.3-6.9-1-12.5-1.6-5.6-.6-12-1.3-14.2-1.5-2.2-.3-8.9-.6-15-.7l-11-.3-.1 9.5c-.2 12.5-.1 12-2.5 12-1.1 0-3.4.9-5 2.1-1.6 1.1-2.9 1.9-3 1.7 0-.2-.1-5.9-.2-12.8l-.2-12.5-4 .1c-9.3.3-29.2 1.4-31.5 1.8-1.4.2-5.3.7-8.7 1l-6.2.6-1.7-3.2c-.9-1.8-2.3-4-3.1-4.9-1.6-1.8-.3-2.1 14.2-3.4 3.9-.4 8.1-.9 9.5-1.1 1.4-.2 8.8-.7 16.5-1 7.6-.3 14.2-.7 14.6-.9.3-.3.6-58.7.7-129.9V684.1l-12.5.2c-6.8.1-12.5.2-12.6.3zm577 360.7c.9.9 1.4 1.9 1.2 2-.2.2-6 3.5-12.9 7.4-6.9 3.9-15.9 9.1-20.1 11.6l-7.6 4.5-3.6-4.2c-3.9-4.8-4.4-3.9 5.3-9.4 3-1.7 11.8-6.7 19.4-11.1l13.9-8 1.4 2.7c.8 1.5 2.2 3.5 3 4.5zM783 1108.9c0 .4-1 1.1-2.2 1.6-1.2.6-2.6 2.4-3 4.2-.8 3.2-.9 3.2-2.8 1.3-1.6-1.6-1.8-2.4-.8-5.2.6-1.8 1.8-4.1 2.6-5.1 1.5-1.6 1.7-1.6 3.9.5 1.3 1.2 2.3 2.4 2.3 2.7zm183.7 13.6c2.3 8.7 4.5 17.2 4.8 18.9l.5 3.1-1.7-3.5c-2.5-4.8-4.7-5-5.9-.4-1.4 5.8-2.9 5.1-4.7-2.3-.9-3.8-3.2-12.5-5-19.4l-3.4-12.6 5.5.2 5.6.2 4.3 15.8zm62.8 4.5c-.1 8.3-.5 15.4-1 15.9-.6.6-3 1.1-5.3 1.3l-4.3.3-.1-8c0-16.9-.1-16.1 4-20.5 6.4-6.6 6.7-6.1 6.7 11zm-124.7 12.9l5.9 10.3-3.9 3.6c-2.1 1.9-4.1 3.3-4.3 3-1-1-10.5-17.1-11-18.7-.6-2.1 5.3-10.7 6.5-9.5.5.5 3.5 5.6 6.8 11.3zm71.7 18.8c.4 1.7.2 2.9-.7 3.4-1.2.8-7.4.2-9-.7-.6-.4-3.8-10.3-3.8-11.7 0-.3 2.9 1.1 6.4 2.9 4.7 2.5 6.6 4.1 7.1 6.1zm371.1 12.4c.5 5.3.5 5.4-2.8 7.3-5 2.8-7.7 4.4-28.8 16.6-10.7 6.2-31.4 18.1-46 26.5-14.6 8.4-33 19-41 23.7-8 4.6-15.2 8.7-16 9.1-.8.4-2.8 1.6-4.5 2.6-7.7 4.9-10.7 6.2-12.1 5-1.1-.9-4.4-6.5-4.4-7.5 0-.2 1.7-1.3 3.8-2.4 2-1.1 5.8-3.3 8.3-4.8 2.5-1.5 22.8-13.2 45-26 22.2-12.9 41.1-23.8 41.9-24.3 7.4-4.6 55.4-31.8 55.7-31.6.2.2.6 2.8.9 5.8zm-422.6 4.1c1.1 2.4 2 5.3 2 6.5 0 1.3.9 3.2 2.1 4.4 2.6 2.6 2.3 2.8-3.3 3.5l-4.6.6-3.1-5.8c-1.7-3.2-3.1-6.2-3.1-6.9 0-.6 1.6-1.9 3.5-2.9 1.9-1.1 3.5-2.3 3.5-2.8 0-1.9 1.2-.5 3 3.4zm104.5 13c-.2 1.8-.8 4.8-1.4 6.7-.8 2.5-.7 4 .2 6 2.1 4.1 1.3 6.9-2.9 10.5-3.3 2.8-3.8 3.8-3.6 7l.3 3.6h-5c-5.4 0-5.7-.4-6.5-6.8-.3-2.7 0-3.2 1.8-3.3 1.1-.1 2.6-.2 3.1-.4.6-.1 1.5-.3 2.1-.3.8-.1 1.2-3.3 1.2-9.2.1-10.1.4-11 5.2-14.5 4.6-3.4 6-3.2 5.5.7zm586.9 8.9c2.6 3.1 3.3 5.4 1.8 6.3-1.7 1-28.4 7.7-28.9 7.3-.8-.9 3.3-2.7 7.2-3.2 3.8-.4 5.3-1.7 8-6.7 1.7-3 6.1-6.8 8-6.8.7 0 2.5 1.4 3.9 3.1zm-40.6 9.2c.6.6 1.2 1.9 1.4 2.7.4 2.1 1.9 3 5.3 3.1 1.8 0-1 1.2-7.5 3-5.8 1.6-12.1 3.4-14 3.9-1.9.6-10.5 2.9-19 5.1-8.5 2.3-19.5 5.2-24.5 6.6-4.9 1.3-13 3.5-18 4.8-4.9 1.3-9.7 2.6-10.7 3-1.4.5-1.7-.2-2-5l-.3-5.6 5-1.4c6-1.7 46.2-12.4 49-13.1 1.1-.2 8.1-2.2 15.5-4.3 14.8-4.2 18.2-4.7 19.8-2.8zm-585 6.5c.3 1.7.9 2.1 2.5 1.8 1.2-.2 3.8-.7 5.8-1.1 3.1-.6 3.7-.4 4.2 1.4.3 1.2-.1 2.2-.9 2.5-.8.3-2.3 2-3.4 3.8-1.7 2.8-3 3.5-10.2 5.5-4.6 1.2-8.6 2.2-9 2.3-1.2 0-.9-9.8.2-10.5.6-.3 1-1.5 1-2.5 0-2.4 4.8-6.2 7.4-5.8 1.3.2 2.2 1.2 2.4 2.6zm378.9 51.9l3.2 4.7-4.7 1.3c-2.6.7-6.5 1.7-8.7 2.3-2.2.5-6.9 1.8-10.5 2.8l-6.5 1.9v-11.1l4.5-1.3c6-1.8 18.4-5.2 19-5.2.3 0 1.9 2.1 3.7 4.6zm-40.3 6.8c.7 1.9-.2 4.3-2.6 6.7-1 1-1.8 2.4-1.8 3.1 0 .8-.6 1.4-1.2 1.4-.7.1-13 3.2-27.3 7.1-14.3 3.9-31.4 8.4-38 10.2l-12 3.2-3.8-4.2c-2.2-2.3-3.7-4.3-3.5-4.5.3-.4 34.6-9.8 39.8-11.1.8-.1 12.1-3.2 25-6.7 12.9-3.6 23.8-6.5 24.1-6.6.4 0 .9.6 1.3 1.4zm5.6 8c-4.9 1.9-6.9 1.9-4.4 0 1-.8 3.3-1.4 4.9-1.4l3 .1-3.5 1.3zm-165.9 63.7c.1 1 .3 2.2.4 2.8.1.5.3 2.1.4 3.5.1 2.4.3 2.5 7.2 2.5 6.2 0 7 .2 5.9 1.5-.7.8-1.7 1.5-2.2 1.5-1.6 0-13.1 8.2-17.3 12.5l-4.2 4.1v-14.5c0-8.1.4-14.9.9-15.2.5-.3 2.7-.5 4.8-.5 3.1 0 4 .4 4.1 1.8zm163.7 10.8c-2 1.5-2.1 2.2-1.2 5.2l1.1 3.4-10.9.1c-10.6 0-10.8 0-11.4-2.4-.4-1.3-.4-2.6-.1-2.9.3-.4.2-1.7-.3-3l-.9-2.3 11.7-.3c14-.4 14.9-.2 12 2.2zm24.4-1.1c-1.2.7-6.2.4-6.2-.5 0-.2 1.7-.4 3.8-.4 2.3 0 3.2.3 2.4.9zm-669 91.9c-1.1 1.5-2.4 4-2.7 5.5-.4 1.5-1.2 3-1.7 3.3-1.9 1.2-36.3 10.2-37 9.8-.4-.3-1.2-2.3-1.8-4.6-1.4-5-.3-6.7 3.3-5.1 2.3 1.1 6-.1 9.7-3.2.8-.7 7.1-2.7 14-4.5 6.9-1.7 13.6-3.5 15-4 3.4-1 3.6-.6 1.2 2.8zM834 1473c0 1-3.1 2.3-3.8 1.5-.8-.7 1.9-3.5 2.9-2.9.5.3.9.9.9 1.4zm-193.9 7.2c2.9 9.5 13 36.1 15.8 41.5l2.1 4.3h-3.3c-1.8 0-4.2.6-5.2 1.4-1.8 1.3-2.1 1.1-4.1-3.2-2.2-4.7-2.2-4.7-.2-6.3 2.1-1.7 1.3-3-2.7-4.3-1.4-.4-3.1-3.3-5.6-10l-3.6-9.4 2.9-.6c5-1 2.4-5.6-3.1-5.6-1.2 0-2.1-.3-2.1-.8 0-.4-.7-2.9-1.5-5.6l-1.5-5 2.5 2.4c2.1 2 2.5 2.1 2.5.6 0-1.9 2.8-6.6 4-6.6.5 0 1.8 3.3 3.1 7.2zm175.4 3.8c-.3.5-1.3 1-2.1 1s-1.4-.5-1.4-1c0-.6.9-1 2.1-1 1.1 0 1.7.4 1.4 1zm-40 17.7c5.5.8 5.9 1.2 3.4 3.1-1.3 1-6.2 4-10.9 6.6-4.7 2.7-10.5 6-12.8 7.4-2.6 1.5-6.3 2.6-9 2.7-2.6.2-5.5.3-6.4.4-1 .1-1.9 1.3-2.3 3.1-.4 1.6-1.2 3.3-1.8 3.7-1.6 1-18.6 1.2-19.2.3-.3-.5.7-1.3 2.3-1.9 1.5-.6 12.6-6.9 24.7-14 19.7-11.6 22.4-12.9 25.5-12.4 1.9.3 4.9.7 6.5 1zm101.5 6.9c1.7-.2 3-.3 3 0 0 .2-4.8 5.1-10.6 10.8-10.4 10.3-10.7 10.5-13.3 9.2-1.4-.7-3.9-1.6-5.5-2l-2.9-.7 10.9-10.9 10.9-11 2.3 2.6c1.7 1.9 2.9 2.4 5.2 2zM712 1535c1.7 1.7 6.2 2.7 9.4 2.1.5-.1.4.5-.4 1.3-.7.9-1.6 1.6-2 1.6-.5 0-4.1 1.9-8.2 4.3-4 2.4-8 4.7-8.8 5.1-.8.4-2.4 1.2-3.5 1.9s-6.2 3.6-11.3 6.6c-6.3 3.6-9.1 5.9-9 7 .3 1.3-.8 1.6-5.4 1.7-8.2.2-10.7 1-11.4 3.9-.4 1.6-2.6 3.7-6.2 5.9-6.9 4.2-8.4 3.5-8-3.3.3-4.6.3-4.6 8-9l7.6-4.5-2.9-5.9c-1.7-3.2-2.6-5.6-2-5.3.5.4 3.6 1.1 6.7 1.7 3.2.6 6.3 1.8 6.9 2.6 1 1.4 1.4 1.4 3.6.1 1.3-.8 3.8-1.4 5.4-1.3 1.7.2 5.7.4 9 .6l6 .3.5-5.6c.3-3.1.7-5.9 1-6.1 1.3-1.2 11.5-7.7 12.2-7.7.5 0 1.7.9 2.8 2zm116.6 13.1c.4.7 2.6.9 6 .5 3-.3 5.4-.4 5.4-.1 0 .2-21.1 21.5-47 47.4-25.8 25.8-47 46.4-47 45.7 0-.7-1.1-3-2.5-5.1l-2.6-3.7 42.8-42.9c23.5-23.6 43.1-42.9 43.5-42.9.4 0 1 .5 1.4 1.1zm-129.1 48.3c3.7 5.1 5.1 7.7 3.9 7.2-1-.5-3.2-1.2-4.9-1.8-1.6-.5-3.7-1.3-4.5-1.7-.8-.4-2.3-.7-3.2-.5-1.1.1-3.2-1.8-5.5-4.9-6.8-9.1-7.5-10.7-6.7-13.5.4-1.5.9-4.5 1-6.7.1-2.2.2-4.7.3-5.5.1-.8 3.2 3.2 6.9 9s9.4 14.1 12.7 18.4zm-59.6-17.8c1.2 2.5 1.9 4.9 1.6 5.4-.2.4-8 5.1-17.3 10.4l-17 9.7-2.8-2.9c-1.6-1.6-3.6-3.1-4.4-3.4-1.9-.7.4-2.6 7.2-6 2.6-1.3 4.8-2.6 4.8-3.1 0-.4.4-.7.9-.7.6 0 6.3-3.1 12.8-7 6.5-3.8 11.9-6.9 12-7 .1 0 1.1 2.1 2.2 4.6zm79.4 90.9c-5.7 5.8-10.7 10.5-11.1 10.5-.4-.1-2-1.9-3.5-4.2l-2.9-4.1 10.4-10.3 10.3-10.4 3.7 4 3.6 4.1-10.5 10.4zm79.9 78.8l3.7 3.2-9.9 17c-15.6 26.8-15 25.9-16.6 23.7-.7-1.1-1.4-4.6-1.5-7.9-.2-5.6.1-6.4 7.6-19.3 4.3-7.4 8.3-14.4 8.9-15.5 3-5.5 2.9-5.5 7.8-1.2z"/><path d="M1029.5 813.3c0 71.3.2 129.8.5 130 .3.3 7.1.8 15.1 1.1 8 .4 15.5.8 16.5 1 1 .2 5.3.7 9.4 1.1 4.1.4 12.5 1.5 18.5 2.6 9.7 1.6 13.2 2.2 23.5 4.3 1.4.3 4.7 1.1 7.4 1.7 5.7 1.4 5.8 1.3 8.1-8.1 1.5-6.1 1.9-6.7 5.1-7.9 4-1.4 4.2-2.6 1.2-5.8l-2.1-2.3 2.2-8.2c1.3-4.6 2.5-9 2.7-9.8.2-.8 1.5-5.8 2.9-11 2.9-10.4 10.4-38.6 11-41.1.2-.8 1.9-7.3 3.9-14.5 1.9-7.1 6.9-25.7 11.1-41.4 4.2-15.7 10.8-40.2 14.6-54.5 8.9-32.8 11.9-44.8 11.6-45.1-.1-.2-1.4-.5-2.7-.8-1.4-.3-9.4-2.1-17.8-4.1-16.5-3.7-18.8-4.2-24.2-5.1-1.9-.2-5.7-.9-8.5-1.4-2.7-.5-6.6-1.2-8.5-1.5-1.9-.3-4.6-.7-6-1-1.4-.2-4.5-.7-7-1-2.5-.3-6.1-.8-8-1-7.1-1-15-1.8-28.5-3-3.8-.3-8.8-.8-11-1-2.2-.2-12.3-.7-22.5-1l-18.5-.7v129.5zM1203.6 708.8c-.3.6-5.4 18.7-6.1 22.2-.2.8-4.7 17.7-10.1 37.5-12.3 45.8-18.5 69-26.2 98-2.2 8.2-7.4 27.8-11.7 43.5-4.2 15.7-8.8 32.8-10.2 38-1.3 5.2-2.7 9.8-2.9 10.1-.5.8 2 1.8 16.6 6.4 18.1 5.8 33 11.9 53.8 22.2 10.7 5.2 19.5 9.3 19.7 9.1.2-.3 4.8-8.1 7-12 .6-1 6-10.4 12.1-21 6.2-10.6 17.8-30.8 25.9-44.8 28.1-48.7 49.5-85.7 51.5-89 3.8-6.4 12.7-22 13.7-24 .7-1.4 1.7-3.2 2.3-4 1.3-1.9 12.4-21 13.3-23 .4-.8 1.4-2.6 2.2-4 .8-1.3 1.3-2.5 1.2-2.6-1.4-1.1-18.9-10.5-28.2-15.1-37.9-19-72.1-32.7-112.5-44.8-3-.9-6.7-2-8.2-2.5-1.5-.5-3-.5-3.2-.2zM152.3 786.2c0 .7-.8 7.1-1.7 14.3-2.4 18.2-2.6 19.7-3.1 22-.2 1.1-.4 3.3-.4 4.9l-.1 2.8-6.2-.6c-3.5-.4-7.4-.9-8.8-1.1-1.4-.2-4.7-.6-7.5-.9-2.7-.4-9.2-1.2-14.2-1.9l-9.2-1.3 2.7 3.5c11.3 15 24.5 31.6 25.1 31.9.4.1.8-.3.8-1 .1-3.3 2.6-9.9 5.8-15.3 17.3-28.8 58.2-29.6 77.1-1.5 4.3 6.3 6.5 13.2 7.1 22.7l.6 8.1 7.6-6c4.2-3.3 8.3-6.5 9.2-7.2.8-.7 4.2-3.2 7.5-5.6 3.2-2.4 6.8-5.2 7.8-6.2 1.1-1 2.4-1.8 3-1.8 1.3 0-.1-1.3-1.7-1.6-.7-.1-3.7-.4-6.7-.8s-10.7-1.4-17-2.2c-6.3-.9-13-1.7-14.9-1.9-1.8-.2-3.5-.6-3.7-.8-.3-.2.5-7.5 1.6-16.1 1.2-8.6 2.3-17.3 2.6-19.3.2-2 .7-4.9.9-6.5.3-1.5.3-2.8 0-2.8s-3.6 2.4-7.4 5.2c-3.7 2.9-11.6 9-17.6 13.6l-10.8 8.4-2.1-2.4c-1.2-1.3-2.8-3.3-3.6-4.5-2.3-3.3-22.2-29.3-22.5-29.3-.1 0-.2.6-.2 1.2zM1882 802.6c-6.9 9.1-13.1 17-13.7 17.6-1.2 1-4.7-1.2-14.3-8.9-6.6-5.4-22.3-17.3-22.7-17.3-.2 0-.2 1.2.1 2.7.3 1.6.8 4.6 1.1 6.8.4 3.5 1.9 15.1 3 23 .2 1.6.7 5.1 1 7.6.8 5.3.5 5.4-9.7 6.4-2.9.3-8 1-11.3 1.5-3.3.5-8.5 1.2-11.5 1.5-6.3.7-11.3 1.5-11.7 1.9-.2.1 2.7 2.5 6.5 5.3 3.7 2.8 11.8 8.9 18 13.7l11.2 8.6v-6.3c0-24.4 20.4-45 44.5-45 12.5-.1 23.5 4.1 32.6 12.4 4.6 4.2 9.9 12.9 12 20l2.1 6.8 6.2-8.2c12.6-16.7 17.7-23.3 19.8-25.6l2.2-2.3-6.5.6c-3.5.4-7.4.8-8.4 1-2.8.5-9.3 1.5-14 2.1-11.4 1.4-14 1.7-14.5 2-.3.2-1.1.1-1.7-.3-1-.7-1.5-2.8-2.8-14.2-.4-3-.9-6.6-1.1-7.9-.2-1.3-.9-6.8-1.5-12.2-.7-5.5-1.5-9.9-1.8-9.8-.3 0-6.2 7.4-13.1 16.5z"/><path d="M167.4 832.5c-27.8 6.4-37.3 40.2-16.9 59.7 16.1 15.4 42.7 11.6 54-7.6 7.1-12.2 6.5-26.3-1.7-38.3-7.2-10.6-22.8-16.7-35.4-13.8zM1862.3 833.9c-18.4 6.8-27.9 25.8-22 43.8 3.2 9.8 9.3 16.7 18.7 21.2 4.8 2.3 6.7 2.6 15 2.5 8.3 0 10.2-.4 14.8-2.7 26.4-13.6 26.1-50.4-.5-63.3-7.3-3.5-18.8-4.2-26-1.5z"/><path d="M110.7 874.9c-20 15.3-19.5 14-5.8 15.5 3.1.4 7 .8 8.6 1 1.7.3 7.1 1 12 1.7 5 .6 9.7 1.3 10.5 1.4.9.1 1.5 1.2 1.4 2.6 0 3-1.4 14.7-1.9 17.4-.2 1.1-.7 4.2-1 7-.8 6.9-1.4 11.4-2.1 15.4-.5 2.8-.3 3.3.8 2.4.7-.5 5.4-4.1 10.3-7.8 5-3.8 11.3-8.7 14.2-10.9 8.9-7 9.7-7.6 10.8-7.6.5.1 6.9 7.9 14 17.4 7.2 9.6 13.3 17.1 13.7 16.7.3-.3.9-3.3 1.3-6.6s.9-6.7 1-7.5c.1-.8.5-4.2.9-7.5s.9-7.1 1.1-8.5c.2-1.4.7-4.8 1.1-7.5.8-6.1 1.1-6.7 3.2-6.1 1 .3 4.2.8 7.2 1.1 8.4 1 10.6 1.3 22.9 3 6.2.9 11.5 1.4 11.8 1.1.3-.2-4.1-6.4-9.8-13.8-18-23.4-17.1-22.6-18.2-16.8-.9 4.2-4.3 11.5-7.5 15.9-9.9 13.7-28.6 21-45.5 17.7-20-3.8-35.1-21.3-36.4-42.1-.3-4.4-.6-8.1-.7-8.1 0-.1-8.1 6-17.9 13.5zM1919 867.9c0 11.1-4.8 22.5-13.2 31.1-17.9 18.5-47.3 18.1-65.6-1-4.8-5-9.9-14.5-10.8-20.2-.4-2.1-1-3.8-1.4-3.8-.4 0-6.5 7.5-13.6 16.7-7 9.3-13.3 17.2-13.9 17.6-.9.8 8.2.3 13-.7 1.1-.2 4.9-.7 8.5-1.1 3.6-.4 7.2-.9 8.1-1 .9-.2 4-.6 7-1s5.6-.8 5.9-1c1.6-1 2.9 1.7 3.5 7 .4 3.3.8 7.1 1 8.5.2 1.4.6 3.8.9 5.5.2 1.6 1 7.6 1.7 13.2.7 5.7 1.5 10.3 1.8 10.3.3-.1 6.6-7.9 13.9-17.5 7.3-9.6 13.6-17.5 14-17.5.5 0 1.7.8 2.8 1.7 1.1 1 4.6 3.8 7.9 6.3 3.3 2.5 9.8 7.5 14.5 11.1 11.4 8.7 11.4 8.7 10.7 5.8-.3-1.3-.9-4.7-1.2-7.5-.3-2.8-.7-6.1-1-7.3-.2-1.2-.7-5-1-8.4-.3-3.4-.8-6.9-1-7.7-.2-.8-.7-3.9-1-6.8-.4-3.9-.3-5.2.7-5.3.7 0 2.2-.2 3.3-.4 2.4-.5 9.6-1.5 15-2.1 2.2-.3 5-.7 6.1-.9 1.2-.2 4.8-.6 8-1 7.5-.9 10.6-1.3 10.9-1.7.2-.2-5.3-4.6-12.2-9.8-6.9-5.2-13-10-13.7-10.5-2.4-2.1-8.5-6.5-9-6.5-.3 0-.6 2.7-.6 5.9zM437.2 1027.3c-.6 1.2-2.8 5.1-4.8 8.7-13 23.3-28.2 56.6-39.5 86.7-5 13.6-14.6 42.7-15.5 47-.2 1.2-.9 3.5-1.5 4.9-1 2.8 0 4.3 2.9 4.4.7 0 9.4 2.2 19.5 5 37.1 10.1 48.2 13.1 49.7 13.5.8.2 18.6 4.9 39.5 10.5s42.3 11.3 47.5 12.7c5.2 1.3 13.6 3.6 18.5 5 5 1.4 9.7 2.6 10.5 2.8.8.2 13.4 3.5 28 7.5 14.6 3.9 27.3 7.3 28.3 7.5 1 .2 2.7.7 3.6 1 1.5.5 2.3-1 5-9.7 7.5-23.8 17.5-48.2 28.5-69l5.6-10.7-6.7-3.9c-12.6-7.4-95.4-55.1-100.3-57.9-5.2-3-67-38.7-78-45.1-5.2-3.1-11.5-6.7-14-8-2.4-1.3-5.7-3.2-7.1-4.3-1.5-1-3-1.9-3.3-1.9-.3 0-3.6-1.9-7.3-4.1-3.8-2.3-7.1-4.3-7.4-4.5-.3-.2-1.1.7-1.7 1.9zM97.8 1051.3c-6.4 8.3-11.6 15.2-11.5 15.3.1.1 3.4.4 7.2.7 7.3.5 14.1 2.7 18.8 5.9 2.2 1.6 2.7 1.7 2.7.4 0-1.4-1.4-12.7-2.6-20.6-.3-1.9-.7-5.5-1-8-.7-6.6-1-7.9-1.5-8.4-.2-.3-5.7 6.3-12.1 14.7zM1937.9 1036.2c-.3 1.6-.9 5.7-1.9 13.8-.7 5.2-1.3 10.2-1.5 11-.1.8-.6 4.4-1 7.9l-.7 6.3-5.7-.7c-3.1-.3-11.9-1.5-19.5-2.6s-14-1.8-14.2-1.7c-.3.4 22.7 30.2 23.6 30.6.4.2 1.1-1.4 1.5-3.5 1.9-10.2 11-21 22-26.3 5.2-2.5 7.9-3.1 14-3.3 4.1-.1 7.5-.3 7.5-.5 0-.7-23.9-31.6-24.1-31zM54.4 1047.5c.4 2.8.9 6.3 1.1 8 .2 1.6.7 5.2 1.1 8 .3 2.7.8 5.9.9 7 .2 1.1.6 4.1.9 6.7.4 2.6.3 4.9-.1 5.1-.8.5-8.1 1.5-15.8 2.3-2.2.2-5.3.6-7 .9-1.6.2-5.5.7-8.5 1.1-3 .3-5.8.8-6.3 1.1-.4.2 6.1 5.7 14.5 12.2l15.3 11.8.6-6.8c1.2-12.3 4.9-20 13.2-27.5 5.4-4.9 14.3-9.4 18.3-9.4 1.3 0 2.4-.3 2.4-.8 0-.4-3.9-3.6-8.6-7.2-4.8-3.6-9.2-7-9.8-7.5-.6-.6-3.2-2.5-5.6-4.4-2.5-1.9-5.1-3.9-5.9-4.5-1.1-.8-1.2-.2-.7 3.9zM1991 1045.1c-1.4 1.1-3.2 2.6-4 3.2-.8.7-6.2 4.8-12 9.2-5.8 4.4-10.8 8.4-11.2 9-.4.6 1 1.5 3.5 2.1 6.2 1.6 12.3 5 17.3 9.6 2.6 2.4 4.4 3.5 4.5 2.7.1-1.5.3-3.1 1.9-13.9.5-3.6 1.2-9 1.5-12 .4-3 .9-7 1.1-8.8.6-3.7.6-3.7-2.6-1.1zM148.7 1070.6c-.1.1-2.7.5-5.7.8-3 .3-6.4.8-7.5 1-1.1.2-4.7.6-8 1s-7.3.9-8.8 1.2l-2.8.6 4 4.3c21.7 23.6 8.8 61.5-22.8 66.6-17.5 2.8-34.5-6.2-42-22.2-1.7-3.5-3.1-7.2-3.1-8.1 0-4-2.2-2-12.1 10.9-14.6 19.1-13.7 17.6-10.3 17 1.6-.4 5.2-.9 7.9-1.2 2.8-.3 7.7-1 11-1.5s8.8-1.2 12.1-1.6l6.1-.6.8 6.9c.4 3.7.9 7.7 1.1 8.8.2 1.1.5 3.8.8 6 .2 2.2.8 6.8 1.2 10.3.4 3.4 1 6.4 1.3 6.6.3.2 5.8-6.5 12.1-15 10.6-14.1 13.3-16.8 14.2-14.6.2.5 3.9 3.5 8.3 6.8 4.4 3.2 8.2 6.1 8.5 6.4.3.3 2.5 2.1 5 4s4.7 3.8 4.8 4.2c.2.5.8.6 1.3.2.5-.3.9 0 .9.7s.2 1 .5.7c.3-.3-.1-5.4-1-11.4-1.7-12.1-2.2-15.5-3-23.2-.5-4.9-.4-5.2 1.7-5.3 1.3-.1 3.2-.3 4.3-.4 1.1-.2 3.6-.6 5.5-.9 1.9-.2 8-1 13.5-1.7 5.5-.6 10.8-1.4 11.7-1.8 1.4-.5-1.9-3.4-13.3-12.1-8.2-6.2-15.2-11.7-15.5-12.2-.3-.4 1.9-3.8 4.8-7.5 3-3.8 8.4-10.7 12.2-15.6l6.7-8.7-3.1.2c-1.7.1-3.2.3-3.3.4z"/><path d="M83.3 1077c-7.9 1.8-16.9 9.5-20.5 17.8-2.7 6.1-3.1 15.5-.8 22 10 28.4 50.8 27 58.4-2.1 3.7-14.3-2.7-28.5-15.8-35.1-5.9-3-14.6-4-21.3-2.6zM1951.3 1077.1c-9.1 1.7-17.1 7.7-21.3 15.8-2.9 5.7-3.4 8.3-3.2 15.8.2 7.7 3.1 14.2 8.9 20.1 6.1 6.1 12.1 8.5 21.3 8.5 12.4.1 22-5.8 27.6-17 2.5-4.8 2.9-6.8 2.8-13.2 0-6.2-.5-8.6-2.8-13.1-3.5-6.9-4.9-8.5-11.1-12.5-7.2-4.6-13.9-5.9-22.2-4.4zM1992.7 1089.8c2.6 5.2 3.6 8.6 4 14.3.3 4 .6 7.5.7 7.6.4.5 29.7-22.7 29.4-23.4-.3-.8-.8-.9-7.8-1.7-2.5-.3-9.7-1.2-16-2.1-6.3-.8-12-1.5-12.6-1.5-.6 0 .5 3.1 2.3 6.8z"/><path d="M1903.9 1112.1c-7.4 5.5-14.5 11.2-15.9 12.5l-2.5 2.4 4 .1c2.2 0 4.9.2 6 .4 1.8.4 7.3 1.1 14.5 2 1.4.2 5.3.7 8.8 1 3.7.5 6.2 1.2 6.2 1.9 0 1.2-2.7 22.8-3.5 27.6-.2 1.4-.7 4.5-1 6.9l-.6 4.3 2.8-2c7.4-5.3 27.8-21.4 28.1-22.1.1-.5-1.2-1.1-3.1-1.4-5.7-.9-12.7-4.8-18.2-10.2-8.1-7.9-12.4-17.8-12.1-28 0-3 .1-5.5 0-5.5s-6.1 4.5-13.5 10.1zM1994.6 1120.4c-5.9 16-20.8 26.5-37.9 26.6h-4.8l7.2 9.2c3.9 5.1 9.2 12.1 11.8 15.5 4.7 6.4 5.7 7.3 5.8 5 .1-2.4 1.5-14.2 1.8-14.7.2-.3.6-3.7 1-7.5.4-3.9 1-8.8 1.4-11 .8-5-.8-4.9 24.4-1.4 16.7 2.3 16.9 2.3 14.4-.3-.7-.7-3.5-4.2-6.2-7.8-2.7-3.6-5.2-6.7-5.5-7-.3-.3-2.8-3.5-5.5-7.3-2.7-3.7-5-6.7-5.1-6.7-.1 0-1.3 3.3-2.8 7.4zM372 1188.3c0 .1-1.8 7.9-3.9 17.2-3.5 14.9-7.9 37.8-9.5 48.5-1.7 12.1-4.3 33.2-5 41-1.5 15.9-3.1 48.2-2.7 55.7.1 1 27.4 1.3 129.6 1.2 71.2 0 129.5-.3 129.6-.7 0-.4.2-3.9.4-7.7.6-11.1 1.5-24.6 2-29 1-8.7 2.5-20.1 3-22.5.3-1.4.8-4.4 1.1-6.6.3-2.3 1.8-10 3.4-17 1.5-7.1 2.7-13 2.6-13.1 0 0-21.5-5.8-47.6-12.8-26.1-7-51.5-13.8-56.5-15.1-4.9-1.4-9.7-2.6-10.5-2.8-.8-.2-11.8-3.2-24.5-6.6-12.6-3.4-26.8-7.2-31.5-8.5-11.8-3.1-47.5-12.7-65.2-17.4-8.2-2.2-14.8-3.9-14.8-3.8zM73.2 1295.6c-.5 1-3.3 7.7-6.2 14.9-2.9 7.1-5.5 13.3-5.9 13.8-.7.7-12-3.5-28.1-10.6-1.4-.6-2.9-1.3-3.3-1.5-.4-.2-.1 1.3.8 3.5.9 2.1 2.6 6 3.7 8.8 1.1 2.7 3.3 8.1 5 11.8 2.8 6.6 2.9 6.9 1.1 8.2-1 .8-2.8 1.6-4.1 2-1.2.3-4.7 1.7-7.7 3-2.9 1.4-5.6 2.5-5.9 2.5-.3 0-3.1 1.1-6.3 2.6l-5.8 2.5 6 2.5c3.3 1.3 10.1 4.1 15 6.1 5 2 9.3 3.9 9.8 4.3.4.3 0 2.4-.9 4.6-2.9 7-4.6 10.9-5.5 12.6-.5 1-.9 2.2-.9 2.8 0 .8-3 8-4.7 11.3-.5.8 3.5-.7 20.1-7.7 6-2.6 11.3-4.3 11.7-3.9.3.5 3 6.6 5.9 13.8 7.6 18.9 6.8 18.1 10.2 9.4 1.6-4.1 3.5-8.8 4.3-10.4.7-1.7 2.1-5 3.1-7.5.9-2.5 2-4.9 2.4-5.3.6-.7 10.1 2.9 23.5 8.8 1.7.8 4.3 1.8 5.8 2.4l2.7 1.1-1.3-3.3c-.8-1.7-3.5-8.4-6.2-14.7-2.6-6.3-5.1-11.9-5.6-12.4-.4-.4-1.5.7-2.5 2.5-.9 1.8-3.5 5.2-5.8 7.4-16.3 16.2-44.6 11-54.5-10.1-8-16.9-.8-36.2 16.9-45.5 3.7-2 6-2.4 13.5-2.4 7.6 0 9.8.4 14.6 2.6 6.1 2.9 12.8 8.9 15.4 13.9.9 1.8 2 2.8 2.5 2.4.7-.8 9.1-20.3 12.1-28.1.7-2 .1-1.9-8.9 1.9-5.3 2.2-11.5 4.8-13.7 5.8-8.5 3.9-8 4.3-15-12.9-5.2-12.8-6.4-15.1-7.3-13.5zM1967.6 1309.2c-3.2 7.9-6.2 14.7-6.7 15.2-.4.5-7.3-1.9-15.4-5.3-8.1-3.3-15.1-6.1-15.5-6.1-.7 0 8.5 23.4 11.2 28.4.5 1 .6 2.2.1 2.6-.4.5-7.1 3.4-14.8 6.6-7.7 3.1-14.3 6-14.7 6.3-.4.4 6 3.5 14.3 6.9 8.4 3.5 15.3 6.1 15.5 5.9.2-.2-.1-1.9-.6-3.8-6-20.4 10.1-42 31.6-42.6 6.9-.1 12.4 1.1 18.3 4.2 3.8 1.9 10.9 9.2 13.1 13.4 1.6 3.2 1.9 3.4 2.6 1.6.4-1.1 2.4-6.1 4.5-11 2-5 4.7-11.4 5.8-14.2l2-5.1-15.2 6.4c-8.3 3.6-15.6 6.3-16.1 6.1-.6-.3-3.8-7-7.1-15.1-3.3-8-6.2-14.6-6.5-14.6-.3 0-3.2 6.4-6.4 14.2z"/><path d="M65.9 1332c-6.6 2-12.7 7.7-16.2 15.1-5.9 12.8 1.6 29.6 15.8 34.9 5.1 1.9 14 1.4 19.3-1.1 20.6-9.8 20.4-38.6-.4-47.9-4.8-2.1-13.4-2.6-18.5-1zM1963.5 1333.3c-10.7 5.2-15.9 13.7-15.6 25.4.3 12.6 10.9 23.7 23.6 24.7 24.5 1.8 38.4-27.8 20.8-44.5-5.4-5.2-9.8-7.1-17.3-7.6-5.4-.3-7.4 0-11.5 2zM106.4 1345.8c2.1 6.4 2.3 16.1.5 20.4-.6 1.6-.9 3.1-.7 3.4.3.3 2.5-.4 4.9-1.5 2.4-1.2 9.4-4.1 15.4-6.5l11-4.5-5-2.1c-2.7-1.2-9.5-4-15-6.2s-10.4-4.3-10.9-4.5c-.4-.3-.5.4-.2 1.5zM2006.5 1346.9c1.9 6.1 2.1 13.7.5 19-.5 1.9-.8 3.6-.6 3.8.3.3 11.4-4.1 24.1-9.5 6.6-2.9 6.8-3.1 4.5-4-1.4-.5-8-3.3-14.7-6.1-6.8-2.8-12.8-5.1-13.4-5.1-.6 0-.8.8-.4 1.9zM1438.3 1363.3c-.5.8-.9 6.3-1.8 22.2-.2 5.5-.7 11.1-.9 12.5-.3 1.4-.7 5.2-1 8.5-.6 5.7-1.1 9.4-2.2 16-.2 1.6-.7 4.8-1 7-.3 2.2-1.4 7.6-2.4 12-3.4 14.7-3.9 17.6-2.6 18 1.5.5 16.6 4.5 52.1 13.9 16 4.3 30.1 8.1 31.5 8.6 1.4.4 10.4 2.9 20 5.4 9.6 2.5 28.5 7.6 42 11.2 27.4 7.3 45.9 12.3 60 16 5.2 1.4 16 4.4 24 6.5 21 5.8 19.7 5.7 20.9 1.2 1.5-5.5 5.2-21.4 5.7-24.3.2-1.4.9-4.5 1.4-7 .5-2.5 1.2-6.1 1.5-8 .4-1.9 1-5.3 1.5-7.5s1.1-6 1.5-8.5c.3-2.5 1.2-8.6 2-13.5.8-5 1.7-12.2 2.1-16 .3-3.9.8-7.2.9-7.5.2-.3.6-4.8 1-10s.9-10.3 1-11.2c.2-1 .7-10.2 1-20.5.4-10.4.8-20.3.9-22.1.2-2.8-.1-3.2-2.3-3.3-15-.6-256.4-.2-256.8.4zM1941.1 1373.1c-.5 1.3-3.4 8.4-6.5 15.8-3.1 7.3-5 13.1-4.3 12.8.6-.2 7.6-3.1 15.4-6.3 13.3-5.5 14.1-6 12.6-7.6-.9-1-2.1-1.8-2.7-1.8-1.6 0-8.9-7.7-11.5-11.9l-2-3.5-1 2.5zM2003.2 1374.8c-2.4 4.3-8.9 10.7-12.7 12.4-1.4.6-2.5 1.4-2.5 1.7 0 .6 30.2 13.3 30.5 12.9.3-.4-11.9-29.5-12.6-30.2-.3-.3-1.5 1.1-2.7 3.2zM1961.1 1389.7c9.8 24.5 13.9 33.3 13.9 29.3 0-.5 1.1-3.4 2.5-6.4 1.4-3 2.5-5.8 2.5-6.1 0-.4.6-2.1 1.4-3.8 3.7-8.1 5.6-13 5.3-13.4-.2-.2-1.7.1-3.3.7-5.9 2-13 1.9-20.3-.5-1.3-.4-2.2-.3-2 .2zM1418.5 1481.7c-4.3 13.8-7.9 23.5-14.7 39.3-5.3 12.1-16.3 34.6-18.1 36.8-.7.9-.5 1.7.9 2.7 1 .8 2.3 1.5 2.7 1.5.5 0 2.1.8 3.5 1.9 1.5 1 4.7 2.9 7.2 4.3s10.1 5.8 17 9.8c6.9 4 14.5 8.4 17 9.8 2.5 1.4 24.3 14 48.5 28s46 26.6 48.5 28c2.5 1.4 15.2 8.7 28.4 16.4 13.1 7.6 24.1 13.8 24.4 13.8.3 0 1.3.6 2.1 1.4.9.7 4.8 3 8.6 5.1 3.9 2.1 8.8 4.9 10.9 6.3l3.9 2.4 1.8-2.3c2.9-3.8 24.1-46.2 30.2-60.4 11.4-26.4 19.5-48.5 27.6-75.3 4.6-15 4.6-14.8 2.9-14.9-.7-.1-3.8-.8-6.8-1.6-3-.9-8.9-2.5-13-3.6s-16-4.3-26.5-7.1c-10.4-2.8-22.4-6-26.5-7.1-4.1-1.2-14.2-3.9-22.5-6.1-25.5-6.7-28.5-7.5-46-12.3-9.3-2.5-21-5.7-26-7-4.9-1.3-13.5-3.5-19-5s-14.7-4-20.5-5.5c-22.8-6.1-30.7-8.2-35.4-9.6-2.7-.8-5.5-1.4-6.2-1.4-.7 0-2.8 5.1-4.9 11.7zM1051.9 1500.4c-.6.6-7.2 1.6-14.4 2.2-3.3.3-6.5.6-7 .8-.7.3-1 41.8-1 128.7v128.4l4-.1c11-.4 27.6-1.5 34.9-2.4 4.4-.5 9.7-1.1 11.6-1.4 10.7-1.3 41.1-7.5 42.3-8.6.7-.6-2-12.3-6.3-27-.6-1.9-4.2-15.2-8-29.5s-10.9-41.1-15.9-59.5c-4.9-18.4-9.9-36.9-11-41-1.1-4.1-3.2-12-4.7-17.5-1.4-5.5-3.9-14.7-5.5-20.5-1.5-5.8-3.4-13-4.3-16-.9-3.6-1.1-5.7-.4-6.1 1.3-.8.5-4.5-.9-4.2-1 .2-3.4-6.1-4.8-12.7-.2-.8-1.1-4.1-1.9-7.3-.9-3.2-1.6-6-1.6-6.2 0-.6-4.5-.7-5.1-.1zM1066.7 1521.6c-1.1 1.2 1.3 4.4 3.4 4.4 1.5 0 2-.5 1.7-2.3-.3-2.1-3.6-3.6-5.1-2.1zM107.3 1549.2c-.1 2.3-1.4 13.2-1.8 15.3-.3 1.1-.7 4-.9 6.4-.3 2.4-.7 4.5-.9 4.8-.3.2-5.8-.3-12.3-1.1-6.5-.9-12.6-1.6-13.6-1.6-1.4 0 .2 2.8 6.4 11 7.5 9.9 8.4 10.7 9.2 8.7 2.8-7.3 4-9.6 5.9-11.8 11.5-13.1 31.3-13.7 42.7-1.3 4.8 5.2 5.9 7.7 7.4 16.2l1.1 6.3 10.8-8.2c5.9-4.5 10.5-8.4 10.3-8.6-.2-.3-2.6-.6-5.3-.9-2.6-.3-8.6-1-13.3-1.7-9.9-1.4-9.3.1-6.9-16.5.8-6.2 1.3-11.5.9-11.7-.6-.4-10.1 6.6-19.3 14.1-2.3 1.9-3.4 1.8-4.7-.5-.5-1.1-1.6-2.5-2.2-3.3-.7-.7-3.9-4.8-7.2-9.1-3.2-4.2-5.9-7.7-6-7.7-.2 0-.3.6-.3 1.2zM1931.5 1559.5c-4.3 5.8-8.3 10.5-8.7 10.5-.4 0-5.6-3.6-11.4-8-5.9-4.5-10.8-8-10.9-7.8-.1.2.3 4.6 1.1 9.8.7 5.2 1.5 11.1 1.7 13 .3 1.9.6 3.6.6 3.8.1.2 2.1-1.3 4.4-3.2 12.7-10.4 31.5-8.3 40.9 4.5 2.1 2.8 4.3 7 4.9 9.2.9 3.4 1.3 3.9 2.2 2.6 8.3-10.7 13.5-17.6 14.6-19.2 1.5-1.9 1.3-1.9-4.1-1.3-3.1.4-6.5.8-7.6 1.1-1.2.2-5 .7-8.5 1-7.6.8-6.9 2-8.8-15.3-.7-6.1-1.5-11.2-1.8-11.2-.3 0-4.2 4.8-8.6 10.5zM1373 1579.2c-6.1 9.7-20.1 29.3-24.7 34.8-1.1 1.4-4.9 5.9-8.3 10-3.4 4.1-9.1 10.6-12.6 14.3-3.5 3.8-6.4 7.1-6.4 7.5 0 .4 41.2 41.9 91.5 92.2l91.4 91.4 7.8-8.1c4.3-4.5 9.1-9.6 10.7-11.5 1.6-1.8 4.8-5.3 7-7.8 22.8-25.4 50.3-62.7 69.6-94.3l5.4-8.9-2.5-1.9c-1.3-1-2.7-1.9-3.1-1.9-.6 0-13.2-7-17.8-10-.8-.5-4.2-2.4-7.5-4.3-10.5-6-12.4-7.1-44-25.4-17-9.9-46.5-26.9-65.5-37.7-19-10.9-35.7-20.7-37.2-21.7-1.5-1.1-2.9-1.9-3.2-1.9-.2 0-9.8-5.5-21.3-12.1-11.4-6.7-21.2-12.3-21.8-12.5-.5-.2-3.9 4.2-7.5 9.8z"/><path d="M112.8 1578.9c-14.4 6.6-17.7 24.1-6.8 35.2 13.9 13.9 37.1 4.5 37.1-15.1.1-8.1-4.4-15.6-11.4-19.2-5.5-2.8-14-3.2-18.9-.9zM1917 1579.7c-19.7 9.8-13.8 39.5 8.2 41.1 17.1 1.3 28.6-16.9 20.6-32.3-5.2-9.8-18.5-13.9-28.8-8.8zM1898.9 1582.4c-.2.2-3.1.7-6.4 1-3.3.4-8.5 1-11.5 1.4l-5.5.7 10.7 8.2c5.9 4.6 10.9 8.3 11.1 8.3.3 0 .7-2.2.9-5 .3-2.7 1.6-7.2 3-10l2.5-5h-2.2c-1.2 0-2.4.2-2.6.4z"/><path d="M81.2 1604.2c-5.7 4.4-10.2 8.2-10 8.3.2.2 2.8.6 5.8 1s6.4.9 7.5 1c1.1.2 4.5.6 7.5 1 3 .3 5.7.8 5.9 1.1.2.2-.3 6.3-1.2 13.6-.9 7.3-1.5 13.4-1.2 13.6.2.2 5.1-3.3 11-7.8 8.7-6.8 10.8-8 12-7 .8.7 4.9 5.7 9 11.3 4.1 5.5 7.5 9.6 7.6 9.1 0-.5.2-1.8.4-2.9.2-1.1.7-4.7 1-8 .4-3.3 1-7.6 1.4-9.5 1.4-6.8 1.3-6.9-5.6-3.8-6.8 3-15.4 2.8-22.4-.4-10-4.7-15.7-12.5-16.6-23-.3-3.2-.9-5.8-1.2-5.8-.3.1-5.2 3.7-10.9 8.2zM1955 1600.4v5.1c.1 1.9-5.7 11.1-9 14.4-15.2 15-42.6 6.6-46.9-14.3-.6-2.8-.9-2.6-8.6 7.4-10.3 13.3-10.2 13.2-7.3 12.6 2.3-.5 5-.9 14.3-2.1 2.8-.3 6.4-.8 8.2-1.1 3.4-.5 3.5-.2 4.7 8.6.2 1.9.7 6 1.1 9 .9 6.5 1.3 9.2 1.7 9.6.2.1 3.9-4.5 8.2-10.2 4.4-5.8 8.3-10.7 8.7-10.9.7-.5 4.7 2.3 16.7 11.8l6.3 5-.6-4.9c-.3-2.7-1.1-9.1-1.9-14.2-.9-6.6-.9-9.5-.2-9.7.6-.2 3.6-.6 6.6-1 23.1-2.5 22.3-1.6 10.4-10.6-13.4-10.1-12.4-9.8-12.4-4.5zM149.4 1604.7c-2 6.2-3.1 8.3-6.5 12.4l-3.8 4.6 12.2 1.7c6.7.9 13.1 1.6 14.1 1.6 1.9 0 1.9-.1-.1-2.3-1.1-1.2-5-6.2-8.7-11-5.2-7-6.7-8.5-7.2-7zM1309 1657.1c-1.9 1.7-6 5.4-9 8.2-3.1 2.9-8.9 7.9-13 11.1-4.1 3.3-7.7 6.3-8 6.6-1.4 1.7-23.8 17.5-32.5 23-5.5 3.4-10.2 6.4-10.4 6.6-.4.4 6.7 13.3 8.5 15.4.7.8 1.3 1.9 1.4 2.5.1.5 1.9 3.9 4 7.5 13.3 22.7 24 41.2 24 41.5 0 .2 2.1 3.9 4.6 8.2 4.4 7.3 21.4 36.8 25.6 44.1 1 1.8 2.5 4.3 3.2 5.5.8 1.2 2.7 4.5 4.3 7.3 1.5 2.8 14.3 24.9 28.2 49.1l25.5 44.1 10.5-6.5c15.5-9.5 32.8-21.3 47.6-32.2 12.3-9 14-10.4 18.5-14.1 1-.8 3.5-2.9 5.6-4.5 4.5-3.6 17.4-14.4 19-15.9.6-.6 4.2-3.9 8-7.2 3.8-3.4 10.3-9.4 14.4-13.2l7.4-7.1-91.5-91.5c-50.4-50.4-91.8-91.6-92-91.6-.2 0-2 1.4-3.9 3.1zM1210.5 1726.3c-20.8 10.8-43.5 20.1-64.3 26.3l-9.4 2.9.5 3c.2 1.6 1.6 7.3 3.1 12.5s2.9 10.3 3.1 11.2c.2 1 3.1 12 6.5 24.5 3.4 12.6 6.3 23.5 6.5 24.3.2.8 4.5 16.8 9.5 35.5 21.4 79.3 30.2 112.1 30.5 113.5.1.8.9 3.5 1.6 6 .7 2.5 1.3 4.7 1.4 5 1.1 5.7 4.1 15 4.8 15 1.6 0 23.3-6.7 37.2-11.4 35.5-12.1 68-26.3 103.4-45.3 11.5-6.1 11.5-6.1 9.8-8.7-.8-1.2-2.8-4.6-4.4-7.6-1.7-3-5.8-10.1-9.2-15.8-3.4-5.7-6.1-10.5-6.1-10.7 0-.2-2.2-4-5-8.4-2.7-4.5-4.9-8.4-5-8.6 0-.3-.6-1.5-1.4-2.8-1.7-2.8-11.7-20-14.6-25.2-1.2-2.2-5.3-9.2-9-15.5-3.7-6.3-11.2-19.4-16.8-29-11.8-20.7-12.3-21.5-23-40.1-4.6-7.9-8.7-15.1-9.2-15.9-1.4-2.2-17.8-30.7-21.1-36.5-1.5-2.8-3.3-5.1-4.1-5.2-.7-.1-7.6 3.1-15.3 7zM1124.9 1758.4c-.5.5-22.2 5.4-27.4 6.1-2.2.3-7.8 1.2-12.5 2-7.7 1.3-15.4 2.2-25 3-1.9.2-9.3.7-16.5 1-7.1.4-13.2.9-13.5 1.2-.3.2-.6 16.3-.6 35.6-.1 19.4-.2 35.4-.3 35.5 0 .2-1.5-.8-3.1-2.2-1.7-1.4-3.9-2.3-5-2.1-2.3.5-2.2 3.7-2.2-38.8V1771l-5.6-.1c-6.4-.1-8.3-.2-23.2-1.4-15.3-1.1-21.3-1.8-30.5-3.5-2.7-.6-6.6-1.2-8.5-1.4-1.9-.3-8-1.4-13.5-2.7-17.1-3.7-15.1-4.1-17.3 3.7-2.5 8.8-11.2 41.3-11.7 43.9-.3 1.1-2 7.8-4 14.9-1.9 7-3.5 13-3.5 13.3 0 .3-.6.3-1.3 0-3.4-1.3-4.8 2.3-2.9 6.9 1.5 3.5 1.8 2.1-11.3 50.4-3.6 13.5-6.8 25.2-7 26-.2.8-1 4.2-1.9 7.5-.9 3.3-3.2 11.8-5.1 19-1.9 7.1-5.3 19.7-7.5 28-7.7 28.5-8.8 33-8.1 33.6.6.7 33.7 8.3 40.1 9.3 1.9.3 4.6.8 6 1.1 4.2.8 27.5 4.6 32 5.1 1.3.1 4.5.5 7 .8 5.2.7 9.8 1.2 19 2.1 3.6.3 8.1.8 10 1 5.1.6 28 1.7 39 1.9l9.5.1.2-83.5c.2-103.5 0-93.3 1.6-92.7 2 .8 7.7-2 7.7-3.8 0-.8.3-1.5.8-1.5.4 0 .7 40.8.7 90.7v90.8l8-.1c8.8-.1 33.9-1.3 39.5-1.9 1.9-.2 6.9-.6 11-1 4.1-.3 8.6-.8 10-1 1.4-.2 5.4-.7 9-1 3.6-.4 7.2-.9 8.1-1 .9-.2 4-.6 7-1 3-.3 6.1-.8 6.9-1 .8-.2 3.5-.7 6-1 2.5-.3 5.2-.8 6-1 .8-.2 3.1-.7 5-1 1.9-.3 6.9-1.3 11-2.1 4.1-.9 8.4-1.8 9.5-2 5.9-1 25.1-5.8 25.8-6.4.4-.4-.4-4.9-1.8-10.1-1.5-5.2-2.8-10.1-3-10.9-.2-.8-.9-3.5-1.6-6-.7-2.5-1.3-5-1.5-5.5-.1-.6-1.2-4.6-2.4-9-1.1-4.4-2.3-8.7-2.5-9.5-.1-.8-1.2-4.9-2.4-9-2.4-8.7-6.5-24-19.6-73-8.6-32.1-22.9-85.5-29-108.4-2.5-9-2.8-9.9-3.6-9.2zM231.7 1784.7c-6.6 8.6-7.7 10.6-5.3 9.7.9-.3 3.8-.1 6.5.6 6.4 1.5 12.8 7 15.6 13.4l2.2 4.9 6.1-8.1c3.4-4.4 6.2-8.4 6.2-8.7 0-.6-7.6 0-13 1.1-1.4.2-3.4.6-4.6.8-3.2.6-4.2-.6-4.9-5.9-.3-2.8-.7-5.9-1-7-.2-1.1-.4-3.5-.4-5.3-.1-1.7-.4-3.2-.8-3.2-.5 0-3.4 3.5-6.6 7.7zM1809.6 1778.1c-.3.8-.7 3.4-1 5.9-.2 2.5-.8 6.9-1.2 9.8l-.7 5.3 3.7-2.2c5.1-3 14.5-3 20.3-.1 5 2.6 10.8 9.4 11.9 14.2 1.7 7.3-.2 16.2-4.4 20.5-5.7 5.9-8.1 7.2-15.7 8.2-2.2.3-4.1.6-4.2.7-.1.1 2.8 4.1 6.5 8.9l6.7 8.8.6-3.8c.4-2.1 1-6.6 1.3-10 .8-7.9 1.4-9.5 3.5-8.9 1.7.5 5.4 1.1 14.5 2.2l5.8.7-6.6-8.6c-3.6-4.7-6.6-9-6.6-9.4 0-.5 3.8-3.7 8.5-7.2s8.4-6.5 8.2-6.7c-.2-.2-3.9-.8-8.3-1.4-14.3-1.9-13.7-1.6-13-6.4.3-2.2.8-6.4 1.1-9.1.4-2.8.9-5.8 1.1-6.8.3-.9.3-1.7 0-1.7-.2 0-4.4 3-9.2 6.7l-8.8 6.6-2.5-3.3c-9.8-12.8-11.1-14.2-11.5-12.9zM206.5 1783.2c.2 1.3.7 3.9.9 5.8 1.9 13.6 1.9 14 .5 14.1-.8 0-2.3.2-3.4.4-1.1.3-4.7.7-8 1.1-10.5 1.2-10.5 1.3-1 8.3 4.7 3.4 8.5 6.6 8.5 7.1 0 .4-2.9 4.5-6.4 9.1-3.6 4.6-6.3 8.5-6.2 8.6.1.2 4.9-.3 10.7-1.1 6.8-.9 10.6-1 11-.3.7.9 1.2 4.6 2.5 15.2.5 4.8 1 6.3 1.7 5.4 3.3-4 12.7-16.9 12.5-17-.2 0-2.2-.2-4.6-.4-19.4-1.8-27.4-25.4-13.2-39.2 2.9-2.9 4.9-3.9 10.4-5.7 1.5-.5.2-1.9-6.7-7.1-4.8-3.6-8.9-6.5-9.2-6.5-.3 0-.3 1 0 2.2zM1269.5 1784c-.8 1.3 1.3 5 2.9 5 2.2 0 2.6-2.7.7-4.4-2-1.9-2.7-2-3.6-.6zM1790.5 1804.5c3.6 4.7 6.5 8.9 6.5 9.4 0 .6-1.7 2.3-3.7 3.8-2.1 1.5-4 3-4.3 3.3-.3.3-2.4 2-4.8 3.7-4.9 3.6-4.7 3.8 5.3 4.8 3.3.3 6.9.8 8 1 1.1.2 2.6.4 3.4.4 1 .1 1.2 1.4.7 6.3-.9 8.1-1.6 13-2.1 14.5-.6 1.7 1.3 1.6 3-.1.8-.8 4.4-3.6 8-6.2 3.6-2.6 6.5-5.1 6.5-5.6 0-.4-1.1-.8-2.3-.8-3.3 0-10.1-5.1-13.3-9.9-4.9-7.5-4.5-18.2 1.1-25.5l3.4-4.5-2.7-.5c-2.6-.6-7.8-1.3-15.5-2.1l-3.7-.4 6.5 8.4z"/><path d="M221.5 1800.5c-4.9 1.7-10.2 7.6-11.1 12.2-2.8 14.8 11 26 24.4 19.8 10.9-5.1 13.5-19.4 5-27.7-5.2-5-11.6-6.5-18.3-4.3zM1815.8 1800.4c-7.1 2.1-12.8 9.7-12.8 16.9 0 8.3 8 16.7 16.2 17.2 11.3.7 19.6-7.9 18.5-19.2-1.1-11-11.5-18-21.9-14.9z"/><path d="M250 1818.3c0 2.7-.9 6.1-2.3 8.8-2.6 4.9-9.5 10.7-13.8 11.6-2.5.5-4.2 2.3-2.1 2.3.4 0 4.1 2.7 8.2 6 6.8 5.4 9.9 7.3 8.7 5.2-.7-1-1.9-11.7-2.1-17.1-.1-4.9-.7-4.6 10.4-5.7 11.9-1.3 11.9-1.1 1.9-8.7l-8.9-6.8v4.4zM380.4 1971.5c-.7 1.9-2.1 5.1-2.9 7.1-.8 2-1.5 3.8-1.5 4 0 .1 1.2-.1 2.8-.5 4.1-1.2 11.9 1.1 15.4 4.6 3.9 3.9 5.7 9.4 4.8 14.4-.7 3.5-.5 3.9.9 3.4 8.5-3.1 13.1-5.1 13.1-5.6 0-.3-3.1-1.9-7-3.4-3.8-1.5-7-3.3-7-4 0-.6 1.1-4 2.6-7.4 1.4-3.5 2.3-6.5 2.1-6.8-.3-.2-3.2.7-6.6 2.1-3.3 1.4-6.7 2.6-7.4 2.6-.8 0-2.6-3.1-4.1-7-1.5-3.9-3-7-3.2-7-.3 0-1.2 1.6-2 3.5zM1662.4 1975.3l-3.1 7.2h6.4c3.4 0 6.3-.1 6.3-.2 0-.6-5.4-12.9-6-13.6-.3-.4-2 2.6-3.6 6.6zM360.2 1977.7c2.9 6.1 5.8 13.2 5.8 14.2 0 .4-3.4 2-7.5 3.6-4.2 1.6-7.2 3.2-6.8 3.5.5.4 3.8 2 7.6 3.5 3.7 1.5 6.7 3.1 6.7 3.4 0 .4-1.3 3.8-2.9 7.6-1.6 3.8-2.9 7.1-2.7 7.2.1.2 3.5-1.1 7.5-2.8 4-1.7 7.6-2.7 8-2.2.4.4 1.8 3.5 3 6.8 1.3 3.3 2.7 6.4 3.1 6.8.5.6 6-11.5 6-13.4 0-.2-2.1-.4-4.7-.3-15.9.6-23.8-17.1-12.9-28.9 1.4-1.5 3-2.7 3.6-2.7 2.9 0 .3-1.9-5.9-4.3-7.3-2.9-8.4-3.1-7.9-2zM1644 1977.7c0 .4 1.2 3.7 2.7 7.3l2.7 6.6 4.3-4.3c4.5-4.5 5-5.3 3.2-5.3-1.1 0-6.7-2.3-10.1-4.1-2.1-1.1-2.8-1.1-2.8-.2zM1684.5 1978c-1.1.4-4.2 1.7-6.8 2.9l-4.8 2.1 3.6 3.2c4 3.4 5.5 6.3 6.2 11.9.6 4.7-2.7 11.7-6.9 14.6l-3.1 2.2 5.5 2.4c3.1 1.4 6.6 2.8 7.7 3.2 2.2.7 2.2.6.6-3.2-2.4-5.5-4.6-11.6-4.3-11.9.2-.1 3.6-1.6 7.7-3.2 8.3-3.3 8.4-3-2.1-7.2-5.4-2.1-5.7-2.4-5.2-4.9.4-1.4 1.3-3.8 2.1-5.3 3.7-7.4 3.6-8.4-.2-6.8z"/><path d="M378.6 1986.5c-5 1.8-7.4 4.1-8.6 8.5-3.6 13.3 11.6 22.2 21.7 12.8 2.2-2 4-7.7 3.5-10.8-1.4-8.2-9-13.1-16.6-10.5zM1660.3 1987.1c-2.7 1-6.2 5.2-7.2 8.5-1.1 4.1 1.2 11.4 4.5 13.8 5.7 4.1 14.7 2.8 18.6-2.6 2.8-3.9 3-11.4.4-15.3-3-4.5-10.5-6.6-16.3-4.4zM1641.3 1995.8c-3.5 1.5-6.3 3-6.3 3.3 0 .6 12.8 5.9 14.2 5.9.3 0 .3-1.2-.1-2.8-.4-1.5-.4-4.2 0-6 .8-3.9.4-3.9-7.8-.4zM396.5 2008.3c-.9 1.4-3 3.5-4.7 4.5l-2.9 1.9 7.7 3.1c4.3 1.8 7.8 3.1 7.9 2.9.1-.1-1.3-3.5-3-7.6l-3.3-7.4-1.7 2.6zM1646.6 2013.3c-1.5 3.7-2.6 7-2.4 7.3.4.3 11.8-4.1 13.6-5.2.2-.1-1.6-2.2-4-4.6l-4.4-4.4-2.8 6.9zM1662.4 2022.8c1.6 3.9 3.3 6.9 3.7 6.5.5-.6 5.9-13.1 5.9-13.7 0-.1-2.8-.1-6.3-.1h-6.4l3.1 7.3z"/></svg>