<svg xmlns="http://www.w3.org/2000/svg" xml:space="preserve" style="fill-rule:evenodd;clip-rule:evenodd;stroke-linejoin:round;stroke-miterlimit:2" viewBox="0 0 2048 2048"><text x="290.957" y="1592.76" style="font-family:&quot;AvenirNext-Bold&quot;,&quot;Avenir Next&quot;,sans-serif;font-weight:700;font-size:84.699px;fill:#00529b" transform="matrix(.7084 0 0 .8855 324.344 232.933)">МЕЖДУНАРОДНЫЙ АЛЬЯНС ЗА</text><text x="225.967" y="1775.42" style="font-family:&quot;AvenirNext-Bold&quot;,&quot;Avenir Next&quot;,sans-serif;font-weight:700;font-size:192.273px;fill:#00529b" transform="matrix(.7084 0 0 .8855 315.253 232.933)">ЕСТЕСТВЕННОЕ</text><text x="584.676" y="1958.08" style="font-family:&quot;AvenirNext-Bold&quot;,&quot;Avenir Next&quot;,sans-serif;font-weight:700;font-size:192.273px;fill:#00529b" transform="matrix(.7084 0 0 .8855 365.429 232.933)">ВРЕМЯ</text><path d="M1100.91 1326.66c-23.35 5.94-47.75 9.23-72.85 9.56v195.76c42.63-.34 84.03-5.93 123.53-16.17zm-153.82.05-50.67 189.1c39.544 10.24 80.918 15.83 123.54 16.17v-195.76c-25.114-.31-49.514-3.6-72.87-9.51m229.5-30.34a310.2 310.2 0 0 1-67.85 28.19l50.68 189.15a504.5 504.5 0 0 0 115.07-47.75zm-305.208.08-97.863 169.51c35.86 20.38 74.445 36.53 115.076 47.75l50.67-189.1a310.3 310.3 0 0 1-67.883-28.16m370.428-48.92a313.5 313.5 0 0 1-58.22 44.78l97.91 169.59a510.7 510.7 0 0 0 98.77-75.91zm-435.697.09-138.367 138.37a510.8 510.8 0 0 0 98.763 75.91l97.863-169.51a314 314 0 0 1-58.259-44.77m486.147-64.07a313.2 313.2 0 0 1-44.73 58.25l138.46 138.46a510.2 510.2 0 0 0 75.91-98.76zm-536.649.08-169.503 97.87c21.229 36 46.769 69.15 75.911 98.76l138.366-138.37a313.4 313.4 0 0 1-44.774-58.26m243.793-52.17-50.243 187.52c22.703 5.74 46.407 8.93 70.799 9.24v-194.07c-7.04-.25-13.92-1.17-20.556-2.69m49.206 0c-6.64 1.52-13.52 2.44-20.55 2.69v194.07c24.39-.33 48.1-3.53 70.78-9.29zm-76.175-10.04-97.052 168.1a301.8 301.8 0 0 0 65.953 27.36l50.244-187.51a109.3 109.3 0 0 1-19.145-7.95m103.145 0a108.5 108.5 0 0 1-19.15 7.95l50.23 187.46c23.22-6.55 45.31-15.8 65.93-27.39zm-126.584-16.68-137.227 137.22a306 306 0 0 0 56.603 43.51l97.053-168.1c-5.871-3.7-11.37-7.93-16.429-12.63m150.024 0c-5.06 4.7-10.56 8.93-16.43 12.63l97 168.01a305.6 305.6 0 0 0 56.56-43.51zm225.43 3.95a310.6 310.6 0 0 1-28.13 67.85l169.64 97.95a504.4 504.4 0 0 0 47.76-115.08zm-601.057.05-189.102 50.67c11.222 40.63 27.37 79.21 47.758 115.08l169.504-97.87a310 310 0 0 1-28.16-67.88m207.247-26.16-168.1 97.05a305.7 305.7 0 0 0 43.502 56.61l137.227-137.23a111 111 0 0 1-12.629-16.43m186.73 0c-3.69 5.87-7.92 11.37-12.63 16.43l137.14 137.13a305.5 305.5 0 0 0 43.45-56.59zm-198.734-26.15-187.513 50.24a302.4 302.4 0 0 0 27.359 65.95l168.1-97.05a109.6 109.6 0 0 1-7.946-19.14m210.744 0c-2.06 6.67-4.73 13.08-7.95 19.14l167.96 96.97a302.6 302.6 0 0 0 27.33-65.92zm402.6-28.38h-195.94c-.31 25.09-3.59 49.48-9.5 72.82l189.28 50.72c10.24-39.55 15.83-80.92 16.16-123.54m-820.196 0H516.029c.332 42.64 5.929 84.03 16.168 123.54l189.103-50.67c-5.922-23.37-9.204-47.77-9.516-72.87m338.266-102.922a102 102 0 0 0-26.04-3.354c-9 0-17.73 1.165-26.05 3.354l-.46.142q-.187.05-.375.081a101.7 101.7 0 0 0-24.116 10.05l-.208.121a102.83 102.83 0 0 0-37.27 37.267l-.127.22a101.6 101.6 0 0 0-10.046 24.109l-.108.472a4 4 0 0 1-.116.365A102.2 102.2 0 0 0 921.78 1024c0 9 1.165 17.73 3.354 26.05l.142.46c.034.12.061.25.082.37a101.7 101.7 0 0 0 10.046 24.11l.127.22a102.85 102.85 0 0 0 37.27 37.27l.208.12a101.7 101.7 0 0 0 24.116 10.05l.472.11c.124.03.245.07.363.11a102.2 102.2 0 0 0 26.05 3.36c9 0 17.73-1.17 26.04-3.36l.46-.14c.13-.03.25-.06.38-.08a101.7 101.7 0 0 0 24.11-10.05l.21-.12a102.77 102.77 0 0 0 37.27-37.27l.13-.22c4.32-7.49 7.72-15.58 10.04-24.11l.11-.47c.04-.12.08-.25.12-.36 2.19-8.32 3.35-17.05 3.35-26.05s-1.16-17.73-3.35-26.045l-.14-.461c-.04-.126-.06-.251-.09-.376a101.5 101.5 0 0 0-10.04-24.109l-.13-.22a102.74 102.74 0 0 0-37.27-37.267l-.21-.121a101.6 101.6 0 0 0-24.11-10.05l-.47-.107a4 4 0 0 1-.37-.116M913.854 1028.05H719.785c.313 24.39 3.503 48.1 9.245 70.8l187.511-50.25a110 110 0 0 1-2.687-20.55m414.186 0h-193.88c-.26 7.04-1.17 13.91-2.69 20.55l187.34 50.2c5.74-22.69 8.92-46.37 9.23-70.75m-598.966-78.884c-5.757 22.691-8.961 46.393-9.287 70.784h194.067c.255-7.04 1.171-13.91 2.687-20.552zm-196.877-52.753c-10.243 39.544-15.835 80.918-16.168 123.537h195.757c.327-25.112 3.625-49.513 9.559-72.855zm983.623 0-189.33 50.729c5.93 23.341 9.22 47.72 9.55 72.808h195.94c-.33-42.638-5.92-84.033-16.16-123.537m-197.06 52.8-187.29 50.185a110.3 110.3 0 0 1 2.69 20.552h193.88c-.33-24.378-3.52-48.068-9.28-70.737m-560.199-73.791a302.3 302.3 0 0 0-27.389 65.92l187.464 50.231a109.5 109.5 0 0 1 7.946-19.145zm530.749.081-167.88 96.925a110 110 0 0 1 7.95 19.145l187.29-50.184a302 302 0 0 0-27.36-65.886m-483.176-63.648a305.7 305.7 0 0 0-43.511 56.559l168.017 97.005a111 111 0 0 1 12.629-16.429zm435.646.095-137.04 137.04a110 110 0 0 1 12.63 16.429l167.88-96.925a305.3 305.3 0 0 0-43.47-56.544m-373.327-49.277a305.7 305.7 0 0 0-56.589 43.457l137.132 137.132a110.7 110.7 0 0 1 16.429-12.628zm311.057.083-96.92 167.878a111 111 0 0 1 16.43 12.628l137.04-137.04a305.7 305.7 0 0 0-56.55-43.466m286.45 10.757-169.72 97.99a310.8 310.8 0 0 1 28.16 67.815l189.32-50.73a504.6 504.6 0 0 0-47.76-115.075m-883.911 0a504.8 504.8 0 0 0-47.758 115.075l189.151 50.683a310 310 0 0 1 28.19-67.85zm359.333-42.223a302.5 302.5 0 0 0-65.918 27.327l96.971 167.958a109.5 109.5 0 0 1 19.145-7.946zm165.238.049-50.19 187.29a109.6 109.6 0 0 1 19.15 7.946l96.92-167.879a302.3 302.3 0 0 0-65.88-27.357m-86.66-11.373c-24.38.312-48.07 3.498-70.752 9.233l50.196 187.336a110 110 0 0 1 20.556-2.688zm8.1.002v193.879c7.04.255 13.91 1.172 20.55 2.688l50.18-187.292c-22.67-5.75-46.36-8.949-70.73-9.275m357.93-52.228-138.55 138.553a313.4 313.4 0 0 1 44.74 58.201l169.72-97.991a510 510 0 0 0-75.91-98.763m-723.971 0a510.5 510.5 0 0 0-75.911 98.763l169.586 97.91a313.7 313.7 0 0 1 44.784-58.214zm619.481-81.638-97.99 169.725a313.6 313.6 0 0 1 58.2 44.739l138.56-138.554a510.6 510.6 0 0 0-98.77-75.91m-514.991 0a510.7 510.7 0 0 0-98.763 75.91l138.462 138.462a313.6 313.6 0 0 1 58.244-44.73zm392.911-51.817-50.73 189.325a310 310 0 0 1 67.81 28.157l97.99-169.724a504.8 504.8 0 0 0-115.07-47.758m-270.825 0a504.8 504.8 0 0 0-115.076 47.758l97.945 169.645a310.1 310.1 0 0 1 67.847-28.127zm139.465-18.262v195.944c25.09.326 49.48 3.62 72.81 9.547l50.72-189.323c-39.54-10.242-80.92-15.835-123.53-16.168m-8.1 0c-42.642.332-84.037 5.929-123.54 16.168l50.717 189.278c23.326-5.91 47.719-9.192 72.823-9.504z" style="fill:#00529b"/><path d="M704 754.6c-.7-2.2-1.9-3.6-3.4-4-1.4-.3-2.8-1.7-3.4-3.4-.8-2.2-2-3.1-6.9-4.5-4.7-1.5-7.1-3-11.4-7.3-4.1-4.1-6-5.4-8.3-5.4-3.7 0-8.6-4.4-8.6-7.7 0-1.3-.7-2.6-1.5-2.9-1.7-.7-2.2-10.8-.6-11.8 3.3-2.1.7-14.6-2.9-14.6-1.2 0-2.1-1.2-2.7-3.7-.8-3.5-1.2-3.8-6.5-5.1-5.6-1.4-5.7-1.5-8.8-7.7-4.2-8.4-7-11-12.4-11.1-2.3-.1-5.6-.9-7.3-1.8-4.4-2.2-12.9-2.2-14.2.2-.8 1.5-2.4 1.7-11.7 1.4-7.5-.1-11.7-.7-13.8-1.8-1.7-.9-6.6-1.9-10.9-2.2-7-.4-7.9-.7-8.7-2.8-.6-1.6-1.8-2.4-4.2-2.6-3-.3-3.6-.9-7-7.8-2-4.1-4.4-7.6-5.3-7.8-1-.2-1.5-1.5-1.5-3.8 0-2.9-.5-3.7-3.5-5.1-3.5-1.7-6.7-7.4-4.5-8.1.6-.2 1.7-1 2.4-1.8.8-.8 1.9-1.4 2.5-1.4s1.1-.8 1.1-1.9c0-1 .7-2.4 1.5-3.1.9-.7 1.5-2.9 1.5-5.4 0-3.8.3-4.4 3.5-5.9 1.9-.9 3.5-2.1 3.5-2.7s1.6-1.8 3.5-2.6c2-.8 3.8-2 4.1-2.7.3-.8 4.1-3.1 8.5-5.2 5.3-2.6 7.8-4.4 7.4-5.3-.3-.9.1-1.2 1.4-.7 1 .3 2.4-.1 3.1-1 1.4-1.7 4.1-2 5.5-.6.6.6 3.8.4 8.5-.5 4.1-.9 8.5-1.8 9.7-2s3-1.8 4-3.4c1.6-2.8 2.1-3 8-3 5.2 0 6.4-.3 7.3-2 2.3-4.3 9-1 9 4.4 0 3.6 1.3 4.6 5.6 4.6 1.7 0 2.2.4 1.8 1.5-.5 1.3 1.5 1.5 14.6 1.5 14.6 0 15.1-.1 14.5-2-.4-1.1.1-3.2 1.2-5 1.6-2.7 2.2-3 6.9-3 5 0 5.3-.2 9.8-5.4 4.8-5.7 8-12.7 7.1-15.6-.3-1-1.4-2.5-2.5-3.5-1.7-1.5-2.4-1.6-5-.5-1.7.7-4.1 2.6-5.5 4.1-3 3.7-6.7 5.1-9.9 4-1.8-.8-2.4-1.9-3-5.7-.7-5.2.8-8.8 4.3-9.9 1-.3 2.1-1.4 2.4-2.4.3-1.4 1.8-2.1 5.8-2.6 3-.4 5.9-1.1 6.4-1.5.6-.4 2.3-1 3.8-1.4 2.3-.6 2.8-1.1 2.5-3.3-.3-3.1-2.6-4-9.9-4.2-2.8-.1-5.1-.7-5.9-1.6-2.1-2.6-3-1.7-3 3v4.5h-5c-4.5 0-6.7 1.3-3.9 2.2.5.2 1.3 2.3 1.6 4.7.5 3.5.2 4.7-1.2 5.7-1.3.9-1.6 2-1.1 3.9.6 2.5.5 2.6-2.6 2.3-3.6-.3-3.5-.9-2.2 9.5.5 3.8.3 4.7-.9 4.7-.8 0-1.8-.7-2.1-1.6-.3-.8-1-1.2-1.6-.9-2.1 1.3-4.9-.7-6.9-4.9-3.4-6.8-5.5-8.6-10.6-8.6-6.2 0-5.9 2.3.5 5.1 5.5 2.4 8.4 4.9 6.3 5.6-.7.3-1.3 1.6-1.3 3 0 1.8-.5 2.4-1.7 2.1-1-.2-1.8-1.2-1.8-2.3 0-1.3-1.1-2.3-3.5-3-1.9-.6-5.7-2.1-8.4-3.3-2.8-1.3-5.2-1.9-5.5-1.3-.3.5-2.7 1.2-5.3 1.6s-5.2 1.3-5.8 2.1c-.7.7-3.2 1.6-5.6 2-3.7.5-4.4 1-4.4 2.9 0 3.7-2.1 8.9-4.4 10.7-2.8 2.3-13.6 2.6-13.6.3 0-.9-.9-1.5-2.4-1.5-2.2 0-2.3-.3-2.2-6.2.1-3.8.7-6.3 1.4-6.6.7-.2 1.2-1.9 1.2-3.8 0-3.7.1-3.8 6.9-2.5 6.9 1.4 9.1.1 9.1-5.1 0-3.5-.4-4.5-2.2-5.3-2.6-1.2-3.6-3.5-1.4-3.5.9 0 1.6-.6 1.6-1.4 0-1.6 2.1-2.6 5.6-2.6 3.3 0 9.5-4.7 8.7-6.6-.3-.9.7-2.8 2.3-4.5 3.6-3.8 3.8-9.8.6-15.4-3.1-5.1-2.9-11.1.3-14.1 1.9-1.7 2.5-3.3 2.5-6.3 0-2.2.4-4.2.9-4.5.4-.3 1.1-1.9 1.4-3.6.4-1.9 1.6-3.4 3.1-4.1 1.4-.7 2.6-2.1 2.8-3.3.3-2 .9-2.1 11.3-2.2 8.4-.1 11-.4 11.3-1.5.4-1.7 2.1-5.7 3.3-8.1.5-1 .9-3.7.9-6.2 0-2.6.6-4.8 1.5-5.6 1.7-1.4 1-3.4-1-2.6-.7.2-2.2-.6-3.4-1.8-1.7-1.8-2.1-3.5-2.1-8.9 0-3.8-.4-6.7-1-6.7-.5 0-1-.8-1-1.7 0-2.8-3.4-9.2-4.9-9.3-.8 0-1.9.7-2.5 1.5-.9 1.2-2 1.3-5.6.6-4.4-.8-4.4-.8-1.8-1.9 1.4-.6 2.9-1.6 3.3-2.1.3-.6 1.5-1.1 2.6-1.1 1.4 0 2.5-1.2 3.5-3.6.9-2.1 2.2-4.3 3-5.1 2-2.1 1.7-5.1-.6-6.3s-2.6-5-.8-8c1.1-1.7.9-2.3-.8-4-2.6-2.6-4.6-1.9-7 2.6-2 3.7-2.8 3.9-6.9 2.4-3.1-1.2-2.8-3.5.5-3.5 1.3 0 3.1-1.1 4.3-2.8l2.1-2.7-6.4-6.5c-4.7-4.8-7.2-6.5-9.1-6.5-1.5 0-3.2-.7-3.9-1.5-.8-1-3.1-1.5-6.6-1.5-4.8 0-5.4-.2-5.4-2 0-1.3-1-2.5-2.7-3.2-5.5-2.3-7.3-4.8-7.3-10 0-3.5.4-4.8 1.5-4.8.7 0 1.8.6 2.2 1.3.4.8 2.5 1.7 4.5 2 3.7.6 3.7.5 3.6-2.6-.4-7.9.3-10.1 4.3-13.6l3.9-3.4 8.7 1.6c8 1.5 8.9 1.5 10.5 0 1-.9 1.8-2.2 1.8-2.9 0-.8 1.3-2 2.9-2.8 1.6-.9 3.1-2.2 3.4-3.1.4-.9 1.9-1.5 4.2-1.5 3 0 3.5.3 3.5 2.3 0 4.3-3 12.5-4.8 13.2-1.3.5.1 1.6 5.5 4.4 4 2.1 8.7 4.9 10.5 6.3 2.6 2 4.1 2.4 7.3 2 5.5-.6 7.2-2 4.6-3.9-1.1-.7-1.8-2-1.5-2.7.3-.9-.3-1.7-1.5-2.1-2.3-.7-2.7-2.5-1.2-5.3.5-.9 1.2-2.5 1.5-3.5s2.1-2.4 4-3.2c2-.8 4-2.4 4.6-3.6 1.5-2.7 2.5-1.6 2.5 2.9v3.7l11.5-.3 11.5-.4 2.3 3.1c3.1 4.3 5.7 4 8.2-.9 3.1-6 5.8-7.4 13.6-6.7 7.4.6 10.4 2.2 5.8 3.2-4.7 1-5.9 2-5.6 4.8.2 1.9-.2 2.7-2 3.2-3.4 1.1-3.7 2.2-1.9 8 2.9 9.4 7 11.8 6.9 4-.1-6.1 1.3-7.4 4.8-4.6 1.5 1.1 3.6 2.1 4.6 2.1 1.8 0 1.9-.4 1.2-3.7-1.5-7.4-1.2-8.5 2.6-9.9 4.8-1.7 10.9-1.7 14.3.1 1.6.8 5.1 1.7 7.8 2.1 4.4.6 5.5 1.3 9.4 5.7 2.4 2.7 4.7 6.2 5 7.6.8 3.3 2.1 4.1 6.8 4.1 4.6 0 5.4 1.5 3.7 7.6-.7 2.4-1 4.8-.6 5.1 1.3 1.4 7.7-3 8.3-5.6.6-3.3 6.4-6.1 12.5-6.1 4 0 4.8.4 7.7 4 3.1 3.9 3.1 4.1 1.9 8.2-.6 2.4-1.8 4.7-2.5 5.1-.8.5-1 1.8-.6 3.7.4 2.3 0 3.4-1.7 4.8-3.9 3.2-2.1 5.2 4.7 5.2 5.1 0 6.3-.4 9.1-2.9 1.9-1.8 3.2-4 3.2-5.3 0-4 3.7-10.1 7-11.4 2.7-1.2 3.1-1.1 4.4.9 3.8 6.1 2.2 12.3-4 15.2-2.2 1-3.6 2.7-4.4 5-1.9 5.8-3.2 6.5-12.5 6.5-7.9 0-8.6.2-11 2.7-2.9 3.2-3.2 5.3-.9 5.3 1.3 0 1.5.6.9 2.7-.8 3.3-.2 2.8-4.7 4.6-2.7 1.1-3.8 2.3-4.3 4.6-.4 1.7-2.6 5.8-5.1 9.1-2.4 3.3-4.4 6.3-4.4 6.8 0 .4 2.2 2.6 4.8 4.9 3.7 3.1 5.4 5.6 7 10.1 1.2 3.2 2.2 6.7 2.2 7.6 0 3.3 3 7.6 5.8 8.2 7.8 1.8 18.6 12 17.5 16.4-.4 1.6-1.4 2-5.2 2-3.1.1-5.9.9-8.6 2.5-2.2 1.4-5.2 2.5-6.6 2.5s-3.4.9-4.4 2c-2.2 2.5-9.3 2.8-10.1.5-.9-2.2-5.4-2-5.4.3 0 1-.7 2.8-1.6 4-1.3 1.9-2.4 2.2-8.4 2.2-6.4 0-7 .2-9.4 3.1-1.4 1.7-3.3 5.4-4.1 8.4-1.9 6.4-8.1 13.9-13 15.5-2.5.8-3.7 2-4.5 4.5-.9 2.7-2 3.7-5.8 5.1-5.9 2.2-7.2 3.2-7.2 5.5 0 1.5.7 1.9 3.3 1.9 1.8 0 3.7-.4 4.2-.9.6-.5 3.3-1.6 6-2.4 4.9-1.4 5-1.5 4.9-5.2-.2-4.7 2-7 7.2-7.8 3.4-.6 4.3-.3 7.2 2.4 3.2 3 3.2 3 3.2 12.8 0 7.5-.4 10.1-1.5 11.1-.9.8-1.5 2.9-1.5 5.5 0 2.9-.5 4.5-1.5 4.9-.8.3-1.5 1.6-1.5 3 0 1.3-.7 2.6-1.5 3-1.1.4-1.4 1.3-.9 3 .3 1.4.2 3.1-.2 3.8-.5.7-.9 2.8-1 4.6 0 1.8-.6 3.8-1.2 4.4-1.8 1.8-14.1 1-18.4-1.2-2.5-1.3-5.8-2-9.4-2-3.2 0-6.9-.7-8.7-1.6-6-3.1-6.7-3.4-8.7-3.4-1.1 0-4.8-1.4-8.2-3.1-5.7-2.9-6-2.9-5.5-1 .4 1.6 0 2.2-2 2.7-2.2.6-1.9.9 3.4 3.6 3.3 1.7 8.2 3.2 11.3 3.5 3 .3 6.6 1.4 8 2.3 1.4 1 5.4 3.2 8.9 5 6.2 3.1 6.9 3.2 15.5 2.8 10-.5 16.6-3.2 16.6-6.8 0-1.1.5-2.2 1-2.5.6-.3 1-1.3 1-2.2s1.8-4 4-7c3.1-4 4.7-5.3 6.7-5.3 2.5 0 2.5.1 2.1 5.4-.4 4.3-.1 5.6 1.3 6.4 1.7 1.1 3.9 10.6 3.9 16.7 0 1.6-2.4 7-5.4 12.4-4.7 8.3-5.5 10.6-6.1 16.8-.8 8.3-1.9 6.7 13.8 19.6 10.4 8.5 10.7 8.8 10.7 12.8 0 3.7-.5 4.6-4.5 8.1-2.5 2.2-4.5 4.8-4.5 5.9s-1.4 2.7-3.2 3.9c-6.8 4-7 5.1-1.3 7.4 5.5 2.3 5.7 9.4.4 14.2-1 .9-1.9 2.5-1.9 3.5s-4.6 8.4-10.2 16.5c-9.2 13.2-11.6 15.9-22.3 25.1-6.9 5.9-12.9 10.3-14.1 10.3s-3.8 1.4-5.9 3c-3 2.4-4.7 3-8.6 3-2.6 0-5.1.5-5.4 1-.3.6-1.7 1-3 1-1.8 0-2.6-.8-3.5-3.4m-74-237.1c2.2-2.4 2.3-3.1 2.1-14.1-.3-12.5-.6-14.4-2.6-14.4-2.1 0-4.2 4.2-4.7 9.6-.5 5.6-5.5 16.4-7.5 16.4-1 0-1.1.5-.3 1.9.9 1.8 2.5 2.3 9.1 2.9.8.1 2.6-.9 3.9-2.3m85-.5c1.1-.7 1.2-1.5.4-3.7-.8-2.4-1.4-2.8-4.2-2.5-2.6.3-3.4-.1-4.3-2.2-1.4-3.1-4.1-4.1-6.8-2.7-2.9 1.6-3.1 1.4-3.1-2.5 0-3.1-.3-3.5-2.2-3.2-2 .3-2.3 1-2.6 5.1-.3 4.4-.1 4.9 2.7 6.5 1.7.9 3.1 2.3 3.1 3s1.2 1.2 2.8 1.2c1.5 0 3.4-.6 4.1-1.2 1-1.1 1.5-1 2.4.3 2 2.7 5.2 3.5 7.7 1.9M360.4 751.9c-.3-.6-1.7-1.4-3-1.9-1.4-.6-2.7-1.8-3-2.7-.3-1-1.2-3-2-4.5-1.5-2.7-1.5-2.8 1.3-2.8 5.9.1 13.5 10.6 8.9 12.3-.8.3-1.8.2-2.2-.4M567.8 721.5c-1.4-3.2-.7-3.9 2.6-2.4 2.9 1.4 3.1 2 1.4 3.7-1.8 1.8-2.7 1.5-4-1.3M534.7 691.2c-1.5-1.6-1.5-1.9.4-3 2.5-1.6 3.9-.8 3.9 2.4 0 2.8-2 3.1-4.3.6M813.2 657.4c-1.5-1-2.2-2.5-2.2-4.9s-.6-3.8-2-4.5c-2.3-1.2-2.6-3.5-.7-4.7 1.7-1 3.7-8.7 3.8-14.5 0-2.4.6-6.1 1.3-8.3 1-3.6 1.6-4 5.5-4.8 3.8-.8 4.6-.6 6.8 1.5 4 3.7 5.3 7.2 5.3 14.1 0 3.4.4 6.7.9 7.3.5.5 1.1 3.2 1.4 5.9.5 4.8.3 5.2-3.8 9.8-4 4.4-4.7 4.7-9.2 4.7-2.8 0-5.8-.7-7.1-1.6" style="fill:#7ac142;fill-rule:nonzero" transform="matrix(-1.21383 0 0 -1.21387 1757.15 1543.53)"/><path d="M403 653.5c-4.1-1.3-10.2-2.4-13.5-2.4-5-.1-7.3-.8-13-3.8-3.9-2-8.6-4.9-10.5-6.3-5-3.9-6.5-4.2-9.4-1.9-2.2 1.8-3.4 1.9-10.1 1.3-7-.6-7.6-.9-10-4-1.4-1.9-3.8-3.7-5.3-4-8.8-2-10.4-2.8-15.1-7.3-2.7-2.7-5.6-6.5-6.5-8.5-1.5-3.7-4.7-5.9-5.4-3.8-.2.7-2.1 1.2-4.3 1.2-5.3 0-10.7-5.3-13.7-13.8-2.5-6.7-5.1-9.2-9.4-9.2-2.4 0-2.8-.4-2.8-3 0-2.8-.3-3-3.5-3-2.8 0-4.3-.8-7.6-4.2-2.2-2.3-4.7-5.5-5.5-7-1.8-3.5-2.5-3.5-4.6.2-2.2 3.9-6 4-8.5.4-2.5-3.7-8.6-9.4-10-9.4-2.3 0-4.4 3-3.3 5 .6 1 1 4.4 1 7.4v5.6h-3.3c-4 0-5.7-1.5-5.7-5 0-1.5-.9-3.5-2-4.5-1.2-1.1-2-3.1-2-5.1 0-1.8-.4-3.6-1-3.9-.5-.3-1-1.7-1-3.1s-.7-3.6-1.7-5c-1.5-2.3-1.5-2.7 0-4.1 1.4-1.4 1.4-1.8-.6-4.4-2-2.8-2-3-.4-6.4 1.5-3.1 1.5-3.8.1-7.1-1.7-4-1.3-6.4 1-6.4 1 0 1.6-1.3 1.8-3.7.3-3.4.6-3.8 3.3-4.1 1.7-.2 3.8-1 4.7-1.9 2.5-2.3 16.8-.8 16.8 1.7 0 1.3-1.1 2-4 2.5-4.5.8-4.9 1.8-2 5.5 2.4 3.1 4.5 2.1 7.5-3.3 1.6-3 2.6-3.7 5.1-3.7 1.9 0 3.4-.6 3.8-1.5.3-.9 1.8-1.5 4-1.5 2.8 0 3.5.4 3.8 2.3.2 1.4 1.1 2.3 2.6 2.5 1.2.2 2.2.8 2.2 1.3s2.5.9 5.6.9 8.4.8 11.9 1.7c6 1.6 6.5 1.6 8.3 0 1.3-1.2 3.6-1.7 8-1.7 3.4 0 6.2-.4 6.2-1 0-.5 1.9-1.5 4.1-2.2 3.2-.9 4.5-2 5.5-4.4.7-1.8 1.9-3.4 2.6-3.6 1-.4 1.1-1 .1-2.9-2-3.8-1.4-22.1.8-24.3.5-.6.9-1.8.9-2.8 0-1.7 1.7-3.9 10.8-13.3 1.8-1.9 3.8-4.8 4.3-6.5.7-1.9 2-3.2 3.5-3.6 2.3-.6 14.6 2.5 18.6 4.7 1 .5 2.6.9 3.6.9s3.1 1.4 4.5 3c2.8 3.1 7.1 4.2 6.1 1.6-.3-.9.4-1.9 1.8-2.7 4.8-2.5 5.3-6.7.8-7.5-2.6-.6-2.9-1-2.4-3.3 1.8-8.2 2.6-10.1 3.9-10.1 1 0 1.5-1.1 1.5-3.6s1-4.9 3.5-8.1c2-2.6 4.3-7.2 5.1-10.2.9-3.1 2.3-6.3 3-7.2.8-.8 1.4-2.7 1.4-4.1 0-1.6.9-3.2 2.5-4.2 2.2-1.4 2.5-2.4 2.5-7.5 0-3.5.5-6.1 1.1-6.3 1.1-.4 2.9-4.6 5-11.5.5-1.8 1.9-3.7 2.9-4.3 1.1-.6 2-2.1 2-3.4 0-3.6 4-6.6 8.7-6.6 2.4 0 4.6-.6 5.3-1.5.7-.8 2.4-1.5 3.9-1.5 1.4 0 3.5-.7 4.5-1.5 1.1-.8 3.3-1.5 4.8-1.5 1.6 0 3.6-.4 4.6-.9.9-.6 5-2 9.1-3.3s7.7-2.9 7.9-3.5c.5-1.9-10-1.7-14.5.2-1.9.8-5.1 1.5-7 1.5-3.1 0-3.3-.2-2.3-2 .6-1.1 2-2 3-2 1.1 0 2-.4 2-1 0-.5.7-1 1.6-1s3.2-.7 5.1-1.6c2.6-1.3 5.2-1.6 11.4-1.1 7.7.5 8.1.4 9.1-1.8 1.4-3.1 9.7-7.5 14.1-7.5 3.5 0 10.5 4.1 20.7 12 6.4 4.9 7.7 5.3 11.7 3.5 3.1-1.5 3.6-1.5 5.2-.1 1.1 1 3.3 1.5 6.1 1.4 2.5-.1 7.9.2 12 .6l7.5.8 1.7-3.1c.9-1.6 4.6-4.9 8.2-7.3s6.6-4.9 6.6-5.5c0-.7.7-1.3 1.5-1.3s1.5-.4 1.5-.9.9-1.1 2-1.4 2.4-1.6 2.9-2.9c2-5.4 5.8-5.6 5.7-.4-.1 2.6.4 3.1 4.4 4.4 5.4 1.8 7.3 4.3 8 10.2.4 3.7.9 4.6 2.8 4.8 2.6.4 2.9 3.3.8 7.4-1.2 2.3-1.2 2.7 0 3.2.8.3 1.4 1.4 1.4 2.4 0 2.1-8.1 9.2-10.7 9.2-1 0-3.6 1.2-5.8 2.5-2.2 1.4-5.5 2.5-7.3 2.5-2.5 0-3.5.5-4.2 2.4-.5 1.3-1.4 2.7-1.9 3.1-.6.3-1.1 1.4-1.1 2.3s-1.2 2.6-2.7 3.8c-2.2 1.8-2.5 2.5-1.6 3.5 1 1 1.4.9 1.9-.4.8-2.2 6.2-2.3 7-.2 1.1 2.7-.5 6.5-2.7 6.5-1.1 0-2.2.8-2.6 1.8-.3.9-1.3 2.5-2.1 3.4-1 1.2-1.3 2.8-.8 4.9.8 4.1-2.5 8.9-6 8.9-2.9 0-4.1 2.4-2.4 4.5 1 1.2 1 2.1.2 4-1.2 2.6-2.7 3.2-3.7 1.5-.3-.5-2.2-1-4-1-2.6 0-3.9.6-5.1 2.6-1.1 1.6-2.4 2.4-3.8 2.2-2.9-.4-3.6-7.3-1-9.3 1.7-1.2 1.5-1.5-1.6-4.4-3.4-3.1-6-4-6-2.2 0 1.4-11.6 10.1-13.4 10.1-.9 0-1.6.8-1.6 1.8-.1 2.4-2.1 4.8-4.8 5.6-1.5.5-2.2 1.5-2.2 3.2 0 2.1.5 2.4 3.6 2.4 2.7 0 3.7-.5 4.1-2 .6-2.1 4.7-3.1 14.1-3.3 6.2-.2 8.3 1.5 11.2 9.1 1.5 3.9 1.7 5.2.7 5.2-.7 0-1.8-.5-2.5-1.2-1.7-1.7-2.8-.1-1.5 2.1 1.2 2 .7 6.1-.8 6.1-.5 0-1.8 1.9-3 4.3-1.2 2.3-3.3 5.4-4.7 6.9-1.9 2.1-2.6 4.1-3 8.5-.5 5.9-2 8.2-5.4 8.3-1.4 0-1.8.9-1.8 4 0 3-.7 4.7-2.5 6.6-3.4 3.4-4.9 2.6-5.3-2.7-.2-2.7-1.1-5.2-2.3-6.5-2-2.1-2-2.4-.4-5.4 1.8-3.5.8-6-2.6-6-1.5 0-1.7.5-1.3 2.9.3 1.6.1 3.7-.4 4.8-1 1.7-1.1 1.7-1.7.1-.4-1-1.8-1.8-3.1-1.8s-2.4-.5-2.4-1.1-1.4-2.4-3.1-4c-2.7-2.5-2.9-3.1-1.8-4.5s1-1.8-.6-3c-2.4-1.8-3.5-1.8-6.1.1-2 1.3-2.2 1.2-3.6-2.4-2.2-5.6-6.9-8.5-16.8-10.4-7.4-1.5-8.9-2.1-11.5-5.1-3.6-4.1-6.4-5.6-10.3-5.6-2.3 0-3.2.6-4.1 2.9-1.3 2.9-5.5 5.6-7.2 4.6-2.3-1.5-.7-5.5 3.6-9.2 4.5-3.7 4.5-3.9 3.9-8.3-.3-2.5-1-4.9-1.5-5.4-1.4-1.5-1.1-11.4.5-14.4.7-1.5 1.6-5.5 1.9-8.9.6-7.2-.4-8.6-6.2-9-2-.1-5.4-.5-7.7-.8-3.7-.6-4.5-.3-7.7 2.4-4 3.5-5.5 8.9-3.8 13.4.6 1.4 2.8 4.3 5.1 6.3 4 3.7 5.4 8.4 2.9 10-1.5.9-9.9.9-12.6 0-1.6-.5-2.8-.1-4.3 1.4-1.7 1.7-2.1 3.1-1.8 7.8.3 5.3.1 5.7-2 6-1.3.2-2.6 1-2.9 1.8-.3.7-2.6 1.6-5.3 2l-4.8.6.4 3.7c.3 2 1 5.3 1.6 7.4.9 2.8.8 4.1 0 4.9-2.2 2.2-1.2 4.7 7.3 16.9l8.5 12.3v8.5c0 4.7.4 9.1.8 9.6.4.6 2.1 1.5 3.7 2 2 .7 3.1 1.8 3.3 3.4.2 1.4 1.1 3.5 1.9 4.7 2.1 3.3 1.3 6.6-2 8.2-2.1 1-2.7 1.8-2.1 3 .4 1 1 5.3 1.4 9.7.6 7.4 3 14.5 4.8 14.5 1.1 0 4.2 6.6 4.2 9 0 1 1 3.5 2.1 5.5 1.9 3.2 2 3.7.6 5.3-.9.9-2 2.9-2.6 4.3-.9 2.4-.5 3.2 4 8.2 2.7 3 4.9 5.9 4.9 6.4s2.7 3.5 6.1 6.8c5.6 5.6 13 17.7 15.4 25.4.4 1.2 1.8 3.9 3.1 5.8 1.6 2.4 2.4 5 2.4 7.9 0 6.5-1.9 7.4-15.8 7.4-10.5 0-11.6.2-14.6 2.5-3.9 3-4.9 3-14.6 0M262.1 629.3c-3.3-4-6.6-10.3-7.7-14.8l-.7-2.7 3.2 1.7c1.9.9 3.7 2.9 4.3 4.6.5 1.6 1.8 3.4 2.8 3.9 3.4 1.8 5.1 11 2.1 11-.5 0-2.3-1.7-4-3.7M853.7 610.4c-1-1.1-.9-7.4.2-7.4 1.6 0 3.3 2.9 2.9 5.1-.3 2.3-1.9 3.5-3.1 2.3M235 599.6c0-1.3-.7-2.6-1.5-3-1.7-.6-2.1-4.6-.5-4.6.6 0 1.9.9 3 2 2.4 2.4 2.7 8 .5 8-.9 0-1.5-.9-1.5-2.4M858.3 598.3c-2.1-.8-1.5-4.3.7-4.3 1.5 0 2 .7 2 2.5 0 2.5-.4 2.8-2.7 1.8M633.1 571.6c-1.8-2.1-.2-3.9 2.9-3.4 2.2.3 2.2.3.3 2.7-1.7 2.1-2 2.2-3.2.7M958 568.7c0-2.5 2.8-5.7 4.8-5.7 1.6 0 1.5 5.3 0 6.8-2.1 2.1-4.8 1.4-4.8-1.1M660 566.5c-2.1-2.6.5-4.7 4.9-3.9s5.4 1.6 4.5 3.7c-.8 2.2-7.6 2.3-9.4.2M964.7 562.3c-1.3-1.2-.7-4.3.8-4.3.9 0 1.5.9 1.5 2.5 0 2.4-1 3.2-2.3 1.8M778 554.5c0-3.3.4-4.5 1.5-4.5s1.5 1.2 1.5 4.5-.4 4.5-1.5 4.5-1.5-1.2-1.5-4.5M682 555.1c0-.5.7-1.4 1.5-2.1 1.8-1.5 4.2.1 3.1 1.9-.8 1.3-4.6 1.5-4.6.2M976.4 550.8c-.4-1.4-.1-2.5 1-3.3.9-.7 1.6-2 1.6-2.9s.7-1.6 1.5-1.6c.9 0 1.5.9 1.5 2.5 0 1.4-.6 2.5-1.4 2.5-.9 0-1.2.8-.8 2.5.6 3.2-2.4 3.5-3.4.3M588.7 535.4c-.4-.4-.3-1.2.1-1.8s.7-1.3.7-1.6c.1-1.4 3.1-7 3.7-7 1.3 0 .9-2-.6-3.6-1.6-1.6-1-5.3 1-6.1.9-.3 1.4-2.1 1.4-4.9V506h8.7l1.2 5.3c1.3 5.6 1.1 5.9-4.5 9.3-1.8 1.1-1.8 1.2-.1 3.1 3.4 3.8 1.3 8.4-4.5 9.8-1.6.4-2.8 1.1-2.8 1.6 0 1-3.3 1.2-4.3.3M579.2 529.4c-.7-1.4-.4-3 1.1-6.2 1.6-3.6 2.4-4.3 4.1-3.8 1.2.3 2.7.6 3.4.6s1.2 1.3 1.2 3.3c0 4.3-1.7 6.5-5.7 7.3-2.4.5-3.3.2-4.1-1.2" style="fill:#7ac142;fill-rule:nonzero" transform="matrix(-1.21383 0 0 -1.21387 1757.15 1543.53)"/><path d="M410 525.1c0-1.5.6-2.1 2.1-2.1 2.5 0 2.2 3.3-.4 3.8-1.2.2-1.7-.3-1.7-1.7M420.7 521.4c-1.4-1.4-.7-3.5 1.1-3.2.9.2 1.7 1 1.7 1.7 0 1.6-1.8 2.5-2.8 1.5M417.7 512.4c-1.4-1.5-.6-3.4 1.4-3.4 1.4 0 1.9.5 1.7 1.7-.3 1.8-2 2.7-3.1 1.7M948.3 507.4c-.8-2 0-2.6 3.8-2.7 4.4-.3 4.7 1.7.4 3-3 1-3.7.9-4.2-.3M414.7 505.3c-1.3-1.2-.7-4.1.8-4.7 1.8-.6 3 1.6 2.1 3.9-.6 1.6-1.8 1.9-2.9.8M409.2 490.6c-2.6-3.6-3.2-5.4-3.2-9.5 0-5.5.1-5.6 3.1-4.1 1.5.9 2.6.6 4.9-1 2.5-1.8 3-1.9 3-.5 0 .8-.7 1.8-1.5 2.1-2 .8-1.9 5.4.2 6.9 1.6 1.2 1.6 1.5-.1 5.9-1 2.5-2.1 4.6-2.5 4.6s-2.2-2-3.9-4.4M574.2 493.3c-1.2-1-2.3-3.1-2.4-4.8-.2-2.5.1-3.1 2-3.3 1.2-.2 2.2.1 2.2.7s1.2 1.1 2.8 1.1c4.1 0 7.2 1.1 7.2 2.4 0 2.1-4.5 5.6-7.2 5.6-1.4 0-3.5-.8-4.6-1.7M541 480.8c0-6.3 2.4-15.3 4.7-17.6 1.3-1.3 2.8-3.4 3.3-4.7.6-1.5 2.3-2.6 5.4-3.5 3.7-1 4.6-1.7 4.6-3.5 0-1.3.7-2.5 1.5-2.9 1.1-.4 1.5-2.1 1.5-6.1 0-5 .2-5.6 2.5-6.5 2.1-.8 2.5-1.6 2.5-5 0-3 .7-4.8 2.9-7.2l2.8-3.2 3.4 2c3.2 1.9 3.4 2.4 3.7 7.7l.3 5.7h3.3c2.1 0 3.6.6 4 1.5.3.8 1.4 1.5 2.4 1.5 2.8 0 5 2.9 3.2 4-1.1.7-1.1 1.1-.1 2.4 2 2.4.4 9.5-3 12.9-2.1 2-2.9 3.8-2.9 6.2 0 1.9-.4 3.6-.9 4-.5.3-1.2 1.9-1.6 3.5-.5 2.3-1.2 3-3 3-1.3 0-2.9 1-3.9 2.5-1.8 2.8-5.1 3.3-6 1-.7-2-4-1.9-5.7.1-1 1.3-2.4 1.5-6.2 1-4.3-.6-5.1-.4-6.4 1.3-1.1 1.7-2.5 2.1-6.9 2.1-4.9 0-5.4-.2-5.4-2.2" style="fill:#7ac142;fill-rule:nonzero" transform="matrix(-1.21383 0 0 -1.21387 1757.15 1543.53)"/><path d="M409.6 472.5c-1-1.5-2.6-2.5-4.1-2.5-2.9 0-4.4-2.3-3.7-5.7.4-2 .9-2.3 2.6-1.8 5.1 1.5 5.1 1.5 5.4-8.1.2-8 0-9.3-1.9-11.5l-2.1-2.4 2.2-.3c1.2-.2 3.3-.1 4.6.2 2.4.6 2.4.6 2.4 15.7 0 18-1.5 22.4-5.4 16.4M420.2 470.3c.2-1 1-1.8 1.8-1.8 2.2 0 1.8 2.9-.3 3.3-1.4.3-1.8-.1-1.5-1.5M823 467.5c-1.9-2.3-.5-4.3 3.5-5.1 4.2-.7 6.5.7 6.5 4.2 0 2.2-.4 2.4-4.4 2.4-2.6 0-4.8-.6-5.6-1.5M420.5 463.7c-3-2.5-2.7-5.4.4-4.1 1.4.6 3.6 1 6.4 1.3.5.1.7 1.1.5 2.4-.4 3.1-4 3.3-7.3.4M609 459.8c0-1-.9-2.7-2-3.8-1.9-1.9-1.9-2 1.4-4.5 4.2-3.2 4.6-3.1 4.6.5 0 1.7-.4 3-1 3-.5 0-1 .8-1 1.8 0 .9-.5 2.4-1 3.2-.8 1.3-1 1.2-1-.2M537 455.2c-4.1-2-5.3-6.1-3.8-12.2 1-3.9 1.2-4 5.4-4 4.3 0 4.4-.1 6.9-5.3 1.4-3 2.5-5.8 2.5-6.3 0-1.3 8.3-9.4 9.6-9.4.6 0 1.9-1.2 2.9-2.6 1.6-2.5 1.6-2.8.1-3.6-2.3-1.3-2-3.3.9-5.2s6.5-1.3 6.5 1c0 .8.7 1.4 1.5 1.4 1.1 0 1.5 1.1 1.5 3.9 0 3.4-.5 4.2-3.4 5.9s-3.6 2.8-4.2 6.9c-.9 6.2-2 8.3-4.5 8.3-2.8 0-7.9 2.8-7.9 4.3 0 .7-1.1 2.8-2.5 4.7s-2.5 4.4-2.5 5.7-.6 2.6-1.4 2.9-1.7 1.6-2 3c-.7 2.8-1 2.8-5.6.6M632 449.7c-4.4-5.9-5.5-12.2-2.4-13.4 1.9-.7 3 .8 4.4 6 .6 2 2.5 5.3 4.1 7.2 1.7 1.9 2.8 3.9 2.4 4.5-1.5 2.4-4.6.8-8.5-4.3M813.3 415.9c-2-2-1.5-2.8 1.5-2.7 1.5.1 3.5-.2 4.4-.6 1.2-.6 2-.3 2.4.8.8 2.1.6 2.3-3.6 3.1-2.3.4-3.9.2-4.7-.6M831.7 411.3c-1-.3-1.6-1-1.4-1.6.5-1.7 5.2-1.5 5.2.2 0 1.6-1.2 2.1-3.8 1.4M839.5 403c-.4-1.1-.5-3.6-.4-5.5.2-1.9 0-3.7-.3-4.1-.4-.3.3-2 1.5-3.6 2.8-3.7 2.8-12.3.2-21.7l-1.8-6.4 4.1-3.6c2.3-2 4.2-4.5 4.2-5.6.1-1.9.2-1.9 1.4-.3.7 1 1.6 1.5 1.9 1.2s2.2-.1 4.2.6c2.9.9 3.5 1.6 2.8 2.9-.4.9-.7 3.9-.5 6.6.2 5.5-1.3 14.3-3.3 19-.7 1.7-2.3 6.2-3.5 10-1.6 4.8-3.2 7.8-5.4 9.7-3.8 3.3-4.3 3.4-5.1.8M857.2 382.3c.5-2.5 2.8-2.8 2.8-.4 0 1.2-.6 2.1-1.6 2.1-.9 0-1.4-.7-1.2-1.7M859.4 371.6c-.6-1.7.2-3.6 1.7-3.6 1.2 0 1.2 3.7-.1 4.5-.6.3-1.3-.1-1.6-.9M857.2 351.3c-2.1-.8-4.2-6-3.6-9 .4-2.1 0-3.3-1.5-4.7-1.2-1.1-2.1-3-2.1-4.3s-.9-3.1-2-4c-1.3-1.2-2-3-2-5.4 0-2-.7-4.2-1.5-4.9-2-1.7-1.9-3.3.5-5.5 1.6-1.4 1.9-2.6 1.4-4.8s-.3-2.8.7-2.5c2 .6 4.9 6.8 4.9 10.5 0 1.7.5 3.5 1 3.8.6.3 1 1.5 1 2.5 0 1.1.9 2.4 2 3 1.7.9 1.9 2 1.8 7.3-.1 3.5.4 7.5 1.2 9.3 1.6 3.6.4 9.4-1.8 8.7M844.1 346.1c-.7-.5-1-1.4-.7-2 1-1.6 4.3-1.4 4.9.3 1 2.5-1.4 3.4-4.2 1.7M833.1 344.1c-1.8-2.5-1.2-3.6 1.9-3.2 3.6.4 4.1 1 2.7 3.1-1.5 2.5-2.9 2.5-4.6.1M753.7 332.3c-.4-.3-.7-1.5-.7-2.5 0-1.5.8-1.8 4.4-1.8 2.5 0 4.7.4 5.1.9 1.3 2.2-6.9 5.4-8.8 3.4M839.2 330.1c-1-.6-1-1 .2-2 1.7-1.4 3.6-.7 3.6 1.5 0 1.5-1.8 1.8-3.8.5M571 328.5c0-.8.7-1.5 1.5-1.5s1.5.7 1.5 1.5-.7 1.5-1.5 1.5-1.5-.7-1.5-1.5M621.2 328.3c.2-1 1-1.8 1.8-1.8 2.2 0 1.8 2.9-.3 3.3-1.4.3-1.8-.1-1.5-1.5M575.3 326.3c-1.8-.6-1.6-3.3.1-3.3 1.9 0 3.1 1.9 2 3-.5.4-1.5.5-2.1.3M618 324c0-1.1.7-2 1.5-2s1.5.9 1.5 2-.7 2-1.5 2-1.5-.9-1.5-2M751.2 325.1c-1.3-.8-.6-4.1.8-4.1 1.5 0 2.2 1.9 1.3 3.4-.5.9-1.3 1.2-2.1.7M769.3 324.4c-1-2.7 1.4-6.4 4.1-6.4 2.9 0 5-3.2 4.2-6.3-.3-1.2 0-2.7.6-3.4.8-1.1.6-2.1-1-4.3-2.9-3.9-2.8-5 .8-5 2.7 0 3.1-.4 4.2-4.5.9-3.3 1.7-4.5 3.1-4.5 1 0 2.7-.5 3.8-1.1 1.6-.8 2.3-.6 3.9 1.3 2.4 2.8 2.5 4.4.4 5.2-1.4.5-1.4.8 0 2.8.9 1.2 1.6 3.1 1.6 4.1 0 1.6-.6 1.8-3.4 1.5-3.3-.4-3.4-.3-2.9 2.4.6 3.2-1.1 5.8-3.8 5.8-2.3 0-2.5 2.5-.3 3.4.9.3 3.4.6 5.7.6 6.2 0 8.7.9 8.7 3.2 0 1.8-.6 2-7.2 1.7-8-.4-9.8.2-9.8 3.2 0 1.7-.7 1.9-6 1.9-4.6 0-6.2-.4-6.7-1.6M819.7 324.3c-1.1-1.1-3.3-1.8-5.7-1.8-2.6 0-4-.4-4-1.2 0-.7-1.1-1.3-2.5-1.3-2 0-2.5-.5-2.5-2.4 0-1.3.7-2.6 1.5-3 1-.3 1.5-1.9 1.5-4.2v-3.7l11.2.6c6.1.4 11.6 1.1 12.2 1.7.5.5 1.8 1 2.8 1 2.6 0 5 5.4 4.3 9.4-.7 3.3-.8 3.3-6.8 4-3.4.3-6.6 1.1-7.1 1.6-1.5 1.5-2.9 1.2-4.9-.7M674.2 322c-1.5-1.6-3.5-3-4.5-3-1.2 0-1.7-.6-1.5-1.7.4-2.4 9.4-3.6 12.4-1.7 1.2.7 3.1 1 4.3.7 3.2-.8 2.9 4-.5 6.6-3.8 3-7.1 2.7-10.2-.9M577 321.5c0-1 .7-1.5 1.8-1.3 2.1.4 1.9 2.2-.2 2.6-1 .2-1.6-.3-1.6-1.3M613.3 322.3c-1.8-.7-1.6-3.3.2-3.3.8 0 1.5.9 1.5 2s-.1 2-.2 1.9c-.2 0-.9-.3-1.5-.6M646.5 322.1c-.6-1.1.9-2.3 1.9-1.4.9.9.7 2.3-.3 2.3-.6 0-1.2-.4-1.6-.9M707.5 321.3c-1.6-.9-4.3-2.7-5.8-3.9-1.9-1.6-4.1-2.4-6.8-2.4s-4.2-.5-4.6-1.6c-.9-2.3.9-4.8 3.7-5.2 1.2-.2 2.5-1.2 2.7-2.3.7-2.6 2-2.4 6.1 1.2l3.5 3.1 18.4-1.4 4.4 4.3 4.4 4.2-3.3 1.4c-4.7 1.9-14.2 4.3-17.2 4.3-1.4-.1-3.8-.8-5.5-1.7M607 319.5c0-.8.7-1.5 1.5-1.5s1.5.7 1.5 1.5-.7 1.5-1.5 1.5-1.5-.7-1.5-1.5M584.2 318.8c.7-1.9 3.8-2.2 3.8-.4 0 1-.9 1.6-2.1 1.6s-1.9-.5-1.7-1.2M648.7 319.3c-1.4-1.3-.6-3.3 1.3-3.3 1.3 0 2 .7 2 2 0 1.9-2 2.7-3.3 1.3M655 318.5c0-1.1 1.1-1.5 4-1.5 2.2 0 4.3 0 4.8-.1.4 0 .8.7 1 1.5.3 1.3-.7 1.6-4.7 1.6-3.9 0-5.1-.4-5.1-1.5M738.7 316.6c-.8-2 3.3-3.3 4.4-1.5q.75 1.35-.9 2.1c-2.6 1-2.9.9-3.5-.6M804 304.6c0-1 .9-1.6 2.1-1.6 2.4 0 2.1 2.3-.4 2.8-1 .2-1.7-.3-1.7-1.2M799 302.5c0-.8.9-1.5 2-1.5s2 .7 2 1.5-.9 1.5-2 1.5-2-.7-2-1.5M841.5 301.7c-3-1.8-3.6-2.9-3.2-5.7.7-4.6-.6-7.5-3.8-8-2.1-.4-3.1-1.2-3.3-2.7-.2-1.2-1-2.7-1.8-3.3-2.2-1.9-1.7-3 1.4-3 1.7 0 3.2.8 4 2 .7 1.2 2.3 2.5 3.6 3 1.5.5 2.8 2.3 3.6 4.7.7 2.1 2 5.2 3 6.8 1.3 2.1 1.5 3.7.9 5.3-.9 2.5-1.5 2.6-4.4.9M883.4 296.5c-.4-1.8-1.3-2.5-3-2.5s-2.4-.6-2.4-1.8c0-1-1.3-3.1-2.9-4.6-1.6-1.6-3.2-3.9-3.6-5.3-.3-1.5-1.8-3-3.9-3.8-2.2-.9-3.8-2.7-5.1-5.5-1.8-4.1-2.2-4.3-9.7-5.5-2.6-.4-4.4-1.6-6.3-4-1.6-2.2-3.4-3.5-4.9-3.5-1.3 0-2.9-.7-3.6-1.5s-2.5-1.5-4.1-1.5c-3.5 0-6.3-3.7-8.1-11-1.1-4.9-1.6-5.5-4-5.8-2.2-.3-3 .2-3.8 2.3s-1.6 2.6-3.7 2.3c-2.1-.2-2.9-1-3.5-3.4-.4-1.7-2.7-5.1-5-7.5-7.8-8-10.4-15.9-5.7-17.4 2.4-.8 2.4-2.6 0-7.4-2.9-5.5-9.4-11.1-13.1-11.1s-10 2.5-10 3.9c0 .6-1.5 1.1-3.4 1.1-3 0-3.4-.4-4-3.1-.3-1.7-.6-4.2-.6-5.4 0-2.7-2.3-7.5-4.1-8.6-1-.6-1-1.3-.1-3.4.7-1.4 1.2-4.3 1.2-6.4 0-3.4-.5-4.2-3.5-6-3.3-1.9-3.5-2.4-3.5-7.1 0-2.7-.4-5-1-5-.5 0-1-.9-1-2 0-4.2-2.7-8.7-5.9-9.8-2-.7-3.1-1.8-3.1-3 0-2-2.5-3.2-6.7-3.2-1.5 0-2.3-.6-2.3-1.7 0-2.6.8-3.4 8.3-8.2 3.7-2.4 6.7-4.7 6.7-5.2s2.2-.9 4.9-.9c5.9 0 8.1-.7 8.1-2.6 0-1 1.3-1.4 4.5-1.4 2.6 0 4.5-.5 4.5-1.1 0-1.4 4.2-.4 9.3 2.2 2.1 1 5.7 1.9 8.1 1.9 4 0 4.5.3 7.7 5 3.3 4.8 3.6 5 8 5s4.7.2 5.3 3c.4 2 1.4 3.4 3.1 4 1.7.7 2.5 1.7 2.5 3.4 0 1.9.4 2.4 1.5 2 1.9-.8 6.5 3.9 6.5 6.6 0 1 .5 4.2 1.1 7 1.1 4.9 1.1 5 4.8 5 2.5 0 4.4.7 5.6 2 1.8 2 1.8 2.2.2 5-1.7 2.7-1.6 2.9.2 3.5 1.1.3 3.2 2.6 4.6 5.1 2.1 3.7 2.5 5.3 2 8.4-.6 3.5-.4 3.9 1.6 4.2 1.5.2 2.5 1.3 3 3.2 1 3.5 9.6 12.6 12 12.6 3.3 0 4.9 1.2 4.9 3.6 0 1.4.7 2.7 1.5 3 .8.4 1.5 1.5 1.5 2.6 0 3.1 9 13.7 12.3 14.4 1.6.4 3.1 1.4 3.5 2.3.3.9 2.3 3.5 4.4 5.9 2.2 2.4 4.6 5.8 5.4 7.5 1.5 3.1 3.1 5.5 8.7 12.8 1.5 2 2.7 4 2.7 4.6 0 .5 1.4 2.2 3 3.8 2.4 2.3 3 3.7 3 7.2 0 3.7-.3 4.3-2.1 4.3-2.3 0-11.8 9.6-11.9 12.1 0 2.7-7.4 6.9-12 6.9-3.4 0-4.1-.4-4.6-2.5M818 293.4c0-3.7.5-5.2 2.6-7 3.2-3 4.2-3 5 0 .3 1.4 1.4 3.2 2.5 4.2 1 .9 1.9 2.7 1.9 3.9 0 2.5-2.2 3.5-8.2 3.5H818zM794.2 284.8c.5-1.5 2.8-1.8 2.9-.3 0 .6-.7 1.2-1.7 1.3-1 .3-1.5-.1-1.2-1M787.7 282.6c-.4-.9.3-1.6 1.6-2 2.8-.7 4.8 1.1 2.7 2.4-2.1 1.4-3.7 1.2-4.3-.4M795.6 276.4c-.9-.8-1.6-2.4-1.6-3.3 0-2.2-1.7-3.7-4.5-4.3-1.1-.2-2.1-1.2-2.1-2.3-.1-1.1-.2-2.5-.3-3.2s-1.7-2.3-3.7-3.7c-5.1-3.5-7.6-7.9-6.4-11.2.6-1.4 1-4.7 1-7.3 0-7.4 2-8.3 6.7-3 2.1 2.4 4.6 5.1 5.6 6.2 1.1 1.1 1.6 2.5 1.2 3.8-.4 1.2.2 3 1.5 4.9 1.8 2.5 2.5 2.8 4.1 2 1.4-.8 1.9-.7 1.9.3 0 .8 1.4 3.1 3 5.2 1.7 2.1 3 4.3 3 5s1.4 1.8 3.1 2.4c2.5.9 3 1.5 2.8 3.8-.2 1.6 0 3.4.5 4.1 1.4 2.3 0 2.3-5.3.2-6.3-2.4-6.1-2.4-6.1 0s-2.2 2.6-4.4.4M828.5 272.9c-1-1.1-3.1-2.2-4.5-2.6-3.4-.8-5.2-2.3-4.5-4 .2-.8 0-2.4-.6-3.5-.8-1.6-.8-2.2.2-2.9 1.8-1.1 4.2.4 7 4.5 1.3 1.9 3 3.7 3.9 4.1 3.4 1.2 6.5 3.5 6.5 4.7 0 2.2-5.8 2-8-.3M517 244.9c0-1.8.4-2 3.3-1.4 6.2 1.4 6.6 3.5.7 3.5-3.4 0-4-.3-4-2.1M799 245c0-2.4 2.5-2.7 3.4-.4s.8 2.4-1.4 2.4c-1.3 0-2-.7-2-2M526 242.6c0-.8.4-1.7.9-2 1.1-.7 3.3 1.8 2.4 2.7-1.2 1.2-3.3.7-3.3-.7M764 225.5c-4.5-4.6-6.7-5.4-8.8-3.3-.9.9-1.2.8-1.2-.5 0-.9.5-1.7 1-1.7 1.9 0 1-2.2-2.5-5.7-1.9-1.9-3.7-4.9-4.1-6.8-.5-2.7-1.1-3.5-3.1-3.7-1.5-.2-3.1-1.1-3.7-2-.9-1.4-.6-2.1 1.2-3.3 1.2-.9 2.2-2.4 2.2-3.4 0-2.7-7.4-9.1-9.8-8.4-2.5.6-3.4-.9-2.6-4.2 1-3.9 4.5-3.2 11.3 2.5 6.5 5.4 11.1 10.9 11.1 13.2 0 2.8 4.8 6.2 9 6.2 4.5.1 8.5 3.4 15.7 13.1l4.5 6-3.1 1.2c-2 .9-3.1 2-3.1 3.3 0 1.7-.7 2-4.8 2-4.4 0-5.2-.4-9.2-4.5" style="fill:#7ac142;fill-rule:nonzero" transform="matrix(-1.21383 0 0 -1.21387 1757.15 1543.53)"/><path d="m717.2 202.1.6-11.6 4.1.2c2.2.1 4.1-.2 4.1-.8 0-1.7 5.1-.9 8.1 1.2 5 3.5 2.9 10.2-2.2 7.1-2.9-1.8-4.7-1.4-5.1 1.1-.3 1.9-1 2.2-5 2.5zM707.7 178.9c-3.2-2.7-6.7-4.9-7.7-4.9s-3.1-1.1-4.6-2.5-3.2-2.5-3.9-2.5c-1.7 0-4-2.9-5.3-6.5-.5-1.6-1.3-3.8-1.7-4.8-.7-1.6-.3-1.8 2.1-1.5 2.1.2 3 .9 3.2 2.6.3 1.8 1 2.2 3.9 2.2 3.2 0 3.5.2 2.9 2.3-.7 2.8 2.4 6.2 6.6 7.2 1.5.4 3.4 1.7 4.2 3 .9 1.3 2.8 3 4.3 3.7 1.9.9 2.9 2.2 3.1 4.1.2 1.5 0 2.7-.5 2.6-.4 0-3.4-2.2-6.6-5M449 162.5c-.9-1.1-1-1.9-.3-2.6s1.4-.5 2.3.6 1 1.9.3 2.6-1.4.5-2.3-.6M561 139.5c-1.4-.8-3.4-1.4-4.6-1.5-2.2 0-5.4-2.9-5.4-4.7 0-.6.7-1.4 1.6-1.7 3.2-1.2 6.5-.5 8.6 1.9 1.2 1.4 3 2.5 3.9 2.5 2.2 0 3.1 1.3 2.3 3.4-.8 2-3.1 2-6.4.1M663.7 139.3c-.4-.3-.7-1.2-.7-2 0-2 3.8-1.5 5 .7.9 1.7.8 2-1.3 2-1.3 0-2.7-.3-3-.7M602.7 127.7c-2.6-2.1-2.7-2.4-1.5-5.4 1.2-3.1 1.6-3.3 5.9-3.3 2.9 0 5.1.6 5.9 1.5 1.5 1.8.6 4.5-1.4 4.5-.7 0-1.6.6-1.9 1.4-1.2 3.1-4.2 3.6-7 1.3M680 129.2c-.8-.3-2.1-1.3-2.8-2.4-.7-1-2-1.8-2.9-1.8-.8 0-2.8-.8-4.3-1.7l-2.8-1.6 2.3-1.9c3.1-2.4 7.7-1.4 11.6 2.4 4.2 4.2 3.5 8.6-1.1 7M658.9 126.4c-.7-.9-2.4-2-3.7-2.5-1.9-.7-2.2-1.2-1.3-2.3 1.6-1.9 4.9-.9 6.8 2.1 1.9 2.9.4 5.3-1.8 2.7M805.4 123.7c-2.2-1.9-5.7-4-7.9-4.7-5.2-1.6-6.5-2.7-6.5-5.5 0-2.9 1.9-4.4 6.2-5.1 4.8-.8 11.3 5.1 13 11.8 1.7 6.9.2 8-4.8 3.5M663.4 117.7c-.7-2 .3-3.7 2.2-3.7 1.8 0 1.8 2.4-.1 4-1.2 1-1.6.9-2.1-.3M641 80.2c-.8-.3-3.2-2-5.3-3.8-2.9-2.7-4.6-3.4-7.8-3.4-3.1 0-4.6-.6-6-2.4s-3.1-2.4-7.4-2.8c-6.5-.5-7.1-.9-5.3-3.7.8-1.4 2.3-2.1 4.3-2.1 1.7 0 4.8-1.2 7-2.7 4.6-3.1 12.2-3.9 13.5-1.3.3.8 1.4 3 2.3 4.8.9 1.9 1.7 4.4 1.7 5.6s1.6 3.7 3.5 5.6 3.5 3.9 3.5 4.6c0 1.5-2 2.3-4 1.6M640.8 60.9c-2.1-1.2-2.4-5.2-.5-6.8 1-.8 1.7-.7 2.5.1.9.9 1.9.7 4.2-1 2-1.5 4.4-2.2 7.3-2.2 3 0 5.3-.7 7.1-2.1 2-1.6 3.4-1.9 5.4-1.3 1.5.4 5.9.8 9.8.9 7.9.2 9.4.8 9.4 3.6 0 1.5-.7 1.9-3 1.9-2 0-3.9.9-5.4 2.5-2.2 2.4-2.9 2.5-12.8 2.5-8.2 0-10.8.3-11.8 1.5-1.4 1.7-9.5 2-12.2.4M690.5 44c-2.3-2.5-1.5-3.3 3.5-3.6 4.5-.2 5 .9 1.8 3.7-2.9 2.3-3.1 2.3-5.3-.1M669.8 33.7c-2-1.6-.9-4 1.5-3.2.8.4 2.5.2 3.6-.4 3-1.7 4 .8 1.1 3.1-2.6 2.1-3.9 2.2-6.2.5" style="fill:#7ac142;fill-rule:nonzero" transform="matrix(-1.21383 0 0 -1.21387 1757.15 1543.53)"/><path d="m1888.47 932.047-16.53 40.088-40.04-16.657 16.66 40.037-40.09 16.535 40.09 16.53-16.66 40.04 40.04-16.66 16.53 40.09 16.53-40.09 40.04 16.66-16.66-40.04 40.09-16.53-40.09-16.535 16.66-40.037-40.04 16.657zm0 36.816c-23.83 0-43.18 19.35-43.18 43.187 0 23.83 19.35 43.18 43.18 43.18 23.84 0 43.19-19.35 43.19-43.18 0-23.837-19.35-43.187-43.19-43.187m0 10c18.32 0 33.19 14.869 33.19 33.187 0 18.31-14.87 33.18-33.19 33.18-18.31 0-33.18-14.87-33.18-33.18 0-18.318 14.87-33.187 33.18-33.187" style="fill:#fdbb2f" transform="scale(.3 -.3)rotate(45 9133.18 -2114.888)"/><path d="m1888.47 932.047-16.53 40.088-40.04-16.657 16.66 40.037-40.09 16.535 40.09 16.53-16.66 40.04 40.04-16.66 16.53 40.09 16.53-40.09 40.04 16.66-16.66-40.04 40.09-16.53-40.09-16.535 16.66-40.037-40.04 16.657zm0 36.816c-23.83 0-43.18 19.35-43.18 43.187 0 23.83 19.35 43.18 43.18 43.18 23.84 0 43.19-19.35 43.19-43.18 0-23.837-19.35-43.187-43.19-43.187m0 10c18.32 0 33.19 14.869 33.19 33.187 0 18.31-14.87 33.18-33.19 33.18-18.31 0-33.18-14.87-33.18-33.18 0-18.318 14.87-33.187 33.18-33.187" style="fill:#fdbb2f" transform="scale(.4 -.4)rotate(30 9756.106 -2758.35)"/><path d="m1888.47 932.047-16.53 40.088-40.04-16.657 16.66 40.037-40.09 16.535 40.09 16.53-16.66 40.04 40.04-16.66 16.53 40.09 16.53-40.09 40.04 16.66-16.66-40.04 40.09-16.53-40.09-16.535 16.66-40.037-40.04 16.657zm0 36.816c-23.83 0-43.18 19.35-43.18 43.187 0 23.83 19.35 43.18 43.18 43.18 23.84 0 43.19-19.35 43.19-43.18 0-23.837-19.35-43.187-43.19-43.187m0 10c18.32 0 33.19 14.869 33.19 33.187 0 18.31-14.87 33.18-33.19 33.18-18.31 0-33.18-14.87-33.18-33.18 0-18.318 14.87-33.187 33.18-33.187" style="fill:#fdbb2f" transform="scale(.5 -.5)rotate(15 14293.753 -5267.655)"/><path d="m1888.47 932.047-16.53 40.088-40.04-16.657 16.66 40.037-40.09 16.535 40.09 16.53-16.66 40.04 40.04-16.66 16.53 40.09 16.53-40.09 40.04 16.66-16.66-40.04 40.09-16.53-40.09-16.535 16.66-40.037-40.04 16.657zm0 36.816c-23.83 0-43.18 19.35-43.18 43.187 0 23.83 19.35 43.18 43.18 43.18 23.84 0 43.19-19.35 43.19-43.18 0-23.837-19.35-43.187-43.19-43.187m0 10c18.32 0 33.19 14.869 33.19 33.187 0 18.31-14.87 33.18-33.19 33.18-18.31 0-33.18-14.87-33.18-33.18 0-18.318 14.87-33.187 33.18-33.187" style="fill:#fdbb2f" transform="matrix(-.6 0 0 .6 1440.314 416.593)"/><path d="m1888.47 932.047-16.53 40.088-40.04-16.657 16.66 40.037-40.09 16.535 40.09 16.53-16.66 40.04 40.04-16.66 16.53 40.09 16.53-40.09 40.04 16.66-16.66-40.04 40.09-16.53-40.09-16.535 16.66-40.037-40.04 16.657zm0 36.816c-23.83 0-43.18 19.35-43.18 43.187 0 23.83 19.35 43.18 43.18 43.18 23.84 0 43.19-19.35 43.19-43.18 0-23.837-19.35-43.187-43.19-43.187m0 10c18.32 0 33.19 14.869 33.19 33.187 0 18.31-14.87 33.18-33.19 33.18-18.31 0-33.18-14.87-33.18-33.18 0-18.318 14.87-33.187 33.18-33.187" style="fill:#fdbb2f" transform="scale(-.7 .7)rotate(-15 1402.723 10010.763)"/><path d="m1888.47 932.047-16.53 40.088-40.04-16.657 16.66 40.037-40.09 16.535 40.09 16.53-16.66 40.04 40.04-16.66 16.53 40.09 16.53-40.09 40.04 16.66-16.66-40.04 40.09-16.53-40.09-16.535 16.66-40.037-40.04 16.657zm0 36.816c-23.83 0-43.18 19.35-43.18 43.187 0 23.83 19.35 43.18 43.18 43.18 23.84 0 43.19-19.35 43.19-43.18 0-23.837-19.35-43.187-43.19-43.187m0 10c18.32 0 33.19 14.869 33.19 33.187 0 18.31-14.87 33.18-33.19 33.18-18.31 0-33.18-14.87-33.18-33.18 0-18.318 14.87-33.187 33.18-33.187" style="fill:#fdbb2f" transform="scale(-.8 .8)rotate(-30 341.692 5332.138)"/><path d="m1888.47 932.047-16.53 40.088-40.04-16.657 16.66 40.037-40.09 16.535 40.09 16.53-16.66 40.04 40.04-16.66 16.53 40.09 16.53-40.09 40.04 16.66-16.66-40.04 40.09-16.53-40.09-16.535 16.66-40.037-40.04 16.657zm0 36.816c-23.83 0-43.18 19.35-43.18 43.187 0 23.83 19.35 43.18 43.18 43.18 23.84 0 43.19-19.35 43.19-43.18 0-23.837-19.35-43.187-43.19-43.187m0 10c18.32 0 33.19 14.869 33.19 33.187 0 18.31-14.87 33.18-33.19 33.18-18.31 0-33.18-14.87-33.18-33.18 0-18.318 14.87-33.187 33.18-33.187" style="fill:#fdbb2f" transform="scale(-.9 .9)rotate(-45 110.684 3722.676)"/><path d="m1888.47 932.047-16.53 40.088-40.04-16.657 16.66 40.037-40.09 16.535 40.09 16.53-16.66 40.04 40.04-16.66 16.53 40.09 16.53-40.09 40.04 16.66-16.66-40.04 40.09-16.53-40.09-16.535 16.66-40.037-40.04 16.657zm0 36.816c-23.83 0-43.18 19.35-43.18 43.187 0 23.83 19.35 43.18 43.18 43.18 23.84 0 43.19-19.35 43.19-43.18 0-23.837-19.35-43.187-43.19-43.187m0 10c18.32 0 33.19 14.869 33.19 33.187 0 18.31-14.87 33.18-33.19 33.18-18.31 0-33.18-14.87-33.18-33.18 0-18.318 14.87-33.187 33.18-33.187" style="fill:#fdbb2f" transform="scale(-1 1)rotate(-60 63.848 2884.856)"/><path d="m1888.47 932.047-16.53 40.088-40.04-16.657 16.66 40.037-40.09 16.535 40.09 16.53-16.66 40.04 40.04-16.66 16.53 40.09 16.53-40.09 40.04 16.66-16.66-40.04 40.09-16.53-40.09-16.535 16.66-40.037-40.04 16.657zm0 36.816c-23.83 0-43.18 19.35-43.18 43.187 0 23.83 19.35 43.18 43.18 43.18 23.84 0 43.19-19.35 43.19-43.18 0-23.837-19.35-43.187-43.19-43.187m0 10c18.32 0 33.19 14.869 33.19 33.187 0 18.31-14.87 33.18-33.19 33.18-18.31 0-33.18-14.87-33.18-33.18 0-18.318 14.87-33.187 33.18-33.187" style="fill:#fdbb2f" transform="rotate(-135 1286.785 710.884)scale(.3)"/><path d="m1888.47 932.047-16.53 40.088-40.04-16.657 16.66 40.037-40.09 16.535 40.09 16.53-16.66 40.04 40.04-16.66 16.53 40.09 16.53-40.09 40.04 16.66-16.66-40.04 40.09-16.53-40.09-16.535 16.66-40.037-40.04 16.657zm0 36.816c-23.83 0-43.18 19.35-43.18 43.187 0 23.83 19.35 43.18 43.18 43.18 23.84 0 43.19-19.35 43.19-43.18 0-23.837-19.35-43.187-43.19-43.187m0 10c18.32 0 33.19 14.869 33.19 33.187 0 18.31-14.87 33.18-33.19 33.18-18.31 0-33.18-14.87-33.18-33.18 0-18.318 14.87-33.187 33.18-33.187" style="fill:#fdbb2f" transform="rotate(-150 1319.607 771.381)scale(.4)"/><path d="m1888.47 932.047-16.53 40.088-40.04-16.657 16.66 40.037-40.09 16.535 40.09 16.53-16.66 40.04 40.04-16.66 16.53 40.09 16.53-40.09 40.04 16.66-16.66-40.04 40.09-16.53-40.09-16.535 16.66-40.037-40.04 16.657zm0 36.816c-23.83 0-43.18 19.35-43.18 43.187 0 23.83 19.35 43.18 43.18 43.18 23.84 0 43.19-19.35 43.19-43.18 0-23.837-19.35-43.187-43.19-43.187m0 10c18.32 0 33.19 14.869 33.19 33.187 0 18.31-14.87 33.18-33.19 33.18-18.31 0-33.18-14.87-33.18-33.18 0-18.318 14.87-33.187 33.18-33.187" style="fill:#fdbb2f" transform="rotate(-165 1370.706 806.192)scale(.5)"/><path d="m1888.47 932.047-16.53 40.088-40.04-16.657 16.66 40.037-40.09 16.535 40.09 16.53-16.66 40.04 40.04-16.66 16.53 40.09 16.53-40.09 40.04 16.66-16.66-40.04 40.09-16.53-40.09-16.535 16.66-40.037-40.04 16.657zm0 36.816c-23.83 0-43.18 19.35-43.18 43.187 0 23.83 19.35 43.18 43.18 43.18 23.84 0 43.19-19.35 43.19-43.18 0-23.837-19.35-43.187-43.19-43.187m0 10c18.32 0 33.19 14.869 33.19 33.187 0 18.31-14.87 33.18-33.19 33.18-18.31 0-33.18-14.87-33.18-33.18 0-18.318 14.87-33.187 33.18-33.187" style="fill:#fdbb2f" transform="matrix(.6 0 0 .6 607.572 416.772)"/><path d="m1888.47 932.047-16.53 40.088-40.04-16.657 16.66 40.037-40.09 16.535 40.09 16.53-16.66 40.04 40.04-16.66 16.53 40.09 16.53-40.09 40.04 16.66-16.66-40.04 40.09-16.53-40.09-16.535 16.66-40.037-40.04 16.657zm0 36.816c-23.83 0-43.18 19.35-43.18 43.187 0 23.83 19.35 43.18 43.18 43.18 23.84 0 43.19-19.35 43.19-43.18 0-23.837-19.35-43.187-43.19-43.187m0 10c18.32 0 33.19 14.869 33.19 33.187 0 18.31-14.87 33.18-33.19 33.18-18.31 0-33.18-14.87-33.18-33.18 0-18.318 14.87-33.187 33.18-33.187" style="fill:#fdbb2f" transform="rotate(-15 2006.531 -770.012)scale(.7)"/><path d="m1888.47 932.047-16.53 40.088-40.04-16.657 16.66 40.037-40.09 16.535 40.09 16.53-16.66 40.04 40.04-16.66 16.53 40.09 16.53-40.09 40.04 16.66-16.66-40.04 40.09-16.53-40.09-16.535 16.66-40.037-40.04 16.657zm0 36.816c-23.83 0-43.18 19.35-43.18 43.187 0 23.83 19.35 43.18 43.18 43.18 23.84 0 43.19-19.35 43.19-43.18 0-23.837-19.35-43.187-43.19-43.187m0 10c18.32 0 33.19 14.869 33.19 33.187 0 18.31-14.87 33.18-33.19 33.18-18.31 0-33.18-14.87-33.18-33.18 0-18.318 14.87-33.187 33.18-33.187" style="fill:#fdbb2f" transform="rotate(-30 1297.631 444.392)scale(.8)"/><path d="m1888.47 932.047-16.53 40.088-40.04-16.657 16.66 40.037-40.09 16.535 40.09 16.53-16.66 40.04 40.04-16.66 16.53 40.09 16.53-40.09 40.04 16.66-16.66-40.04 40.09-16.53-40.09-16.535 16.66-40.037-40.04 16.657zm0 36.816c-23.83 0-43.18 19.35-43.18 43.187 0 23.83 19.35 43.18 43.18 43.18 23.84 0 43.19-19.35 43.19-43.18 0-23.837-19.35-43.187-43.19-43.187m0 10c18.32 0 33.19 14.869 33.19 33.187 0 18.31-14.87 33.18-33.19 33.18-18.31 0-33.18-14.87-33.18-33.18 0-18.318 14.87-33.187 33.18-33.187" style="fill:#fdbb2f" transform="rotate(-45 1123.775 878.48)scale(.9)"/><path d="m1888.47 932.047-16.53 40.088-40.04-16.657 16.66 40.037-40.09 16.535 40.09 16.53-16.66 40.04 40.04-16.66 16.53 40.09 16.53-40.09 40.04 16.66-16.66-40.04 40.09-16.53-40.09-16.535 16.66-40.037-40.04 16.657zm0 36.816c-23.83 0-43.18 19.35-43.18 43.187 0 23.83 19.35 43.18 43.18 43.18 23.84 0 43.19-19.35 43.19-43.18 0-23.837-19.35-43.187-43.19-43.187m0 10c18.32 0 33.19 14.869 33.19 33.187 0 18.31-14.87 33.18-33.19 33.18-18.31 0-33.18-14.87-33.18-33.18 0-18.318 14.87-33.187 33.18-33.187" style="fill:#fdbb2f" transform="rotate(-60 1087.946 1111.423)"/><path d="M976.958 80.431 1024 0l47.04 80.433L1152 34.297l.52 93.179 93.18.524-46.13 80.957L1280 256l-80.43 47.043L1245.7 384l-93.18.524-.52 93.179-80.96-46.136L1024 512l-47.042-80.431c15.014 4.016 30.772 6.156 47.032 6.156 100.3 0 181.73-81.428 181.73-181.725s-81.43-181.725-181.73-181.725c-16.26 0-32.018 2.14-47.032 6.156m-128.53 222.621c16.734 62.51 66.003 111.779 128.527 128.516L896 477.703l-.524-93.179-93.179-.524zM1023.99 86.275c93.68 0 169.73 76.051 169.73 169.725s-76.05 169.725-169.73 169.725c-93.671 0-169.722-76.051-169.722-169.725S930.319 86.275 1023.99 86.275M848.425 208.962c-4.015 14.998-6.157 30.77-6.157 47.038s2.142 32.04 6.157 47.038L768 256zm128.53-128.53c-62.522 16.737-111.793 66.007-128.527 128.516L802.297 128l93.179-.524.524-93.179z" style="fill:#fdbb2f" transform="translate(12 3)scale(.98828)"/><circle cx="879.282" cy="1120.84" r="96.838" style="fill:#00529b" transform="matrix(.11344 0 0 .11344 779.325 128.847)"/><circle cx="879.282" cy="1120.84" r="96.838" style="fill:#00529b" transform="matrix(.11344 0 0 .11344 1069.155 128.847)"/><circle cx="879.282" cy="1120.84" r="96.838" style="fill:#00529b" transform="matrix(.11344 0 0 .11344 779.325 128.858)"/><circle cx="879.282" cy="1120.84" r="96.838" style="fill:#00529b" transform="matrix(.11344 0 0 .11344 1069.155 128.858)"/><circle cx="879.282" cy="1120.84" r="96.838" style="fill:#00529b" transform="scale(-.11344)rotate(-30 -9737.182 20299.894)"/><circle cx="879.282" cy="1120.84" r="96.838" style="fill:#00529b" transform="matrix(-.09825 .05672 -.05672 -.09825 1048.453 388.7)"/><circle cx="879.282" cy="1120.84" r="96.838" style="fill:#00529b" transform="scale(-.11344)rotate(-60 -6359.772 9116.907)"/><circle cx="879.282" cy="1120.84" r="96.838" style="fill:#00529b" transform="scale(-.11344)rotate(-60 -7637.176 6904.379)"/><circle cx="879.282" cy="1120.84" r="96.838" style="fill:#00529b" transform="matrix(0 .11344 -.11344 0 1151.144 11.334)"/><circle cx="879.282" cy="1120.84" r="96.838" style="fill:#00529b" transform="matrix(0 .11344 -.11344 0 1151.144 301.164)"/><circle cx="879.282" cy="1120.84" r="96.838" style="fill:#00529b" transform="scale(.11344)rotate(60 4607.914 7638.01)"/><circle cx="879.282" cy="1120.84" r="96.838" style="fill:#00529b" transform="scale(.11344)rotate(60 3330.51 9850.539)"/><circle cx="879.282" cy="1120.84" r="96.838" style="fill:#00529b" transform="scale(.11344)rotate(30 3472.146 14507.631)"/><circle cx="879.282" cy="1120.84" r="96.838" style="fill:#00529b" transform="scale(.11344)rotate(30 2194.743 19274.963)"/><path d="M1057.2 876.915c0-81.185-.98-147.096-2.19-147.096h-28.85c-1.21 0-2.19 65.911-2.19 147.096 0 81.184.98 147.095 2.19 147.095h28.85c1.21 0 2.19-65.911 2.19-147.095" style="fill:#00529b" transform="matrix(0 5.02263 -.07468 0 1089.485 -5042.925)"/></svg>
