<svg viewBox="0 0 2048 2048" xmlns="http://www.w3.org/2000/svg" fill-rule="evenodd" clip-rule="evenodd" stroke-linejoin="round" stroke-miterlimit="2"><path fill="#00529b" fill-rule="nonzero" d="M485.207 1587.735h10.153v54.768h-10.153zM505.958 1642.503h10.154v-39.872l22.974 39.872h11.265v-54.768h-10.153v40.02l-22.826-40.02h-11.414v54.768zM566.36 1642.503h10.153v-44.912h10.227v-9.856h-30.46v9.856h10.08v44.912zM591.928 1642.503h29.422v-9.857h-19.269v-12.599h18.454v-9.857h-18.454v-12.599h19.27v-9.856h-29.423v54.768zM630.466 1642.503h10.153v-20.973l14.378 20.973h12.525l-14.823-20.232c3.706-.816 7.04-2.372 9.709-5.262 2.668-2.965 4.52-7.93 4.52-11.932 0-5.114-2.445-10.228-6.373-13.489-4.15-3.483-9.041-3.78-14.23-3.853h-15.86v54.768zm10.153-28.681v-16.23h5.633c2.816-.075 5.187.074 7.559 1.852 1.927 1.408 2.964 3.78 2.964 6.152 0 2.297-.889 4.372-2.52 5.928-2 1.927-5.41 2.298-8.078 2.298h-5.558zM673.451 1642.503h10.153v-39.872l22.975 39.872h11.265v-54.768h-10.153v40.02l-22.827-40.02h-11.413v54.768zM723.773 1642.503h11.19l6.078-14.155h19.417l5.929 14.155h11.19l-23.048-54.768h-7.93l-22.826 54.768zm20.973-24.012l5.855-16.601 5.855 16.601h-11.71zM788.694 1642.503h10.154v-44.912h10.227v-9.856h-30.46v9.856h10.08v44.912zM814.263 1587.735h10.154v54.768h-10.154zM860.73 1586.697c-15.785 0-28.532 12.747-28.532 28.681 0 15.86 12.97 28.46 28.533 28.46s28.533-12.6 28.533-28.46c0-15.934-12.748-28.681-28.533-28.681zm0 9.857c10.228 0 18.38 8.3 18.38 18.602 0 10.153-8.374 18.824-18.38 18.824-10.004 0-18.38-8.67-18.38-18.824 0-10.302 8.153-18.602 18.38-18.602zM897.268 1642.503h10.153v-39.872l22.974 39.872h11.265v-54.768h-10.153v40.02l-22.826-40.02h-11.413v54.768zM947.59 1642.503h11.19l6.078-14.155h19.417l5.93 14.155h11.19l-23.049-54.768h-7.93l-22.826 54.768zm20.974-24.012l5.854-16.601 5.855 16.601h-11.71zM1006.953 1642.503h26.903v-9.857h-16.75v-44.911h-10.153v54.768zM1055.793 1642.503h11.19l6.078-14.155h19.417l5.929 14.155h11.19l-23.048-54.768h-7.93l-22.826 54.768zm20.973-24.012l5.855-16.601 5.855 16.601h-11.71zM1115.156 1642.503h26.902v-9.857h-16.749v-44.911h-10.153v54.768zM1147.765 1642.503h26.903v-9.857h-16.75v-44.911h-10.153v54.768zM1180.376 1587.735h10.153v54.768h-10.153zM1196.601 1642.503h11.191l6.077-14.155h19.418l5.928 14.155h11.191l-23.048-54.768h-7.93l-22.827 54.768zm20.974-24.012l5.855-16.601 5.855 16.601h-11.71zM1255.967 1642.503h10.153v-39.872l22.975 39.872h11.265v-54.768h-10.153v40.02l-22.827-40.02h-11.413v54.768zM1350.017 1627.607c-3.705 3.928-8.374 6.373-13.785 6.373-9.782 0-18.083-8.819-18.083-18.528 0-10.227 8.004-18.898 18.01-18.898 5.484 0 10.968 2.668 14.377 6.818h11.561c-4.224-10.301-15.044-16.675-26.013-16.675-15.267 0-28.088 12.895-28.088 28.385 0 15.637 12.673 28.755 28.385 28.755 10.598 0 21.27-6.3 25.42-16.23h-11.784zM1368.615 1642.503h29.422v-9.857h-19.269v-12.599h18.454v-9.857h-18.454v-12.599h19.27v-9.856h-29.423v54.768zM1427.905 1642.503h10.153v-22.456h16.898v-9.857h-16.898v-12.599h17.713v-9.856h-27.866v54.768zM1489.2 1586.697c-15.787 0-28.534 12.747-28.534 28.681 0 15.86 12.97 28.46 28.533 28.46 15.564 0 28.533-12.6 28.533-28.46 0-15.934-12.747-28.681-28.533-28.681zm0 9.857c10.226 0 18.379 8.3 18.379 18.602 0 10.153-8.375 18.824-18.38 18.824-10.005 0-18.38-8.67-18.38-18.824 0-10.302 8.153-18.602 18.38-18.602zM1525.739 1642.503h10.153v-20.973l14.378 20.973h12.524l-14.822-20.232c3.706-.816 7.04-2.372 9.709-5.262 2.668-2.965 4.52-7.93 4.52-11.932 0-5.114-2.445-10.228-6.373-13.489-4.15-3.483-9.042-3.78-14.23-3.853h-15.86v54.768zm10.153-28.681v-16.23h5.632c2.817-.075 5.188.074 7.56 1.852 1.927 1.408 2.964 3.78 2.964 6.152 0 2.297-.89 4.372-2.52 5.928-2 1.927-5.41 2.298-8.078 2.298h-5.558z"/><g><path d="M671.65 1804.414h23.048V1713.9l52.154 90.513h25.573v-124.33h-23.05v90.85l-51.817-90.85H671.65v124.33zM785.884 1804.414h25.404l13.795-32.134h44.08l13.458 32.134h25.404l-52.322-124.33h-18.002l-51.817 124.33zm47.611-54.51l13.291-37.686 13.291 37.686h-26.582zM933.262 1804.414h23.049V1702.46h23.217v-22.376h-69.146v22.376h22.88v101.953zM991.304 1680.085v77.558c0 12.954 1.01 24.395 10.094 34.657 7.74 8.749 20.02 15.142 31.797 15.142 12.618 0 24.9-6.561 32.975-16.151 8.076-9.758 9.085-21.366 9.085-33.648v-77.558h-23.049v77.558c0 6.561.169 12.954-3.364 18.675-3.365 5.383-9.59 8.748-15.647 8.748-7.234 0-13.122-4.206-16.487-10.599-2.692-5.215-2.355-11.104-2.355-16.824v-77.558h-23.05zM1098.977 1804.414h23.049v-47.612l32.638 47.612h28.433l-33.648-45.93c8.412-1.85 15.983-5.383 22.04-11.945 6.056-6.73 10.262-18.001 10.262-27.086 0-11.609-5.552-23.217-14.469-30.62-9.421-7.907-20.525-8.58-32.302-8.748h-36.003v124.329zm23.049-65.109v-36.844h12.786c6.393-.169 11.777.168 17.16 4.206 4.375 3.196 6.73 8.58 6.73 13.963 0 5.216-2.019 9.927-5.72 13.46-4.543 4.374-12.282 5.215-18.338 5.215h-12.618zM1186.295 1804.414h25.404l13.795-32.134h44.079l13.46 32.134h25.403l-52.322-124.33h-18.002l-51.817 124.33zm47.611-54.51l13.291-37.686 13.291 37.686h-26.582zM1321.052 1804.414h61.071v-22.376h-38.022v-101.953h-23.049v124.329z" fill="#00529b" fill-rule="nonzero"/></g><g><path d="M867.648 1966.315h23.049v-101.953h23.217v-22.376h-69.146v22.376h22.88v101.953zM925.691 1841.986h23.049v124.33H925.69zM972.798 1966.315h23.048v-93.204l32.134 93.204h19.516l32.133-93.204v93.204h23.05v-124.329h-31.293l-33.816 95.056-33.312-95.056h-31.46v124.33zM1124.213 1966.315h66.79v-22.376h-43.741v-28.6h41.891v-22.376h-41.891v-28.6h43.742v-22.377h-66.791v124.33z" fill="#00529b" fill-rule="nonzero"/></g><g><path d="M1100.91 1326.66c-23.35 5.94-47.75 9.23-72.85 9.56v195.76c42.63-.34 84.03-5.93 123.53-16.17l-50.68-189.15zm-153.82.05l-50.67 189.1c39.544 10.24 80.918 15.83 123.54 16.17v-195.76c-25.114-.31-49.514-3.6-72.87-9.51zm229.5-30.34a310.21 310.21 0 01-67.85 28.19l50.68 189.15a504.506 504.506 0 00115.07-47.75l-97.9-169.59zm-305.208.08l-97.863 169.51c35.86 20.38 74.445 36.53 115.076 47.75l50.67-189.1a310.342 310.342 0 01-67.883-28.16zm370.428-48.92a313.48 313.48 0 01-58.22 44.78l97.91 169.59a510.74 510.74 0 0098.77-75.91l-138.46-138.46zm-435.697.09l-138.367 138.37a510.755 510.755 0 0098.763 75.91l97.863-169.51a313.96 313.96 0 01-58.259-44.77zm486.147-64.07a313.232 313.232 0 01-44.73 58.25l138.46 138.46a510.188 510.188 0 0075.91-98.76l-169.64-97.95zm-536.649.08l-169.503 97.87c21.229 36 46.769 69.15 75.911 98.76l138.366-138.37a313.38 313.38 0 01-44.774-58.26zm243.793-52.17l-50.243 187.52c22.703 5.74 46.407 8.93 70.799 9.24v-194.07c-7.04-.25-13.92-1.17-20.556-2.69zm49.206 0c-6.64 1.52-13.52 2.44-20.55 2.69v194.07c24.39-.33 48.1-3.53 70.78-9.29l-50.23-187.47zm-76.175-10.04l-97.052 168.1a301.818 301.818 0 0065.953 27.36l50.244-187.51a109.283 109.283 0 01-19.145-7.95zm103.145 0a108.51 108.51 0 01-19.15 7.95l50.23 187.46c23.22-6.55 45.31-15.8 65.93-27.39l-97.01-168.02zm-126.584-16.68l-137.227 137.22a305.857 305.857 0 0056.603 43.51l97.053-168.1c-5.871-3.7-11.37-7.93-16.429-12.63zm150.024 0c-5.06 4.7-10.56 8.93-16.43 12.63l97 168.01a305.564 305.564 0 0056.56-43.51l-137.13-137.13zm225.43 3.95a310.607 310.607 0 01-28.13 67.85l169.64 97.95a504.423 504.423 0 0047.76-115.08l-189.27-50.72zm-601.057.05l-189.102 50.67c11.222 40.63 27.37 79.21 47.758 115.08l169.504-97.87a309.897 309.897 0 01-28.16-67.88zm207.247-26.16l-168.1 97.05a305.675 305.675 0 0043.502 56.61l137.227-137.23a111.033 111.033 0 01-12.629-16.43zm186.73 0c-3.69 5.87-7.92 11.37-12.63 16.43l137.14 137.13a305.461 305.461 0 0043.45-56.59l-167.96-96.97zm-198.734-26.15l-187.513 50.24a302.425 302.425 0 0027.359 65.95l168.1-97.05a109.55 109.55 0 01-7.946-19.14zm210.744 0c-2.06 6.67-4.73 13.08-7.95 19.14l167.96 96.97a302.595 302.595 0 0027.33-65.92l-187.34-50.19zm402.6-28.38h-195.94c-.31 25.09-3.59 49.48-9.5 72.82l189.28 50.72c10.24-39.55 15.83-80.92 16.16-123.54zm-820.196 0H516.029c.332 42.64 5.929 84.03 16.168 123.54l189.103-50.67c-5.922-23.37-9.204-47.77-9.516-72.87zm338.266-102.922a102.117 102.117 0 00-26.04-3.354c-9 0-17.73 1.165-26.05 3.354l-.46.142c-.125.033-.25.06-.375.081a101.708 101.708 0 00-24.116 10.05l-.208.121a102.83 102.83 0 00-37.27 37.267l-.127.22a101.629 101.629 0 00-10.046 24.109l-.108.472a3.977 3.977 0 01-.116.365A102.185 102.185 0 00921.78 1024c0 9 1.165 17.73 3.354 26.05l.142.46c.034.12.061.25.082.37a101.743 101.743 0 0010.046 24.11l.127.22a102.853 102.853 0 0037.27 37.27l.208.12a101.714 101.714 0 0024.116 10.05l.472.11c.124.03.245.07.363.11a102.21 102.21 0 0026.05 3.36c9 0 17.73-1.17 26.04-3.36l.46-.14c.13-.03.25-.06.38-.08a101.67 101.67 0 0024.11-10.05l.21-.12a102.769 102.769 0 0037.27-37.27l.13-.22c4.32-7.49 7.72-15.58 10.04-24.11l.11-.47c.04-.12.08-.25.12-.36 2.19-8.32 3.35-17.05 3.35-26.05s-1.16-17.73-3.35-26.045l-.14-.461c-.04-.126-.06-.251-.09-.376a101.533 101.533 0 00-10.04-24.109l-.13-.22a102.737 102.737 0 00-37.27-37.267l-.21-.121a101.547 101.547 0 00-24.11-10.05l-.47-.107a3.718 3.718 0 01-.37-.116zM913.854 1028.05H719.785c.313 24.39 3.503 48.1 9.245 70.8l187.511-50.25a110.016 110.016 0 01-2.687-20.55zm414.186 0h-193.88c-.26 7.04-1.17 13.91-2.69 20.55l187.34 50.2c5.74-22.69 8.92-46.37 9.23-70.75zm-598.966-78.884c-5.757 22.691-8.961 46.393-9.287 70.784h194.067c.255-7.04 1.171-13.91 2.687-20.552l-187.467-50.232zm-196.877-52.753c-10.243 39.544-15.835 80.918-16.168 123.537h195.757c.327-25.112 3.625-49.513 9.559-72.855l-189.148-50.682zm983.623 0l-189.33 50.729c5.93 23.341 9.22 47.72 9.55 72.808h195.94c-.33-42.638-5.92-84.033-16.16-123.537zm-197.06 52.8l-187.29 50.185a110.311 110.311 0 012.69 20.552h193.88c-.33-24.378-3.52-48.068-9.28-70.737zm-560.199-73.791a302.275 302.275 0 00-27.389 65.92l187.464 50.231a109.53 109.53 0 017.946-19.145l-168.021-97.006zm530.749.081l-167.88 96.925a110.182 110.182 0 017.95 19.145l187.29-50.184a301.962 301.962 0 00-27.36-65.886zm-483.176-63.648a305.678 305.678 0 00-43.511 56.559l168.017 97.005a110.786 110.786 0 0112.629-16.429L806.134 811.855zm435.646.095l-137.04 137.04a109.85 109.85 0 0112.63 16.429l167.88-96.925a305.316 305.316 0 00-43.47-56.544zm-373.327-49.277a305.73 305.73 0 00-56.589 43.457l137.132 137.132a110.707 110.707 0 0116.429-12.628l-96.972-167.961zm311.057.083l-96.92 167.878a110.824 110.824 0 0116.43 12.628l137.04-137.04a305.659 305.659 0 00-56.55-43.466zm286.45 10.757l-169.72 97.99a310.824 310.824 0 0128.16 67.815l189.32-50.73a504.572 504.572 0 00-47.76-115.075zm-883.911 0a504.829 504.829 0 00-47.758 115.075l189.151 50.683a310.128 310.128 0 0128.19-67.85l-169.583-97.908zm359.333-42.223a302.484 302.484 0 00-65.918 27.327l96.971 167.958a109.517 109.517 0 0119.145-7.946L941.382 731.29zm165.238.049l-50.19 187.29a109.637 109.637 0 0119.15 7.946l96.92-167.879a302.29 302.29 0 00-65.88-27.357zm-86.66-11.373c-24.38.312-48.07 3.498-70.752 9.233l50.196 187.336a110.146 110.146 0 0120.556-2.688V719.966zm8.1.002v193.879c7.04.255 13.91 1.172 20.55 2.688l50.18-187.292c-22.67-5.75-46.36-8.949-70.73-9.275zm357.93-52.228l-138.55 138.553a313.444 313.444 0 0144.74 58.201l169.72-97.991a509.905 509.905 0 00-75.91-98.763zm-723.971 0a510.532 510.532 0 00-75.911 98.763l169.586 97.91a313.734 313.734 0 0144.784-58.214L662.019 667.74zm619.481-81.638l-97.99 169.725a313.551 313.551 0 0158.2 44.739l138.56-138.554a510.582 510.582 0 00-98.77-75.91zm-514.991 0a510.645 510.645 0 00-98.763 75.91l138.462 138.462a313.55 313.55 0 0158.244-44.73l-97.943-169.642zm392.911-51.817l-50.73 189.325a310.018 310.018 0 0167.81 28.157l97.99-169.724a504.791 504.791 0 00-115.07-47.758zm-270.825 0a504.754 504.754 0 00-115.076 47.758l97.945 169.645a310.142 310.142 0 0167.847-28.127l-50.716-189.276zm139.465-18.262v195.944c25.09.326 49.48 3.62 72.81 9.547l50.72-189.323c-39.54-10.242-80.92-15.835-123.53-16.168zm-8.1 0c-42.642.332-84.037 5.929-123.54 16.168l50.717 189.278c23.326-5.91 47.719-9.192 72.823-9.504V516.023z" fill="#00529b"/><g fill="#7ac142" fill-rule="nonzero"><path d="M902.614 627.544c.85 2.67 2.306 4.37 4.127 4.855 1.7.364 3.398 2.064 4.127 4.127.97 2.67 2.427 3.763 8.375 5.463 5.705 1.82 8.618 3.641 13.838 8.861 4.977 4.977 7.283 6.555 10.075 6.555 4.49 0 10.439 5.34 10.439 9.347 0 1.578.85 3.156 1.82 3.52 2.064.85 2.67 13.11.729 14.324-4.006 2.549-.85 17.722 3.52 17.722 1.456 0 2.549 1.457 3.277 4.491.971 4.249 1.457 4.613 7.89 6.191 6.797 1.7 6.919 1.821 10.682 9.347 5.098 10.196 8.496 13.353 15.051 13.474 2.792.121 6.798 1.092 8.861 2.185 5.34 2.67 15.658 2.67 17.236-.243.972-1.82 2.914-2.063 14.202-1.7 9.104.122 14.202.85 16.751 2.186 2.064 1.092 8.011 2.306 13.23 2.67 8.498.486 9.59.85 10.561 3.399.728 1.942 2.185 2.913 5.098 3.156 3.642.364 4.37 1.093 8.497 9.468 2.428 4.977 5.34 9.226 6.433 9.468 1.214.243 1.821 1.821 1.821 4.613 0 3.52.607 4.491 4.249 6.19 4.248 2.064 8.132 8.984 5.462 9.833-.729.243-2.064 1.214-2.913 2.185-.971.971-2.307 1.7-3.035 1.7-.728 0-1.335.97-1.335 2.306 0 1.214-.85 2.913-1.82 3.763-1.093.85-1.822 3.52-1.822 6.555 0 4.613-.364 5.34-4.248 7.162-2.306 1.092-4.248 2.549-4.248 3.277 0 .728-1.943 2.185-4.249 3.156-2.428.971-4.612 2.428-4.977 3.278-.364.97-4.976 3.763-10.317 6.312-6.433 3.156-9.468 5.34-8.983 6.433.365 1.093-.12 1.457-1.699.85-1.214-.364-2.913.121-3.763 1.214-1.7 2.063-4.976 2.428-6.676.728-.728-.728-4.612-.485-10.317.607-4.977 1.093-10.318 2.185-11.775 2.428-1.456.243-3.641 2.185-4.855 4.127-1.942 3.399-2.549 3.642-9.71 3.642-6.312 0-7.769.364-8.861 2.427-2.792 5.22-10.925 1.214-10.925-5.34 0-4.37-1.578-5.584-6.797-5.584-2.064 0-2.67-.486-2.185-1.821.607-1.578-1.821-1.821-17.722-1.821-17.722 0-18.329.121-17.6 2.428.485 1.335-.122 3.884-1.457 6.069-1.942 3.277-2.67 3.642-8.376 3.642-6.069 0-6.433.242-11.895 6.555-5.827 6.919-9.71 15.416-8.618 18.936.364 1.214 1.699 3.035 3.034 4.248 2.064 1.821 2.913 1.943 6.07.607 2.063-.85 4.976-3.156 6.675-4.976 3.642-4.492 8.133-6.191 12.017-4.856 2.185.971 2.913 2.306 3.642 6.92.85 6.311-.971 10.681-5.22 12.016-1.214.365-2.549 1.7-2.913 2.914-.364 1.7-2.185 2.549-7.04 3.156-3.642.485-7.162 1.335-7.769 1.82-.728.486-2.791 1.214-4.612 1.7-2.792.728-3.399 1.335-3.035 4.006.364 3.763 3.156 4.855 12.017 5.098 3.399.121 6.19.85 7.162 1.942 2.549 3.156 3.641 2.064 3.641-3.641v-5.463h6.07c5.462 0 8.132-1.578 4.733-2.67-.607-.243-1.578-2.792-1.942-5.706-.607-4.248-.243-5.705 1.457-6.919 1.578-1.092 1.942-2.427 1.335-4.734-.728-3.034-.607-3.156 3.156-2.792 4.37.365 4.248 1.093 2.67-11.531-.607-4.613-.364-5.706 1.093-5.706.97 0 2.185.85 2.549 1.943.364.97 1.214 1.456 1.942 1.092 2.55-1.578 5.948.85 8.375 5.948 4.127 8.254 6.677 10.44 12.867 10.44 7.526 0 7.162-2.793-.607-6.191-6.676-2.914-10.196-5.948-7.647-6.798.85-.364 1.578-1.942 1.578-3.642 0-2.185.607-2.913 2.063-2.549 1.214.243 2.185 1.457 2.185 2.792 0 1.578 1.336 2.792 4.249 3.642 2.306.728 6.919 2.549 10.196 4.006 3.399 1.578 6.312 2.306 6.676 1.578.364-.607 3.277-1.457 6.433-1.943 3.156-.485 6.312-1.578 7.04-2.549.85-.85 3.885-1.942 6.798-2.428 4.491-.606 5.34-1.213 5.34-3.52 0-4.491 2.55-10.803 5.342-12.988 3.398-2.792 16.508-3.156 16.508-.364 0 1.092 1.092 1.82 2.913 1.82 2.67 0 2.792.365 2.67 7.526-.121 4.613-.85 7.648-1.699 8.012-.85.243-1.457 2.306-1.457 4.613 0 4.491-.121 4.612-8.375 3.034-8.375-1.699-11.046-.121-11.046 6.191 0 4.249.486 5.463 2.67 6.434 3.157 1.456 4.37 4.248 1.7 4.248-1.093 0-1.942.729-1.942 1.7 0 1.942-2.55 3.156-6.798 3.156-4.005 0-11.531 5.705-10.56 8.011.364 1.093-.85 3.4-2.792 5.463-4.37 4.612-4.612 11.896-.728 18.693 3.763 6.191 3.52 13.474-.364 17.116-2.306 2.063-3.035 4.006-3.035 7.647 0 2.67-.485 5.098-1.092 5.463-.486.364-1.335 2.306-1.7 4.37-.485 2.306-1.942 4.127-3.762 4.976-1.7.85-3.156 2.55-3.4 4.006-.363 2.428-1.092 2.55-13.715 2.67-10.197.122-13.353.486-13.717 1.821-.485 2.064-2.549 6.92-4.005 9.833-.607 1.214-1.093 4.491-1.093 7.526 0 3.156-.728 5.826-1.82 6.798-2.064 1.699-1.214 4.127 1.213 3.156.85-.243 2.67.728 4.127 2.185 2.064 2.184 2.55 4.248 2.55 10.803 0 4.613.485 8.133 1.213 8.133.607 0 1.214.971 1.214 2.063 0 3.4 4.127 11.168 5.948 11.29.97 0 2.306-.85 3.034-1.821 1.093-1.457 2.428-1.578 6.798-.729 5.34.971 5.34.971 2.185 2.307-1.7.728-3.52 1.942-4.006 2.549-.364.728-1.82 1.335-3.156 1.335-1.7 0-3.035 1.457-4.248 4.37-1.093 2.55-2.67 5.22-3.642 6.19-2.427 2.55-2.063 6.191.728 7.648 2.792 1.457 3.156 6.07.972 9.711-1.336 2.064-1.093 2.792.97 4.856 3.157 3.156 5.584 2.306 8.497-3.156 2.428-4.492 3.4-4.735 8.376-2.914 3.763 1.457 3.399 4.249-.607 4.249-1.578 0-3.763 1.335-5.22 3.399l-2.549 3.277 7.769 7.89c5.705 5.827 8.74 7.89 11.046 7.89 1.82 0 3.884.85 4.734 1.821.97 1.214 3.763 1.821 8.011 1.821 5.826 0 6.555.243 6.555 2.428 0 1.578 1.213 3.034 3.277 3.884 6.676 2.792 8.861 5.827 8.861 12.139 0 4.248-.486 5.826-1.82 5.826-.85 0-2.186-.728-2.671-1.578-.486-.97-3.035-2.063-5.462-2.427-4.492-.729-4.492-.607-4.37 3.156.485 9.59-.364 12.26-5.22 16.508l-4.734 4.127-10.56-1.942c-9.71-1.82-10.803-1.82-12.745 0-1.214 1.093-2.185 2.67-2.185 3.52 0 .972-1.578 2.428-3.52 3.4-1.942 1.092-3.763 2.67-4.127 3.762-.486 1.093-2.306 1.821-5.098 1.821-3.642 0-4.249-.364-4.249-2.792 0-5.22 3.642-15.173 5.827-16.023 1.578-.607-.122-1.942-6.676-5.34-4.856-2.55-10.56-5.949-12.746-7.648-3.156-2.428-4.976-2.914-8.86-2.428-6.677.728-8.74 2.428-5.584 4.734 1.335.85 2.185 2.428 1.82 3.278-.364 1.092.365 2.063 1.821 2.549 2.792.85 3.278 3.034 1.457 6.433-.607 1.093-1.457 3.035-1.82 4.249-.365 1.214-2.55 2.913-4.856 3.884-2.428.971-4.855 2.913-5.584 4.37-1.82 3.277-3.034 1.942-3.034-3.52v-4.492l-13.96.365-13.958.485-2.792-3.763c-3.763-5.22-6.92-4.855-9.954 1.093-3.763 7.283-7.04 8.982-16.508 8.133-8.982-.729-12.624-2.67-7.04-3.885 5.705-1.214 7.162-2.428 6.798-5.826-.243-2.307.242-3.278 2.427-3.885 4.127-1.335 4.491-2.67 2.306-9.71-3.52-11.411-8.496-14.324-8.375-4.856.121 7.404-1.578 8.982-5.826 5.584-1.821-1.336-4.37-2.55-5.584-2.55-2.185 0-2.306.486-1.457 4.492 1.821 8.982 1.457 10.318-3.156 12.017-5.826 2.064-13.23 2.064-17.357-.121-1.942-.971-6.19-2.064-9.468-2.55-5.341-.728-6.676-1.577-11.41-6.918-2.913-3.278-5.705-7.526-6.07-9.226-.97-4.006-2.548-4.977-8.253-4.977-5.584 0-6.555-1.82-4.492-9.225.85-2.913 1.214-5.827.729-6.19-1.578-1.7-9.347 3.64-10.075 6.797-.728 4.006-7.769 7.404-15.173 7.404-4.855 0-5.826-.485-9.346-4.855-3.763-4.734-3.763-4.977-2.307-9.954.729-2.913 2.185-5.705 3.035-6.19.971-.607 1.214-2.186.728-4.492-.485-2.792 0-4.127 2.064-5.826 4.734-3.885 2.549-6.313-5.705-6.313-6.19 0-7.647.486-11.046 3.52-2.306 2.186-3.884 4.856-3.884 6.434 0 4.856-4.492 12.26-8.497 13.838-3.278 1.457-3.763 1.336-5.341-1.092-4.613-7.405-2.67-14.93 4.855-18.451 2.67-1.214 4.37-3.277 5.341-6.07 2.306-7.04 3.884-7.89 15.173-7.89 9.59 0 10.439-.242 13.352-3.277 3.52-3.884 3.884-6.433 1.093-6.433-1.578 0-1.821-.729-1.093-3.278.971-4.006.243-3.399 5.705-5.584 3.277-1.335 4.613-2.792 5.22-5.584.485-2.063 3.156-7.04 6.19-11.046 2.913-4.006 5.341-7.647 5.341-8.254 0-.486-2.67-3.156-5.826-5.948-4.492-3.763-6.555-6.798-8.497-12.26-1.457-3.885-2.67-8.133-2.67-9.226 0-4.005-3.642-9.225-7.04-9.953-9.469-2.185-22.578-14.567-21.243-19.908.486-1.942 1.7-2.427 6.312-2.427 3.763-.122 7.162-1.093 10.439-3.035 2.67-1.7 6.312-3.035 8.011-3.035 1.7 0 4.127-1.092 5.341-2.428 2.67-3.034 11.289-3.398 12.26-.606 1.092 2.67 6.554 2.427 6.554-.365 0-1.214.85-3.398 1.943-4.855 1.578-2.306 2.913-2.67 10.196-2.67 7.768 0 8.497-.243 11.41-3.764 1.7-2.063 4.005-6.555 4.976-10.196 2.307-7.769 9.832-16.873 15.78-18.815 3.035-.971 4.491-2.428 5.462-5.463 1.093-3.277 2.428-4.49 7.04-6.19 7.162-2.67 8.74-3.885 8.74-6.677 0-1.82-.85-2.306-4.005-2.306-2.185 0-4.492.486-5.098 1.093-.729.606-4.006 1.942-7.283 2.913-5.948 1.7-6.07 1.82-5.948 6.312.243 5.705-2.428 8.497-8.74 9.468-4.127.728-5.22.364-8.74-2.913-3.884-3.642-3.884-3.642-3.884-15.538 0-9.104.486-12.26 1.821-13.474 1.093-.97 1.82-3.52 1.82-6.676 0-3.52.608-5.462 1.822-5.948.97-.364 1.82-1.942 1.82-3.641 0-1.579.85-3.157 1.821-3.642 1.335-.486 1.7-1.578 1.093-3.642-.365-1.7-.243-3.763.242-4.612.607-.85 1.093-3.4 1.214-5.584 0-2.185.728-4.613 1.457-5.341 2.185-2.185 17.115-1.214 22.334 1.456 3.035 1.578 7.04 2.428 11.41 2.428 3.884 0 8.376.85 10.56 1.942 7.284 3.763 8.133 4.127 10.56 4.127 1.336 0 5.827 1.7 9.954 3.763 6.92 3.52 7.283 3.52 6.676 1.214-.485-1.942 0-2.67 2.428-3.277 2.67-.728 2.306-1.093-4.127-4.37-4.006-2.064-9.953-3.884-13.716-4.249-3.642-.364-8.012-1.699-9.71-2.791-1.7-1.214-6.556-3.885-10.804-6.07-7.526-3.763-8.375-3.884-18.814-3.399-12.139.607-20.15 3.885-20.15 8.255 0 1.335-.607 2.67-1.214 3.034-.728.364-1.214 1.578-1.214 2.67 0 1.093-2.185 4.856-4.855 8.498-3.763 4.855-5.705 6.433-8.133 6.433-3.034 0-3.034-.12-2.549-6.554.486-5.22.122-6.798-1.578-7.77-2.063-1.334-4.734-12.866-4.734-20.27 0-1.943 2.914-8.498 6.555-15.053 5.705-10.075 6.676-12.867 7.404-20.393.972-10.075 2.307-8.133-16.75-23.792-12.624-10.318-12.988-10.682-12.988-15.537 0-4.492.607-5.584 5.462-9.833 3.034-2.67 5.462-5.826 5.462-7.161 0-1.336 1.7-3.278 3.884-4.735 8.254-4.855 8.497-6.19 1.578-8.982-6.676-2.792-6.918-11.41-.485-17.237 1.214-1.093 2.306-3.035 2.306-4.249 0-1.214 5.584-10.196 12.381-20.029 11.167-16.023 14.08-19.3 27.069-30.468 8.375-7.161 15.658-12.503 17.115-12.503 1.456 0 4.612-1.699 7.161-3.641 3.642-2.913 5.705-3.642 10.44-3.642 3.155 0 6.19-.607 6.554-1.214.364-.728 2.063-1.213 3.641-1.213 2.185 0 3.156.97 4.249 4.127zm89.823 287.808c-2.67 2.914-2.792 3.763-2.549 17.116.364 15.173.728 17.48 3.156 17.48 2.55 0 5.098-5.099 5.705-11.654.607-6.797 6.676-19.907 9.104-19.907 1.214 0 1.335-.607.364-2.306-1.093-2.185-3.035-2.792-11.046-3.52-.971-.122-3.156 1.092-4.734 2.791zm-103.175.607c-1.336.85-1.457 1.821-.486 4.492.971 2.913 1.7 3.398 5.098 3.034 3.156-.364 4.127.122 5.22 2.67 1.699 3.764 4.976 4.978 8.254 3.278 3.52-1.942 3.762-1.7 3.762 3.035 0 3.763.365 4.248 2.67 3.884 2.429-.364 2.793-1.214 3.157-6.19.364-5.342.121-5.948-3.277-7.89-2.064-1.093-3.763-2.793-3.763-3.642 0-.85-1.457-1.457-3.4-1.457-1.82 0-4.126.728-4.976 1.457-1.214 1.335-1.82 1.214-2.913-.364-2.428-3.278-6.312-4.249-9.346-2.307zM1319.686 630.821c.364.728 2.063 1.7 3.641 2.306 1.7.729 3.277 2.185 3.642 3.278.364 1.214 1.456 3.642 2.427 5.462 1.821 3.278 1.821 3.4-1.578 3.4-7.161-.122-16.386-12.868-10.803-14.931.971-.365 2.185-.243 2.67.485zM1067.937 667.723c1.7 3.884.85 4.734-3.156 2.913-3.52-1.7-3.763-2.428-1.699-4.491 2.185-2.185 3.277-1.821 4.855 1.578zM1108.115 704.503c1.82 1.942 1.82 2.306-.485 3.642-3.035 1.942-4.734.97-4.734-2.914 0-3.398 2.427-3.763 5.22-.728zM770.063 745.532c1.821 1.214 2.67 3.035 2.67 5.948 0 2.913.73 4.613 2.429 5.462 2.791 1.457 3.155 4.249.85 5.705-2.064 1.214-4.492 10.561-4.613 17.602 0 2.913-.729 7.404-1.578 10.075-1.214 4.37-1.942 4.855-6.676 5.826-4.613.971-5.584.729-8.254-1.82-4.856-4.492-6.434-8.74-6.434-17.116 0-4.127-.485-8.133-1.092-8.861-.607-.607-1.335-3.885-1.7-7.162-.606-5.827-.364-6.312 4.613-11.896 4.855-5.341 5.705-5.705 11.167-5.705 3.399 0 7.04.85 8.618 1.942z"/><path d="M1267.977 750.266c4.976 1.578 12.38 2.913 16.386 2.913 6.07.122 8.861.971 15.78 4.613 4.734 2.428 10.439 5.948 12.745 7.647 6.07 4.734 7.89 5.099 11.41 2.307 2.67-2.185 4.127-2.307 12.26-1.578 8.497.728 9.225 1.092 12.138 4.855 1.7 2.306 4.613 4.491 6.434 4.856 10.681 2.427 12.623 3.398 18.328 8.86 3.278 3.278 6.798 7.891 7.89 10.319 1.821 4.491 5.705 7.162 6.555 4.612.243-.85 2.549-1.456 5.22-1.456 6.433 0 12.987 6.433 16.629 16.751 3.034 8.133 6.19 11.168 11.41 11.168 2.913 0 3.399.485 3.399 3.641 0 3.4.364 3.642 4.248 3.642 3.399 0 5.22.971 9.225 5.098 2.67 2.792 5.705 6.677 6.676 8.497 2.185 4.249 3.035 4.249 5.584-.242 2.67-4.734 7.283-4.856 10.317-.486 3.035 4.491 10.44 11.41 12.139 11.41 2.791 0 5.34-3.641 4.005-6.069-.728-1.214-1.214-5.34-1.214-8.983v-6.797h4.006c4.855 0 6.919 1.82 6.919 6.07 0 1.82 1.092 4.248 2.428 5.462 1.456 1.335 2.427 3.763 2.427 6.19 0 2.185.486 4.37 1.214 4.734.607.365 1.214 2.064 1.214 3.763 0 1.7.85 4.37 2.063 6.07 1.821 2.792 1.821 3.277 0 4.977-1.699 1.699-1.699 2.185.729 5.34 2.427 3.4 2.427 3.642.485 7.77-1.82 3.762-1.82 4.612-.121 8.618 2.063 4.855 1.578 7.769-1.214 7.769-1.214 0-1.942 1.578-2.185 4.491-.364 4.127-.728 4.613-4.006 4.977-2.063.243-4.612 1.214-5.705 2.306-3.034 2.792-20.392.971-20.392-2.063 0-1.578 1.335-2.428 4.855-3.035 5.463-.971 5.948-2.185 2.428-6.676-2.913-3.763-5.462-2.55-9.104 4.005-1.942 3.642-3.156 4.492-6.19 4.492-2.306 0-4.127.728-4.613 1.82-.364 1.093-2.185 1.821-4.855 1.821-3.399 0-4.248-.485-4.613-2.792-.242-1.699-1.335-2.791-3.156-3.034-1.456-.243-2.67-.971-2.67-1.578 0-.607-3.035-1.093-6.797-1.093-3.763 0-10.197-.97-14.445-2.063-7.283-1.943-7.89-1.943-10.075 0-1.578 1.456-4.37 2.063-9.71 2.063-4.127 0-7.526.486-7.526 1.214 0 .607-2.306 1.82-4.977 2.67-3.884 1.093-5.462 2.428-6.676 5.342-.85 2.185-2.306 4.127-3.156 4.37-1.214.485-1.335 1.213-.121 3.52 2.427 4.613 1.7 26.826-.971 29.497-.607.728-1.093 2.185-1.093 3.399 0 2.063-2.063 4.734-13.11 16.144-2.184 2.307-4.612 5.827-5.219 7.89-.85 2.307-2.427 3.885-4.248 4.37-2.792.729-17.722-3.034-22.577-5.705-1.214-.607-3.156-1.092-4.37-1.092s-3.763-1.7-5.462-3.642c-3.399-3.763-8.618-5.098-7.405-1.942.365 1.092-.485 2.306-2.185 3.277-5.826 3.035-6.433 8.133-.97 9.104 3.155.729 3.52 1.214 2.913 4.006-2.185 9.954-3.156 12.26-4.734 12.26-1.214 0-1.821 1.335-1.821 4.37s-1.214 5.948-4.248 9.832c-2.428 3.156-5.22 8.74-6.191 12.382-1.092 3.763-2.792 7.647-3.642 8.74-.97.97-1.699 3.277-1.699 4.977 0 1.942-1.092 3.884-3.034 5.098-2.67 1.7-3.035 2.913-3.035 9.104 0 4.248-.607 7.404-1.335 7.647-1.335.486-3.52 5.584-6.07 13.96-.606 2.185-2.306 4.491-3.52 5.22-1.335.728-2.427 2.549-2.427 4.127 0 4.37-4.855 8.011-10.56 8.011-2.914 0-5.584.728-6.434 1.82-.85.972-2.913 1.822-4.734 1.822-1.7 0-4.248.85-5.462 1.82-1.335.972-4.006 1.821-5.826 1.821-1.942 0-4.37.486-5.584 1.093-1.092.728-6.07 2.428-11.046 4.006-4.976 1.578-9.346 3.52-9.59 4.248-.606 2.306 12.14 2.064 17.601-.243 2.307-.97 6.191-1.82 8.497-1.82 3.763 0 4.006.242 2.792 2.427-.728 1.336-2.428 2.428-3.641 2.428-1.336 0-2.428.486-2.428 1.214 0 .607-.85 1.214-1.942 1.214-1.093 0-3.884.85-6.19 1.942-3.157 1.578-6.313 1.942-13.838 1.335-9.347-.607-9.832-.485-11.046 2.185-1.7 3.763-11.774 9.104-17.115 9.104-4.249 0-12.745-4.977-25.127-14.566-7.768-5.948-9.346-6.434-14.201-4.249-3.763 1.821-4.37 1.821-6.312.122-1.335-1.214-4.006-1.821-7.405-1.7-3.034.122-9.589-.243-14.566-.728l-9.103-.971-2.064 3.763c-1.092 1.942-5.583 5.948-9.953 8.861-4.37 2.913-8.011 5.948-8.011 6.676 0 .85-.85 1.578-1.821 1.578s-1.821.486-1.821 1.093-1.092 1.335-2.428 1.7c-1.335.363-2.913 1.941-3.52 3.52-2.427 6.554-7.04 6.797-6.919.485.122-3.156-.485-3.763-5.34-5.341-6.555-2.185-8.861-5.22-9.711-12.381-.486-4.492-1.093-5.584-3.399-5.827-3.156-.486-3.52-4.006-.97-8.983 1.456-2.792 1.456-3.277 0-3.884-.972-.364-1.7-1.7-1.7-2.913 0-2.55 9.832-11.168 12.988-11.168 1.214 0 4.37-1.457 7.04-3.035 2.67-1.7 6.676-3.034 8.86-3.034 3.036 0 4.25-.607 5.099-2.914.607-1.578 1.7-3.277 2.306-3.763.729-.364 1.336-1.699 1.336-2.792 0-1.092 1.456-3.156 3.277-4.612 2.67-2.185 3.034-3.035 1.942-4.249-1.214-1.214-1.7-1.092-2.306.486-.971 2.67-7.526 2.792-8.497.243-1.335-3.278.607-7.89 3.277-7.89 1.335 0 2.67-.972 3.156-2.186.364-1.092 1.578-3.034 2.55-4.127 1.213-1.456 1.577-3.399.97-5.948-.97-4.977 3.035-10.803 7.283-10.803 3.52 0 4.977-2.913 2.913-5.463-1.213-1.456-1.213-2.549-.242-4.855 1.456-3.156 3.277-3.884 4.49-1.82.365.606 2.671 1.213 4.856 1.213 3.156 0 4.734-.728 6.19-3.156 1.336-1.942 2.914-2.913 4.613-2.67 3.52.485 4.37 8.86 1.214 11.288-2.063 1.457-1.82 1.821 1.942 5.341 4.127 3.763 7.283 4.856 7.283 2.671 0-1.7 14.08-12.26 16.266-12.26 1.092 0 1.942-.971 1.942-2.185.121-2.913 2.549-5.827 5.826-6.798 1.82-.607 2.67-1.82 2.67-3.884 0-2.55-.606-2.913-4.37-2.913-3.277 0-4.49.607-4.976 2.427-.728 2.55-5.705 3.763-17.115 4.006-7.526.243-10.075-1.82-13.595-11.046-1.82-4.734-2.063-6.312-.85-6.312.85 0 2.185.607 3.035 1.456 2.064 2.064 3.399.122 1.82-2.549-1.456-2.427-.849-7.404.972-7.404.607 0 2.185-2.307 3.641-5.22 1.457-2.792 4.006-6.555 5.705-8.376 2.307-2.549 3.156-4.977 3.642-10.318.607-7.161 2.427-9.953 6.554-10.075 1.7 0 2.185-1.092 2.185-4.855 0-3.642.85-5.705 3.035-8.012 4.127-4.127 5.948-3.156 6.433 3.278.243 3.277 1.335 6.312 2.792 7.89 2.428 2.549 2.428 2.913.486 6.555-2.185 4.248-.971 7.283 3.156 7.283 1.82 0 2.063-.607 1.578-3.52-.365-1.942-.122-4.492.485-5.827 1.214-2.063 1.335-2.063 2.064-.121.485 1.214 2.184 2.185 3.762 2.185 1.578 0 2.914.607 2.914 1.335s1.699 2.913 3.762 4.856c3.278 3.034 3.52 3.763 2.185 5.462-1.335 1.7-1.213 2.185.729 3.642 2.913 2.185 4.248 2.185 7.404-.122 2.428-1.578 2.67-1.456 4.37 2.913 2.67 6.798 8.375 10.318 20.392 12.625 8.983 1.82 10.803 2.549 13.96 6.19 4.369 4.977 7.768 6.798 12.502 6.798 2.791 0 3.884-.728 4.976-3.52 1.578-3.52 6.676-6.798 8.74-5.584 2.792 1.82.85 6.676-4.37 11.168-5.462 4.491-5.462 4.734-4.734 10.075.364 3.034 1.214 5.948 1.821 6.555 1.7 1.82 1.335 13.838-.607 17.48-.85 1.82-1.942 6.676-2.306 10.803-.729 8.74.485 10.44 7.526 10.925 2.427.121 6.554.607 9.346.97 4.491.73 5.462.365 9.347-2.912 4.855-4.249 6.676-10.804 4.612-16.266-.728-1.7-3.399-5.22-6.19-7.648-4.856-4.491-6.555-10.196-3.52-12.138 1.82-1.093 12.016-1.093 15.294 0 1.942.607 3.398.121 5.22-1.7 2.063-2.063 2.548-3.763 2.184-9.468-.364-6.434-.121-6.92 2.428-7.283 1.578-.243 3.156-1.214 3.52-2.185.364-.85 3.156-1.942 6.433-2.428l5.826-.728-.485-4.492c-.364-2.427-1.214-6.433-1.942-8.982-1.093-3.4-.971-4.977 0-5.948 2.67-2.67 1.456-5.705-8.861-20.515l-10.318-14.93V931.86c0-5.705-.485-11.046-.97-11.653-.486-.729-2.55-1.821-4.492-2.428-2.428-.85-3.763-2.185-4.006-4.127-.242-1.7-1.335-4.249-2.306-5.705-2.549-4.006-1.578-8.012 2.428-9.954 2.549-1.214 3.277-2.185 2.549-3.642-.486-1.214-1.214-6.433-1.7-11.774-.728-8.983-3.641-17.601-5.826-17.601-1.335 0-5.098-8.012-5.098-10.925 0-1.214-1.214-4.249-2.549-6.676-2.306-3.885-2.428-4.492-.728-6.434 1.092-1.092 2.427-3.52 3.156-5.22 1.092-2.913.607-3.884-4.856-9.953-3.277-3.642-5.947-7.162-5.947-7.77 0-.606-3.278-4.248-7.405-8.253-6.797-6.798-15.78-21.486-18.693-30.833-.485-1.456-2.185-4.734-3.763-7.04-1.942-2.913-2.913-6.07-2.913-9.59 0-7.89 2.306-8.982 19.179-8.982 12.745 0 14.08-.243 17.722-3.035 4.734-3.642 5.947-3.642 17.722 0zM1439.005 779.642c4.006 4.855 8.011 12.502 9.347 17.965l.85 3.277-3.885-2.063c-2.306-1.093-4.491-3.52-5.22-5.584-.606-1.942-2.184-4.127-3.398-4.734-4.127-2.185-6.19-13.353-2.55-13.353.608 0 2.793 2.064 4.856 4.492zM720.903 802.584c1.214 1.335 1.093 8.982-.242 8.982-1.943 0-4.006-3.52-3.52-6.19.364-2.792 2.306-4.249 3.762-2.792zM1471.9 815.694c0 1.578.85 3.156 1.82 3.641 2.064.728 2.55 5.584.608 5.584-.729 0-2.307-1.093-3.642-2.428-2.913-2.913-3.277-9.71-.607-9.71 1.093 0 1.821 1.092 1.821 2.913zM715.32 817.272c2.549.97 1.82 5.22-.85 5.22-1.82 0-2.428-.85-2.428-3.035 0-3.035.486-3.4 3.278-2.185zM988.674 849.682c2.185 2.549.243 4.734-3.52 4.127-2.67-.364-2.67-.364-.364-3.277 2.063-2.55 2.428-2.67 3.884-.85zM594.3 853.202c0 3.035-3.398 6.92-5.826 6.92-1.942 0-1.82-6.434 0-8.255 2.55-2.55 5.827-1.7 5.827 1.335zM956.022 855.873c2.55 3.156-.607 5.705-5.948 4.734-5.34-.971-6.554-1.942-5.462-4.492.971-2.67 9.225-2.791 11.41-.242zM586.168 860.97c1.578 1.458.85 5.22-.97 5.22-1.093 0-1.822-1.092-1.822-3.034 0-2.913 1.214-3.885 2.792-2.185zM812.79 870.44c0 4.005-.485 5.461-1.82 5.461-1.336 0-1.821-1.456-1.821-5.462s.485-5.462 1.82-5.462c1.336 0 1.821 1.456 1.821 5.462zM929.318 869.71c0 .608-.85 1.7-1.82 2.55-2.186 1.82-5.099-.121-3.764-2.306.971-1.578 5.584-1.821 5.584-.243zM571.966 874.93c.486 1.7.122 3.035-1.213 4.006-1.093.85-1.943 2.428-1.943 3.52 0 1.093-.85 1.943-1.82 1.943-1.093 0-1.821-1.093-1.821-3.035 0-1.7.728-3.035 1.7-3.035 1.092 0 1.456-.97.97-3.034-.728-3.885 2.914-4.249 4.127-.365zM1042.568 893.624c.486.486.364 1.457-.121 2.185-.486.728-.85 1.578-.85 1.942-.121 1.7-3.763 8.497-4.491 8.497-1.578 0-1.092 2.428.728 4.37 1.942 1.942 1.214 6.434-1.213 7.405-1.093.364-1.7 2.549-1.7 5.948v5.34h-10.56l-1.457-6.433c-1.578-6.797-1.335-7.162 5.462-11.289 2.185-1.335 2.185-1.456.122-3.763-4.127-4.612-1.578-10.196 5.462-11.896 1.942-.485 3.399-1.335 3.399-1.942 0-1.214 4.005-1.456 5.22-.364zM1054.1 900.907c.85 1.7.485 3.642-1.336 7.526-1.942 4.37-2.913 5.22-4.976 4.613-1.457-.364-3.278-.728-4.127-.728-.85 0-1.457-1.578-1.457-4.006 0-5.22 2.064-7.89 6.919-8.861 2.913-.607 4.006-.243 4.977 1.456z"/><path d="M1259.48 906.127c0 1.82-.729 2.549-2.55 2.549-3.034 0-2.67-4.006.486-4.613 1.457-.242 2.064.364 2.064 2.064zM1246.492 910.618c1.7 1.7.85 4.249-1.335 3.885-1.093-.243-2.064-1.214-2.064-2.064 0-1.942 2.185-3.035 3.399-1.82zM1250.133 921.543c1.7 1.82.729 4.127-1.7 4.127-1.699 0-2.305-.607-2.063-2.063.364-2.185 2.428-3.278 3.763-2.064zM606.075 927.612c.971 2.428 0 3.156-4.613 3.278-5.34.364-5.705-2.064-.485-3.642 3.641-1.214 4.491-1.092 5.098.364zM1253.775 930.161c1.578 1.457.85 4.977-.971 5.706-2.185.728-3.642-1.943-2.55-4.734.729-1.943 2.185-2.307 3.52-.972zM1260.45 948.005c3.157 4.37 3.885 6.555 3.885 11.532 0 6.676-.121 6.798-3.763 4.977-1.82-1.092-3.156-.728-5.948 1.214-3.034 2.185-3.641 2.306-3.641.607 0-.971.85-2.185 1.82-2.55 2.428-.97 2.307-6.554-.242-8.375-1.942-1.457-1.942-1.82.121-7.162 1.214-3.035 2.55-5.584 3.035-5.584.485 0 2.67 2.428 4.734 5.341zM1060.169 944.728c1.456 1.214 2.792 3.763 2.913 5.827.243 3.034-.121 3.763-2.428 4.005-1.456.243-2.67-.121-2.67-.85 0-.728-1.457-1.335-3.399-1.335-4.977 0-8.74-1.335-8.74-2.913 0-2.55 5.463-6.798 8.74-6.798 1.7 0 4.249.971 5.584 2.064zM1100.468 959.901c0 7.648-2.913 18.573-5.705 21.364-1.578 1.578-3.399 4.128-4.006 5.706-.728 1.82-2.791 3.156-6.554 4.248-4.492 1.214-5.584 2.064-5.584 4.249 0 1.578-.85 3.034-1.82 3.52-1.336.485-1.821 2.549-1.821 7.405 0 6.069-.243 6.797-3.035 7.89-2.55.97-3.035 1.942-3.035 6.069 0 3.642-.85 5.827-3.52 8.74l-3.398 3.884-4.127-2.427c-3.885-2.307-4.127-2.914-4.492-9.347l-.364-6.92h-4.005c-2.55 0-4.37-.728-4.856-1.82-.364-.971-1.7-1.82-2.913-1.82-3.399 0-6.07-3.521-3.884-4.856 1.335-.85 1.335-1.336.121-2.914-2.427-2.913-.485-11.531 3.642-15.659 2.549-2.427 3.52-4.612 3.52-7.526 0-2.306.485-4.37 1.092-4.855.607-.364 1.457-2.306 1.942-4.249.607-2.792 1.457-3.641 3.642-3.641 1.578 0 3.52-1.214 4.734-3.035 2.185-3.399 6.19-4.006 7.283-1.214.85 2.428 4.855 2.307 6.919-.121 1.213-1.578 2.913-1.821 7.525-1.214 5.22.728 6.19.485 7.769-1.578 1.335-2.064 3.034-2.55 8.375-2.55 5.948 0 6.555.244 6.555 2.671z"/><path d="M1259.965 969.976c1.214 1.821 3.156 3.035 4.977 3.035 3.52 0 5.34 2.792 4.491 6.92-.485 2.427-1.092 2.791-3.156 2.184-6.19-1.82-6.19-1.82-6.555 9.832-.242 9.711 0 11.29 2.307 13.96l2.549 2.913-2.67.364c-1.457.243-4.006.122-5.584-.242-2.913-.729-2.913-.729-2.913-19.058 0-21.85 1.82-27.19 6.554-19.908zM1247.099 972.647c-.243 1.214-1.214 2.185-2.185 2.185-2.67 0-2.185-3.52.364-4.006 1.7-.364 2.185.122 1.82 1.82zM758.168 976.046c2.306 2.792.607 5.22-4.248 6.19-5.099.85-7.89-.85-7.89-5.098 0-2.67.485-2.913 5.34-2.913 3.156 0 5.827.728 6.798 1.82zM1246.734 980.658c3.642 3.035 3.278 6.555-.485 4.977-1.7-.728-4.37-1.214-7.769-1.578-.606-.121-.85-1.335-.606-2.913.485-3.763 4.855-4.006 8.86-.486zM1017.928 985.393c0 1.213 1.092 3.277 2.427 4.612 2.306 2.307 2.306 2.428-1.7 5.463-5.097 3.884-5.583 3.763-5.583-.607 0-2.064.486-3.642 1.214-3.642.607 0 1.214-.97 1.214-2.185 0-1.092.607-2.913 1.214-3.884.97-1.578 1.214-1.457 1.214.243zM1105.323 990.976c4.977 2.428 6.434 7.405 4.613 14.81-1.214 4.734-1.457 4.855-6.555 4.855-5.22 0-5.34.121-8.375 6.434-1.7 3.641-3.035 7.04-3.035 7.647 0 1.578-10.075 11.41-11.653 11.41-.728 0-2.306 1.457-3.52 3.156-1.942 3.035-1.942 3.4-.121 4.37 2.792 1.578 2.428 4.006-1.093 6.312-3.52 2.307-7.89 1.578-7.89-1.213 0-.972-.85-1.7-1.82-1.7-1.335 0-1.82-1.335-1.82-4.734 0-4.127.606-5.098 4.126-7.162 3.52-2.063 4.37-3.399 5.098-8.375 1.093-7.526 2.428-10.076 5.462-10.076 3.4 0 9.59-3.398 9.59-5.22 0-.849 1.335-3.398 3.034-5.704 1.7-2.307 3.035-5.341 3.035-6.92 0-1.577.728-3.156 1.7-3.52.97-.364 2.063-1.942 2.427-3.641.85-3.4 1.214-3.4 6.797-.729zM990.01 997.653c5.34 7.161 6.676 14.809 2.913 16.266-2.307.85-3.642-.972-5.341-7.284-.729-2.427-3.035-6.433-4.977-8.74-2.063-2.306-3.399-4.734-2.913-5.462 1.82-2.913 5.584-.971 10.317 5.22zM769.942 1038.681c2.428 2.428 1.82 3.4-1.82 3.278-1.821-.121-4.25.243-5.342.728-1.456.729-2.427.364-2.913-.97-.97-2.55-.728-2.793 4.37-3.764 2.792-.485 4.734-.243 5.705.728zM747.608 1044.265c1.213.364 1.942 1.214 1.699 1.942-.607 2.064-6.312 1.821-6.312-.242 0-1.943 1.457-2.55 4.613-1.7zM738.14 1054.34c.485 1.336.607 4.37.485 6.677-.243 2.306 0 4.491.364 4.977.486.364-.364 2.427-1.82 4.37-3.4 4.49-3.4 14.93-.243 26.34l2.185 7.77-4.977 4.37c-2.792 2.427-5.098 5.462-5.098 6.797-.121 2.306-.243 2.306-1.7.364-.85-1.214-1.941-1.82-2.306-1.457-.364.365-2.67.122-5.098-.728-3.52-1.092-4.248-1.942-3.398-3.52.485-1.093.85-4.734.606-8.012-.242-6.676 1.578-17.358 4.006-23.063.85-2.064 2.792-7.526 4.249-12.139 1.942-5.827 3.884-9.468 6.554-11.775 4.613-4.005 5.22-4.127 6.19-.97zM716.655 1079.467c-.607 3.035-3.399 3.4-3.399.486 0-1.457.728-2.55 1.942-2.55 1.093 0 1.7.85 1.457 2.064zM713.984 1092.456c.729 2.063-.242 4.37-2.063 4.37-1.457 0-1.457-4.491.121-5.463.729-.364 1.578.122 1.942 1.093zM716.655 1117.097c2.549.972 5.098 7.284 4.37 10.925-.486 2.55 0 4.006 1.82 5.705 1.457 1.336 2.55 3.642 2.55 5.22 0 1.578 1.092 3.763 2.427 4.856 1.578 1.456 2.428 3.641 2.428 6.555 0 2.427.85 5.098 1.82 5.947 2.428 2.064 2.307 4.006-.606 6.677-1.942 1.7-2.307 3.156-1.7 5.826.607 2.67.364 3.4-.85 3.035-2.427-.728-5.947-8.254-5.947-12.746 0-2.063-.607-4.248-1.214-4.612-.728-.364-1.214-1.821-1.214-3.035 0-1.335-1.092-2.913-2.427-3.642-2.064-1.092-2.307-2.427-2.185-8.86.121-4.25-.486-9.105-1.457-11.29-1.942-4.37-.486-11.41 2.185-10.56zM732.556 1123.41c.85.607 1.214 1.699.85 2.427-1.214 1.943-5.22 1.7-5.948-.364-1.214-3.035 1.7-4.127 5.098-2.063zM745.908 1125.837c2.185 3.035 1.457 4.37-2.306 3.885-4.37-.486-4.977-1.214-3.277-3.763 1.82-3.035 3.52-3.035 5.583-.122zM842.286 1140.161c.486.364.85 1.82.85 3.035 0 1.82-.971 2.185-5.34 2.185-3.035 0-5.706-.486-6.191-1.093-1.578-2.67 8.375-6.555 10.681-4.127zM738.504 1142.832c1.214.728 1.214 1.213-.243 2.427-2.063 1.7-4.37.85-4.37-1.82 0-1.821 2.185-2.186 4.613-.607zM1064.053 1144.774c0 .97-.85 1.82-1.82 1.82-.972 0-1.821-.85-1.821-1.82 0-.971.85-1.821 1.82-1.821.971 0 1.821.85 1.821 1.82zM1003.119 1145.016c-.243 1.214-1.214 2.185-2.185 2.185-2.67 0-2.185-3.52.364-4.005 1.7-.364 2.185.121 1.82 1.82zM1058.834 1147.444c2.184.729 1.942 4.006-.122 4.006-2.306 0-3.763-2.306-2.427-3.642.606-.485 1.82-.607 2.549-.364zM1007.003 1150.236c0 1.335-.85 2.428-1.82 2.428-.972 0-1.821-1.093-1.821-2.428s.85-2.428 1.82-2.428c.971 0 1.821 1.093 1.821 2.428zM845.32 1148.9c1.579.972.73 4.978-.97 4.978-1.82 0-2.67-2.307-1.578-4.127.607-1.093 1.578-1.457 2.549-.85zM823.35 1149.75c1.214 3.278-1.699 7.77-4.976 7.77-3.52 0-6.07 3.884-5.098 7.647.364 1.456 0 3.277-.729 4.127-.97 1.335-.728 2.549 1.214 5.22 3.52 4.734 3.399 6.069-.97 6.069-3.278 0-3.764.485-5.099 5.462-1.092 4.006-2.063 5.463-3.763 5.463-1.214 0-3.277.607-4.612 1.335-1.942.971-2.792.728-4.734-1.578-2.913-3.399-3.035-5.341-.486-6.312 1.7-.607 1.7-.971 0-3.399-1.092-1.457-1.942-3.763-1.942-4.977 0-1.942.728-2.185 4.127-1.82 4.006.485 4.127.363 3.52-2.914-.728-3.884 1.335-7.04 4.613-7.04 2.792 0 3.034-3.035.364-4.128-1.092-.364-4.127-.728-6.919-.728-7.526 0-10.56-1.092-10.56-3.884 0-2.185.728-2.428 8.74-2.064 9.71.486 11.895-.243 11.895-3.884 0-2.064.85-2.307 7.283-2.307 5.584 0 7.526.486 8.133 1.943zM762.174 1149.872c1.335 1.335 4.005 2.185 6.918 2.185 3.156 0 4.856.485 4.856 1.457 0 .85 1.335 1.578 3.034 1.578 2.428 0 3.035.607 3.035 2.913 0 1.578-.85 3.156-1.82 3.641-1.215.365-1.822 2.307-1.822 5.099v4.491l-13.595-.728c-7.404-.486-14.08-1.336-14.808-2.064-.607-.607-2.185-1.214-3.399-1.214-3.156 0-6.07-6.555-5.22-11.41.85-4.006.972-4.006 8.255-4.856 4.127-.364 8.01-1.335 8.618-1.942 1.82-1.82 3.52-1.456 5.948.85zM938.786 1152.664c1.82 1.942 4.248 3.641 5.462 3.641 1.457 0 2.064.729 1.82 2.064-.485 2.913-11.41 4.37-15.05 2.064-1.457-.85-3.764-1.214-5.22-.85-3.884.971-3.52-4.856.607-8.012 4.612-3.641 8.618-3.277 12.38 1.093zM1056.77 1153.27c0 1.215-.85 1.822-2.185 1.579-2.549-.486-2.306-2.67.243-3.156 1.214-.243 1.942.364 1.942 1.578zM1012.708 1152.3c2.185.85 1.942 4.005-.243 4.005-.97 0-1.82-1.092-1.82-2.427 0-1.336.12-2.428.242-2.307.243 0 1.093.365 1.821.729zM972.409 1152.542c.728 1.336-1.093 2.792-2.306 1.7-1.093-1.093-.85-2.792.364-2.792.728 0 1.456.486 1.942 1.092zM898.365 1153.514c1.942 1.092 5.22 3.277 7.04 4.734 2.307 1.942 4.977 2.913 8.255 2.913 3.277 0 5.098.607 5.583 1.942 1.093 2.792-1.092 5.827-4.491 6.312-1.457.243-3.035 1.457-3.277 2.792-.85 3.156-2.428 2.913-7.405-1.456l-4.248-3.763-22.335 1.699-5.34-5.22-5.341-5.098 4.005-1.7c5.705-2.306 17.237-5.219 20.878-5.219 1.7.121 4.613.971 6.676 2.064zM1020.355 1155.699c0 .97-.85 1.82-1.82 1.82-.972 0-1.821-.85-1.821-1.82 0-.972.85-1.821 1.82-1.821.972 0 1.821.85 1.821 1.82zM1048.03 1156.548c-.85 2.307-4.612 2.67-4.612.486 0-1.214 1.092-1.942 2.549-1.942 1.457 0 2.306.607 2.064 1.456zM969.738 1155.941c1.7 1.578.729 4.006-1.577 4.006-1.578 0-2.428-.85-2.428-2.428 0-2.306 2.428-3.277 4.005-1.578zM962.091 1156.912c0 1.336-1.335 1.821-4.855 1.821-2.67 0-5.22 0-5.826.122-.486 0-.971-.85-1.214-1.821-.364-1.578.85-1.942 5.705-1.942 4.734 0 6.19.485 6.19 1.82zM860.494 1159.219c.97 2.427-4.006 4.006-5.341 1.82-.607-1.092-.243-1.942 1.092-2.549 3.156-1.213 3.52-1.092 4.249.729zM781.23 1173.785c0 1.214-1.092 1.942-2.548 1.942-2.914 0-2.55-2.792.485-3.398 1.214-.243 2.064.364 2.064 1.456zM787.3 1176.334c0 .971-1.093 1.821-2.428 1.821s-2.427-.85-2.427-1.82c0-.972 1.092-1.821 2.427-1.821s2.428.85 2.428 1.82zM735.712 1177.305c3.642 2.185 4.37 3.52 3.884 6.92-.85 5.583.729 9.104 4.613 9.71 2.549.486 3.763 1.457 4.006 3.278.242 1.457 1.213 3.277 2.184 4.006 2.67 2.306 2.064 3.641-1.699 3.641-2.063 0-3.884-.97-4.855-2.427-.85-1.457-2.792-3.035-4.37-3.642-1.82-.607-3.399-2.792-4.37-5.705-.85-2.55-2.428-6.312-3.641-8.255-1.578-2.549-1.821-4.49-1.093-6.433 1.093-3.035 1.82-3.156 5.341-1.093zM684.853 1183.618c.485 2.185 1.578 3.034 3.641 3.034 2.064 0 2.913.729 2.913 2.185 0 1.214 1.578 3.763 3.52 5.584 1.942 1.942 3.885 4.734 4.37 6.433.364 1.821 2.185 3.642 4.734 4.613 2.67 1.093 4.613 3.278 6.19 6.676 2.186 4.977 2.671 5.22 11.775 6.677 3.156.485 5.34 1.942 7.647 4.855 1.942 2.67 4.127 4.249 5.948 4.249 1.578 0 3.52.85 4.37 1.82.85.972 3.034 1.821 4.976 1.821 4.249 0 7.647 4.492 9.832 13.353 1.335 5.948 1.942 6.676 4.856 7.04 2.67.365 3.641-.242 4.612-2.791.971-2.55 1.942-3.157 4.491-2.792 2.55.242 3.52 1.213 4.249 4.127.485 2.063 3.277 6.19 6.069 9.104 9.468 9.71 12.624 19.3 6.919 21.121-2.914.971-2.914 3.156 0 8.983 3.52 6.676 11.41 13.474 15.9 13.474 4.492 0 12.14-3.035 12.14-4.734 0-.729 1.82-1.336 4.126-1.336 3.642 0 4.127.486 4.855 3.763.365 2.064.729 5.099.729 6.555 0 3.278 2.792 9.104 4.976 10.44 1.214.728 1.214 1.578.122 4.127-.85 1.7-1.457 5.22-1.457 7.768 0 4.128.607 5.099 4.249 7.284 4.005 2.306 4.248 2.913 4.248 8.618 0 3.278.486 6.07 1.214 6.07.607 0 1.214 1.092 1.214 2.427 0 5.099 3.277 10.56 7.161 11.896 2.428.85 3.763 2.185 3.763 3.642 0 2.428 3.035 3.884 8.133 3.884 1.82 0 2.792.729 2.792 2.064 0 3.156-.971 4.127-10.075 9.954-4.491 2.913-8.133 5.705-8.133 6.312 0 .607-2.67 1.092-5.948 1.092-7.161 0-9.832.85-9.832 3.156 0 1.214-1.578 1.7-5.462 1.7-3.156 0-5.462.607-5.462 1.335 0 1.7-5.098.485-11.289-2.67-2.549-1.215-6.919-2.307-9.832-2.307-4.855 0-5.462-.364-9.346-6.07-4.006-5.826-4.37-6.069-9.71-6.069-5.342 0-5.706-.242-6.434-3.641-.486-2.428-1.7-4.127-3.763-4.856-2.064-.85-3.035-2.063-3.035-4.127 0-2.306-.485-2.913-1.82-2.428-2.307.971-7.89-4.734-7.89-8.011 0-1.214-.607-5.098-1.335-8.497-1.336-5.948-1.336-6.07-5.827-6.07-3.034 0-5.34-.85-6.797-2.427-2.185-2.428-2.185-2.67-.243-6.07 2.063-3.277 1.942-3.52-.243-4.248-1.335-.364-3.884-3.156-5.583-6.191-2.55-4.491-3.035-6.434-2.428-10.197.728-4.248.485-4.734-1.942-5.098-1.821-.243-3.035-1.578-3.642-3.884-1.214-4.249-11.652-15.295-14.566-15.295-4.005 0-5.947-1.457-5.947-4.37 0-1.7-.85-3.277-1.821-3.642-.971-.485-1.82-1.82-1.82-3.156 0-3.763-10.925-16.63-14.931-17.48-1.942-.485-3.763-1.699-4.248-2.791-.365-1.093-2.792-4.249-5.341-7.162-2.67-2.913-5.584-7.04-6.555-9.104-1.82-3.763-3.763-6.676-10.56-15.538-1.821-2.427-3.278-4.855-3.278-5.583 0-.607-1.699-2.67-3.641-4.613-2.913-2.792-3.642-4.491-3.642-8.74 0-4.491.365-5.22 2.55-5.22 2.791 0 14.323-11.653 14.444-14.687 0-3.278 8.982-8.376 14.566-8.376 4.127 0 4.977.485 5.584 3.035zM764.237 1187.38c0 4.492-.607 6.313-3.156 8.498-3.884 3.641-5.098 3.641-6.069 0-.364-1.7-1.7-3.885-3.035-5.099-1.213-1.092-2.306-3.277-2.306-4.734 0-3.034 2.67-4.248 9.954-4.248h4.612v5.584zM793.126 1197.82c-.607 1.82-3.399 2.185-3.52.364 0-.728.85-1.457 2.064-1.578 1.213-.364 1.82.121 1.456 1.214zM801.016 1200.49c.486 1.093-.364 1.943-1.942 2.428-3.399.85-5.826-1.335-3.277-2.913 2.549-1.7 4.49-1.457 5.22.485zM791.427 1208.016c1.092.971 1.942 2.914 1.942 4.006 0 2.67 2.063 4.491 5.462 5.22 1.335.243 2.55 1.456 2.55 2.792.12 1.335.242 3.034.363 3.884.122.85 2.064 2.792 4.492 4.491 6.19 4.249 9.225 9.59 7.768 13.596-.728 1.7-1.214 5.705-1.214 8.86 0 8.984-2.427 10.076-8.132 3.643-2.55-2.914-5.584-6.191-6.798-7.526-1.335-1.336-1.942-3.035-1.456-4.613.485-1.457-.243-3.642-1.821-5.948-2.185-3.035-3.035-3.399-4.977-2.428-1.7.971-2.306.85-2.306-.364 0-.971-1.7-3.763-3.642-6.312-2.063-2.55-3.641-5.22-3.641-6.07 0-.85-1.7-2.184-3.763-2.913-3.035-1.092-3.642-1.82-3.399-4.612.243-1.943 0-4.128-.607-4.977-1.699-2.792 0-2.792 6.434-.243 7.647 2.913 7.404 2.913 7.404 0s2.67-3.156 5.34-.486zM751.492 1212.265c1.214 1.335 3.763 2.67 5.462 3.156 4.127.971 6.312 2.792 5.462 4.855-.242.972 0 2.914.729 4.249.97 1.942.97 2.67-.243 3.52-2.185 1.335-5.098-.485-8.497-5.462-1.578-2.307-3.641-4.492-4.734-4.977-4.127-1.457-7.89-4.249-7.89-5.705 0-2.67 7.04-2.428 9.71.364zM1129.6 1246.253c0 2.185-.486 2.428-4.006 1.7-7.525-1.7-8.011-4.249-.85-4.249 4.128 0 4.856.364 4.856 2.55zM787.3 1246.132c0 2.913-3.035 3.277-4.127.485-1.093-2.792-.971-2.913 1.7-2.913 1.577 0 2.427.85 2.427 2.428zM1118.675 1249.045c0 .971-.485 2.064-1.092 2.428-1.335.85-4.006-2.185-2.913-3.278 1.456-1.456 4.005-.85 4.005.85zM829.784 1269.802c5.462 5.584 8.133 6.555 10.682 4.006 1.092-1.092 1.456-.971 1.456.607 0 1.093-.607 2.064-1.214 2.064-2.306 0-1.213 2.67 3.035 6.919 2.306 2.306 4.491 5.948 4.977 8.254.607 3.277 1.335 4.249 3.763 4.491 1.82.243 3.762 1.336 4.49 2.428 1.093 1.7.729 2.55-1.456 4.006-1.457 1.092-2.67 2.913-2.67 4.127 0 3.277 8.982 11.046 11.895 10.196 3.035-.728 4.127 1.093 3.156 5.099-1.214 4.734-5.462 3.884-13.716-3.035-7.89-6.555-13.474-13.231-13.474-16.023 0-3.399-5.826-7.526-10.924-7.526-5.462-.121-10.318-4.127-19.057-15.902l-5.462-7.283 3.762-1.457c2.428-1.092 3.763-2.427 3.763-4.005 0-2.064.85-2.428 5.827-2.428 5.34 0 6.312.485 11.167 5.462z"/><path d="M886.591 1298.207l-.728 14.08-4.977-.242c-2.67-.121-4.977.243-4.977.971 0 2.064-6.19 1.093-9.832-1.457-6.069-4.248-3.52-12.381 2.67-8.618 3.52 2.185 5.706 1.7 6.191-1.335.365-2.307 1.214-2.67 6.07-3.035l5.583-.364zM898.123 1326.369c3.884 3.277 8.132 5.948 9.346 5.948 1.214 0 3.763 1.335 5.584 3.034 1.82 1.7 3.884 3.035 4.734 3.035 2.063 0 4.855 3.52 6.433 7.89a98.194 98.194 0 002.063 5.827c.85 1.942.365 2.185-2.549 1.82-2.549-.242-3.641-1.092-3.884-3.156-.364-2.185-1.214-2.67-4.734-2.67-3.884 0-4.248-.243-3.52-2.792.85-3.399-2.913-7.526-8.011-8.74-1.821-.485-4.127-2.063-5.098-3.641-1.093-1.578-3.4-3.642-5.22-4.492-2.306-1.092-3.52-2.67-3.763-4.977-.242-1.82 0-3.277.607-3.156.486 0 4.127 2.67 8.012 6.07zM1212.14 1346.276c1.093 1.335 1.214 2.306.364 3.156-.85.85-1.699.607-2.791-.728-1.093-1.335-1.214-2.306-.364-3.156.85-.85 1.699-.607 2.791.728zM1076.191 1374.195c1.7.971 4.127 1.7 5.584 1.82 2.67 0 6.555 3.521 6.555 5.706 0 .728-.85 1.7-1.942 2.064-3.885 1.456-7.89.607-10.44-2.307-1.456-1.7-3.64-3.034-4.733-3.034-2.67 0-3.763-1.578-2.792-4.127.97-2.428 3.763-2.428 7.768-.122zM951.531 1374.438c.486.364.85 1.457.85 2.428 0 2.427-4.613 1.82-6.07-.85-1.092-2.064-.97-2.428 1.579-2.428 1.578 0 3.277.364 3.641.85zM1025.575 1388.519c3.156 2.549 3.277 2.913 1.82 6.555-1.456 3.763-1.942 4.005-7.161 4.005-3.52 0-6.19-.728-7.162-1.82-1.82-2.185-.728-5.463 1.7-5.463.85 0 1.942-.728 2.306-1.7 1.456-3.762 5.098-4.37 8.497-1.577zM931.746 1386.698c.97.364 2.549 1.578 3.398 2.913.85 1.214 2.428 2.185 3.52 2.185.971 0 3.4.971 5.22 2.064l3.399 1.942-2.792 2.306c-3.763 2.914-9.347 1.7-14.08-2.913-5.099-5.098-4.249-10.44 1.335-8.497zM957.357 1390.097c.85 1.092 2.914 2.428 4.492 3.035 2.306.85 2.67 1.456 1.578 2.791-1.943 2.307-5.948 1.093-8.254-2.549-2.307-3.52-.486-6.433 2.184-3.277zM779.531 1393.374c2.67 2.307 6.92 4.856 9.59 5.705 6.311 1.943 7.89 3.278 7.89 6.677 0 3.52-2.307 5.34-7.526 6.19-5.827.972-13.717-6.19-15.78-14.323-2.064-8.376-.243-9.711 5.826-4.249zM951.895 1400.658c.85 2.427-.364 4.49-2.67 4.49-2.185 0-2.185-2.912.121-4.855 1.457-1.214 1.942-1.092 2.55.365zM979.085 1446.178c.971.364 3.884 2.427 6.433 4.612 3.52 3.278 5.584 4.127 9.468 4.127 3.763 0 5.584.729 7.283 2.914 1.7 2.185 3.763 2.913 8.982 3.399 7.89.607 8.619 1.092 6.434 4.49-.971 1.7-2.792 2.55-5.22 2.55-2.063 0-5.826 1.457-8.497 3.278-5.583 3.763-14.808 4.734-16.386 1.578-.364-.972-1.7-3.642-2.792-5.827-1.092-2.306-2.064-5.341-2.064-6.798 0-1.456-1.942-4.491-4.248-6.797-2.306-2.307-4.248-4.734-4.248-5.584 0-1.821 2.427-2.792 4.855-1.942zM979.328 1469.605c2.549 1.457 2.913 6.312.607 8.255-1.214.97-2.064.85-3.035-.122-1.092-1.092-2.306-.85-5.098 1.214-2.428 1.82-5.34 2.67-8.861 2.67-3.641 0-6.433.85-8.618 2.55-2.428 1.942-4.127 2.306-6.555 1.578-1.82-.486-7.161-.971-11.895-1.093-9.59-.242-11.41-.97-11.41-4.37 0-1.82.85-2.306 3.641-2.306 2.428 0 4.734-1.092 6.555-3.035 2.67-2.913 3.52-3.034 15.537-3.034 9.953 0 13.11-.364 14.323-1.821 1.7-2.064 11.531-2.428 14.809-.486zM919 1490.12c2.792 3.034 1.821 4.005-4.248 4.37-5.462.242-6.07-1.093-2.185-4.492 3.52-2.792 3.763-2.792 6.433.122zM944.127 1502.623c2.427 1.942 1.092 4.855-1.821 3.884-.971-.486-3.035-.243-4.37.486-3.641 2.063-4.855-.972-1.335-3.763 3.156-2.55 4.734-2.671 7.526-.607z"/></g><g><path d="M556.766 1524.949l-12.01-4.998-4.96 12.028-4.96-12.028-12.011 4.997 4.997-12.01-12.027-4.96 12.027-4.96-4.997-12.011 12.01 4.998 4.96-12.028 4.96 12.028 12.01-4.998-4.996 12.012 12.027 4.959-12.027 4.96 4.997 12.01zm-7.81-7.81c-5.055 5.055-13.264 5.055-18.32-.002-5.056-5.055-5.056-13.264 0-18.32 5.057-5.057 13.266-5.057 18.321-.001 5.057 5.056 5.057 13.266 0 18.323zm-2.12-2.121c3.885-3.887 3.886-10.195 0-14.081-3.884-3.884-10.193-3.884-14.08.002-3.883 3.884-3.883 10.193 0 14.077 3.886 3.886 10.195 3.886 14.08.002zM438.934 1398.476l-13.744-10.58-10.539 13.778-2.236-17.202-17.194 2.29 10.581-13.744-13.78-10.538 17.203-2.237-2.292-17.193 13.745 10.581 10.538-13.779 2.237 17.202 17.193-2.292-10.58 13.746 13.778 10.538-17.201 2.237 2.29 17.193zm-7.363-12.753c-8.255 4.766-18.828 1.933-23.596-6.325-4.766-8.255-1.933-18.828 6.322-23.594 8.259-4.768 18.832-1.935 23.598 6.32 4.767 8.258 1.934 18.83-6.324 23.599zm-2-3.464c6.346-3.664 8.523-11.789 4.86-18.135-3.662-6.342-11.787-8.52-18.134-4.855-6.342 3.662-8.52 11.787-4.858 18.13 3.664 6.345 11.789 8.522 18.132 4.86zM353.283 1244.97l-13.17-17.222-17.183 13.226 2.865-21.492-21.502-2.798 17.223-13.172-13.228-17.181 21.494 2.864 2.795-21.501 13.172 17.223 17.182-13.228-2.865 21.494 21.501 2.795-17.222 13.174 13.227 17.18-21.493-2.863-2.796 21.5zm-4.764-17.781c-11.509 3.084-23.358-3.758-26.443-15.27-3.084-11.509 3.757-23.358 15.266-26.442 11.514-3.085 23.364 3.756 26.447 15.265 3.085 11.512-3.756 23.362-15.27 26.447zm-1.294-4.83c8.848-2.37 14.105-11.476 11.735-20.323-2.37-8.843-11.476-14.1-20.324-11.73-8.843 2.37-14.1 11.476-11.73 20.319 2.37 8.847 11.476 14.104 20.319 11.734zM307.232 975.82l9.918 24.054 24.024-9.995-9.996 24.023 24.054 9.92-24.054 9.919 9.996 24.024-24.024-9.996-9.918 24.054-9.918-24.054-24.024 9.996 9.996-24.024-24.054-9.918 24.054-9.921-9.996-24.023 24.024 9.995 9.918-24.053zm0 22.09c14.298 0 25.908 11.61 25.908 25.913 0 14.298-11.61 25.908-25.908 25.908-14.304 0-25.914-11.61-25.914-25.908 0-14.303 11.61-25.913 25.914-25.913zm0 6c-10.992 0-19.914 8.922-19.914 19.913 0 10.986 8.922 19.908 19.914 19.908 10.986 0 19.908-8.922 19.908-19.908 0-10.991-8.922-19.913-19.908-19.913zM334.475 780.973l3.914 30.1 30.091-4.009-18.518 24.053 24.11 18.443-30.1 3.914 4.01 30.091-24.055-18.519-18.44 24.112-3.913-30.101-30.092 4.01 18.52-24.054-24.113-18.44 30.103-3.917-4.011-30.09 24.055 18.517 18.44-24.11zm-6.67 24.893c16.113 4.317 25.69 20.906 21.372 37.024-4.317 16.112-20.906 25.69-37.019 21.373-16.12-4.32-25.697-20.909-21.38-37.021 4.319-16.118 20.908-25.696 37.027-21.376zm-1.811 6.761c-12.387-3.319-25.136 4.04-28.454 16.426-3.318 12.38 4.043 25.129 16.43 28.448 12.38 3.317 25.128-4.043 28.446-16.423 3.318-12.386-4.042-25.134-16.422-28.45zM415.044 598.526l-4.583 34.386 34.403 4.476-27.557 21.074 21.161 27.492-34.387-4.584-4.473 34.405-21.077-27.558-27.488 21.163 4.584-34.387-34.405-4.474 27.558-21.077-21.163-27.488 34.39 4.58 4.472-34.402 21.078 27.556 27.487-21.162zm-14.726 25.507c16.51 9.532 22.176 30.678 12.64 47.193-9.531 16.51-30.677 22.176-47.187 12.644-16.517-9.536-22.183-30.682-12.651-47.192 9.535-16.515 30.68-22.18 47.198-12.645zm-4 6.929c-12.693-7.328-28.943-2.975-36.27 9.716-7.324 12.686-2.97 28.936 9.723 36.264 12.685 7.324 28.936 2.97 36.26-9.716 7.327-12.69 2.972-28.94-9.713-36.264zM544.954 443.087l-14.993 36.031L566.043 494l-36.082 14.877 14.99 36.036-36.032-14.993-14.879 36.083-14.879-36.083-36.033 14.993 14.994-36.033L422.038 494l36.084-14.878-14.994-36.033 36.036 14.99 14.877-36.082 14.881 36.082 36.032-14.992zm-23.43 23.43c15.165 15.165 15.165 39.793-.004 54.963-15.166 15.165-39.794 15.165-54.96 0-15.171-15.172-15.171-39.8-.006-54.965 15.17-15.17 39.798-15.17 54.97.001zm-6.364 6.363c-11.659-11.658-30.584-11.659-42.242-.002-11.652 11.653-11.652 30.58.007 42.238 11.652 11.653 30.578 11.653 42.23 0 11.658-11.657 11.658-30.583.005-42.236zM715.022 328.282l-26.452 34.36 34.446 26.346-43.003 5.591 5.725 42.986-34.36-26.454-26.346 34.448-5.592-43.005-42.984 5.73 26.454-34.361-34.448-26.346 43.005-5.592-5.73-42.984 34.366 26.452 26.343-34.447 5.594 43.005 42.982-5.73zM683.14 346.69c11.915 20.637 4.832 47.07-15.811 58.988-20.638 11.915-47.07 4.833-58.985-15.805-11.92-20.646-4.838-47.078 15.8-58.993 20.643-11.919 47.076-4.836 58.996 15.81zm-8.66 5c-9.16-15.866-29.472-21.309-45.336-12.15-15.857 9.155-21.3 29.468-12.14 45.333 9.155 15.857 29.468 21.3 45.325 12.145 15.864-9.159 21.306-29.471 12.15-45.328z" fill="#fdbb2f"/><g><path d="M1491.12 1525.128l12.011-4.997 4.96 12.027 4.96-12.027 12.011 4.996-4.998-12.01 12.028-4.96-12.028-4.96 4.998-12.01-12.01 4.997-4.96-12.028-4.96 12.028-12.01-4.998 4.996 12.012-12.027 4.96 12.027 4.96-4.997 12.01zm7.81-7.81c5.055 5.055 13.265 5.055 18.322-.001 5.055-5.055 5.055-13.265 0-18.32-5.058-5.057-13.267-5.057-18.322-.002-5.057 5.057-5.057 13.266 0 18.323zm2.122-2.121c-3.887-3.886-3.887-10.195 0-14.08 3.883-3.885 10.192-3.885 14.078.001 3.884 3.884 3.884 10.193 0 14.077-3.886 3.886-10.194 3.886-14.078.002zM1608.953 1398.656l13.744-10.581 10.539 13.778 2.236-17.201 17.194 2.29-10.581-13.744 13.779-10.539-17.202-2.236 2.292-17.194-13.745 10.582-10.538-13.78-2.237 17.203-17.193-2.292 10.58 13.746-13.778 10.537 17.201 2.238-2.291 17.193zm7.363-12.754c8.255 4.766 18.828 1.933 23.596-6.324 4.766-8.255 1.933-18.828-6.322-23.594-8.259-4.768-18.832-1.935-23.598 6.32-4.767 8.257-1.934 18.83 6.324 23.598zm2-3.464c-6.346-3.664-8.523-11.789-4.86-18.134 3.662-6.343 11.787-8.52 18.134-4.856 6.342 3.662 8.52 11.787 4.857 18.13-3.663 6.345-11.788 8.522-18.13 4.86zM1694.604 1245.149l13.17-17.222 17.183 13.226-2.865-21.492 21.502-2.798-17.223-13.171 13.228-17.182-21.494 2.864-2.795-21.5-13.172 17.222-17.182-13.228 2.865 21.494-21.501 2.796 17.222 13.173-13.227 17.18 21.493-2.862 2.796 21.5zm4.764-17.78c11.509 3.083 23.358-3.758 26.443-15.27 3.084-11.51-3.757-23.36-15.266-26.443-11.514-3.085-23.364 3.756-26.447 15.265-3.085 11.513 3.756 23.362 15.27 26.447zm1.294-4.83c-8.848-2.371-14.105-11.477-11.735-20.324 2.37-8.843 11.476-14.1 20.324-11.73 8.843 2.37 14.1 11.476 11.73 20.32-2.37 8.846-11.476 14.103-20.319 11.733zM1740.654 976l-9.918 24.053-24.024-9.994 9.996 24.022-24.054 9.921 24.054 9.918-9.996 24.024 24.024-9.996 9.918 24.054 9.918-24.054 24.024 9.996-9.996-24.024 24.054-9.918-24.054-9.921 9.996-24.022-24.024 9.994-9.918-24.053zm0 22.09c-14.298 0-25.908 11.61-25.908 25.912 0 14.298 11.61 25.908 25.908 25.908 14.304 0 25.914-11.61 25.914-25.908 0-14.302-11.61-25.912-25.914-25.912zm0 6c10.992 0 19.914 8.921 19.914 19.912 0 10.986-8.922 19.908-19.914 19.908-10.986 0-19.908-8.922-19.908-19.908 0-10.99 8.922-19.912 19.908-19.912zM1713.411 781.152l-3.913 30.1-30.091-4.008 18.518 24.052-24.111 18.444 30.102 3.913-4.01 30.091 24.054-18.518 18.44 24.112 3.913-30.102 30.091 4.01-18.518-24.054 24.112-18.44-30.103-3.917 4.011-30.09-24.055 18.518-18.44-24.111zm6.67 24.893c-16.112 4.317-25.69 20.907-21.371 37.024 4.317 16.112 20.906 25.69 37.019 21.373 16.12-4.32 25.697-20.908 21.38-37.021-4.319-16.117-20.908-25.695-37.028-21.376zm1.812 6.761c12.387-3.319 25.135 4.041 28.454 16.427 3.317 12.38-4.043 25.128-16.43 28.447-12.38 3.318-25.129-4.043-28.446-16.423-3.319-12.386 4.042-25.133 16.422-28.45zM1632.843 598.706l4.583 34.386-34.404 4.475 27.558 21.075-21.162 27.491 34.388-4.583 4.473 34.404 21.077-27.558 27.488 21.163-4.584-34.387 34.405-4.474-27.559-21.076 21.164-27.489-34.39 4.58-4.472-34.402-21.078 27.557-27.487-21.162zm14.726 25.507c-16.51 9.532-22.176 30.678-12.64 47.192 9.531 16.51 30.677 22.176 47.187 12.644 16.517-9.536 22.183-30.682 12.65-47.192-9.534-16.514-30.68-22.18-47.197-12.644zm4 6.928c12.693-7.328 28.943-2.975 36.27 9.716 7.324 12.686 2.97 28.936-9.723 36.264-12.685 7.324-28.936 2.97-36.26-9.716-7.327-12.69-2.972-28.94 9.713-36.264zM1502.933 443.266l14.992 36.032-36.081 14.88 36.081 14.878-14.99 36.035 36.033-14.993 14.879 36.084 14.879-36.084 36.032 14.993-14.993-36.032 36.084-14.88-36.084-14.878 14.993-36.033-36.035 14.99-14.877-36.081-14.881 36.081-36.032-14.992zm23.43 23.43c-15.166 15.165-15.166 39.794.004 54.963 15.166 15.166 39.794 15.166 54.96 0 15.171-15.171 15.171-39.8.006-54.965-15.17-15.17-39.799-15.17-54.97.002zm6.364 6.364c11.658-11.659 30.584-11.66 42.242-.002 11.652 11.652 11.652 30.579-.007 42.237-11.652 11.653-30.578 11.653-42.23 0-11.658-11.657-11.658-30.583-.005-42.235zM1332.864 328.461l26.453 34.36-34.446 26.347 43.003 5.59-5.725 42.987 34.36-26.454 26.346 34.448 5.592-43.006 42.984 5.73-26.454-34.36 34.448-26.346-43.006-5.592 5.73-42.984-34.365 26.451-26.343-34.446-5.594 43.004-42.983-5.729zm31.884 18.408c-11.915 20.638-4.832 47.07 15.811 58.989 20.637 11.915 47.07 4.832 58.985-15.805 11.92-20.646 4.837-47.079-15.8-58.994-20.643-11.918-47.076-4.836-58.996 15.81zm8.66 5c9.16-15.865 29.472-21.309 45.336-12.15 15.857 9.155 21.3 29.468 12.14 45.334-9.155 15.857-29.468 21.3-45.325 12.144-15.864-9.159-21.306-29.47-12.15-45.328z" fill="#fdbb2f"/></g><g><path d="M977.508 82.489L1023.998 3l46.49 79.49 80.01-45.595.514 92.087 92.088.518-45.589 80.008L1276.998 256l-79.487 46.492 45.59 80.008-92.089.518-.513 92.087-80.012-45.596L1024 509l-46.491-79.488c14.838 3.97 30.411 6.084 46.48 6.084 99.125 0 179.6-80.473 179.6-179.595 0-99.121-80.475-179.595-179.6-179.595-16.069 0-31.642 2.115-46.48 6.084zM850.484 302.5c16.538 61.777 65.23 110.469 127.021 127.01l-80.006 45.594-.518-92.087-92.087-.518 45.59-80zM1023.99 88.264c92.582 0 167.74 75.16 167.74 167.736s-75.158 167.736-167.74 167.736c-92.573 0-167.733-75.16-167.733-167.736s75.16-167.736 167.733-167.736zM850.48 209.514c-3.968 14.822-6.084 30.409-6.084 46.486 0 16.077 2.116 31.665 6.084 46.487L771 256l79.482-46.487zM977.505 82.49c-61.79 16.54-110.483 65.233-127.02 127.01l-45.591-80 92.087-.518.518-92.087 80.006 45.595z" fill="#fdbb2f"/><circle cx="879.282" cy="1120.84" r="96.838" fill="#00529b" transform="matrix(.11344 0 0 .11344 779.325 128.847)"/><circle cx="879.282" cy="1120.84" r="96.838" fill="#00529b" transform="matrix(.11344 0 0 .11344 1069.155 128.847)"/><circle cx="879.282" cy="1120.84" r="96.838" fill="#00529b" transform="matrix(.11344 0 0 .11344 779.325 128.858)"/><circle cx="879.282" cy="1120.84" r="96.838" fill="#00529b" transform="matrix(.11344 0 0 .11344 1069.155 128.858)"/><circle cx="879.282" cy="1120.84" r="96.838" fill="#00529b" transform="scale(-.11344) rotate(-30 -9737.182 20299.894)"/><circle cx="879.282" cy="1120.84" r="96.838" fill="#00529b" transform="matrix(-.09825 .05672 -.05672 -.09825 1048.453 388.7)"/><circle cx="879.282" cy="1120.84" r="96.838" fill="#00529b" transform="scale(-.11344) rotate(-60 -6359.772 9116.907)"/><circle cx="879.282" cy="1120.84" r="96.838" fill="#00529b" transform="scale(-.11344) rotate(-60 -7637.176 6904.379)"/><g><circle cx="879.282" cy="1120.84" r="96.838" fill="#00529b" transform="matrix(0 .11344 -.11344 0 1151.144 11.334)"/><circle cx="879.282" cy="1120.84" r="96.838" fill="#00529b" transform="matrix(0 .11344 -.11344 0 1151.144 301.164)"/></g><g><circle cx="879.282" cy="1120.84" r="96.838" fill="#00529b" transform="scale(.11344) rotate(60 4607.914 7638.01)"/><circle cx="879.282" cy="1120.84" r="96.838" fill="#00529b" transform="scale(.11344) rotate(60 3330.51 9850.539)"/></g><g><circle cx="879.282" cy="1120.84" r="96.838" fill="#00529b" transform="scale(.11344) rotate(30 3472.146 14507.631)"/><circle cx="879.282" cy="1120.84" r="96.838" fill="#00529b" transform="scale(.11344) rotate(30 2194.743 19274.963)"/></g><g><path d="M1023.993 267c6.064 0 10.986-4.922 10.986-11V111.099c0-6.078-4.922-11-10.986-11-6.063 0-10.985 4.922-10.985 11V256c0 6.077 4.922 11 10.985 11z" fill="#00529b"/></g></g></g></g></svg>