<svg viewBox="0 0 1024 1024" xmlns="http://www.w3.org/2000/svg" xml:space="preserve" style="fill-rule:evenodd;clip-rule:evenodd;stroke-linejoin:round;stroke-miterlimit:2"><path fill="#FDBB2F" d="M512 0c282.58 0 512 229.42 512 512 0 282.58-229.42 512-512 512C229.42 1024 0 794.58 0 512 0 229.42 229.42 0 512 0Zm-.161 214.171c-80.93 0-91.078.343-122.862 1.793-31.717 1.448-53.379 6.485-72.335 13.852-19.595 7.615-36.213 17.804-52.78 34.371-16.566 16.566-26.755 33.184-34.37 52.779-7.367 18.955-12.404 40.617-13.852 72.334-1.45 31.784-1.792 41.932-1.792 122.862 0 80.929.342 91.077 1.792 122.861 1.448 31.717 6.485 53.379 13.852 72.334 7.615 19.595 17.804 36.213 34.37 52.781 16.567 16.566 33.185 26.755 52.78 34.37 18.956 7.366 40.618 12.404 72.335 13.851 31.784 1.45 41.932 1.793 122.862 1.793 80.929 0 91.077-.343 122.861-1.793 31.717-1.447 53.379-6.485 72.334-13.851 19.595-7.615 36.213-17.804 52.781-34.37 16.566-16.568 26.755-33.186 34.37-52.781 7.366-18.955 12.404-40.617 13.851-72.334 1.45-31.784 1.793-41.932 1.793-122.861 0-80.93-.343-91.078-1.793-122.862-1.447-31.717-6.485-53.379-13.851-72.334-7.615-19.595-17.804-36.213-34.37-52.779-16.568-16.567-33.186-26.756-52.781-34.371-18.955-7.367-40.617-12.404-72.334-13.852-31.784-1.45-41.932-1.793-122.861-1.793Zm0 53.693c79.566 0 88.991.303 120.413 1.737 29.054 1.326 44.832 6.18 55.333 10.26 13.909 5.406 23.836 11.864 34.263 22.291 10.428 10.427 16.885 20.355 22.291 34.263 4.081 10.501 8.936 26.279 10.26 55.333 1.434 31.422 1.738 40.847 1.738 120.414 0 79.566-.304 88.991-1.738 120.413-1.324 29.054-6.179 44.832-10.26 55.333-5.406 13.909-11.863 23.836-22.291 34.263-10.427 10.428-20.354 16.885-34.263 22.291-10.501 4.081-26.279 8.936-55.333 10.26-31.417 1.434-40.841 1.738-120.413 1.738-79.573 0-88.996-.304-120.414-1.738-29.054-1.324-44.832-6.179-55.333-10.26-13.909-5.406-23.836-11.863-34.264-22.291-10.427-10.427-16.886-20.354-22.29-34.263-4.081-10.501-8.936-26.279-10.262-55.333-1.433-31.422-1.736-40.847-1.736-120.413 0-79.567.303-88.992 1.736-120.414 1.326-29.054 6.181-44.832 10.262-55.333 5.404-13.908 11.863-23.836 22.29-34.263 10.428-10.427 20.355-16.885 34.264-22.291 10.501-4.08 26.279-8.934 55.333-10.26 31.422-1.434 40.847-1.737 120.414-1.737Zm0 91.276c-84.513 0-153.023 68.509-153.023 153.022 0 84.512 68.51 153.022 153.023 153.022 84.512 0 153.022-68.51 153.022-153.022 0-84.513-68.51-153.022-153.022-153.022Zm0 252.352c-54.859 0-99.331-44.472-99.331-99.33 0-54.859 44.472-99.331 99.331-99.331 54.858 0 99.33 44.472 99.33 99.331 0 54.858-44.472 99.33-99.33 99.33Zm194.827-258.398c0 19.749-16.011 35.758-35.76 35.758-19.748 0-35.758-16.009-35.758-35.758 0-19.749 16.01-35.758 35.758-35.758 19.749 0 35.76 16.009 35.76 35.758Z"/></svg>
