<svg viewBox="0 0 1024 1024" xmlns="http://www.w3.org/2000/svg" xml:space="preserve" style="fill-rule:evenodd;clip-rule:evenodd;stroke-linejoin:round;stroke-miterlimit:2"><path fill="#FDBB2F" d="M512 0c282.58 0 512 229.42 512 512 0 282.58-229.42 512-512 512C229.42 1024 0 794.58 0 512 0 229.42 229.42 0 512 0Zm327.111 810.667H710.533V591.67c0-60.043-22.814-93.597-70.339-93.597-51.7 0-78.711 34.918-78.711 93.597v218.997H437.57V393.481h123.913v56.195s37.258-68.94 125.787-68.94c88.489 0 151.841 54.036 151.841 165.795v264.136Zm-613.352 0h129.21V393.481h-129.21v417.186Zm63.984-471.813c-42.208 0-76.41-34.47-76.41-76.982 0-42.513 34.202-76.983 76.41-76.983 42.207 0 76.388 34.47 76.388 76.983 0 42.512-34.181 76.982-76.388 76.982Z"/></svg>
