<svg xmlns="http://www.w3.org/2000/svg" xml:space="preserve" style="fill-rule:evenodd;clip-rule:evenodd;stroke-linejoin:round;stroke-miterlimit:2" viewBox="0 0 1024 1024"><path fill="#FDBB2F" d="M512 0c282.58 0 512 229.42 512 512 0 282.58-229.42 512-512 512C229.42 1024 0 794.58 0 512 0 229.42 229.42 0 512 0Zm293.611 339.674c-9.118-66.711-68.192-119.284-138.219-129.471-11.814-1.721-56.578-7.986-160.271-7.986h-.775c-103.721 0-125.974 6.265-137.788 7.986-68.078 9.905-130.248 57.144-145.332 124.645-7.255 33.242-8.029 70.097-6.681 103.903 1.921 48.481 2.294 96.877 6.767 145.161a673.012 673.012 0 0 0 16.145 95.212c14.338 57.85 72.379 105.992 129.244 125.632 60.882 20.482 126.356 23.883 189.091 9.821a283.138 283.138 0 0 0 20.474-5.503c15.228-4.769 33.093-10.103 46.227-19.472a1.46 1.46 0 0 0 .601-1.128v-46.788a1.38 1.38 0 0 0-.538-1.068 1.43 1.43 0 0 0-1.182-.258 532.122 532.122 0 0 1-122.705 14.11c-71.117 0-90.244-33.215-95.722-47.042a143.872 143.872 0 0 1-8.316-37.081 1.346 1.346 0 0 1 .504-1.121 1.393 1.393 0 0 1 1.217-.261 521.936 521.936 0 0 0 120.698 14.109c9.779 0 19.528 0 29.308-.253 40.892-1.129 83.992-3.189 124.224-10.922 1.004-.197 2.008-.366 2.868-.621 63.46-11.992 123.852-49.637 129.989-144.962.23-3.753.803-39.31.803-43.204.029-13.234 4.331-93.886-.631-143.438Zm-97.671 237.86h-66.729v-160.85c0-33.863-14.338-51.134-43.502-51.134-32.06 0-48.119 20.431-48.119 60.785v88.044h-66.328v-88.044c0-40.354-16.087-60.785-48.147-60.785-28.992 0-43.473 17.271-43.502 51.134v160.85h-66.672V411.802c0-33.864 8.785-60.766 26.353-80.708 18.124-19.894 41.896-30.109 71.404-30.109 34.153 0 59.962 12.924 77.168 38.745l16.604 27.429 16.632-27.429c17.205-25.821 43.014-38.745 77.11-38.745 29.479 0 53.251 10.215 71.432 30.109 17.57 19.924 26.354 46.826 26.354 80.708l-.058 165.732Z"/></svg>
