<svg viewBox="0 0 1024 1024" xmlns="http://www.w3.org/2000/svg" fill-rule="evenodd" clip-rule="evenodd" stroke-linecap="round" stroke-linejoin="round" stroke-miterlimit="1.5"><path fill="#FDBB2F" d="M512 0c282.579 0 512 229.42 512 512 0 282.579-229.421 512-512 512C229.42 1024 0 794.579 0 512 0 229.42 229.42 0 512 0zM404.265 519.463l-88.884 86.405-100.978 97.78-12.8 12.447c6.747 4.346 14.427 7.111 22.756 7.111h588.447c10.015 0 19.092-3.846 26.67-9.953l-6.395-6.398-100.978-97.78-92.795-89.6-83.559 86.04c-4.518 3.003-7.544 6.325-11.96 8.36-7.11 3.29-14.893 6.067-22.72 5.952-7.852-.123-15.553-3.195-22.598-6.656-3.535-1.74-5.427-3.47-9.568-6.938l-84.638-86.77zm-209.42-216.176c-10.274 9.74-16.714 24.371-16.714 40.892v325.689c0 13.37 4.29 25.518 11.378 34.837l13.506-12.8 100.624-97.78 89.248-86.401-1.775-2.13-97.78-100.624-97.782-100.978-.705-.705zm650.672 3.208l-95.29 98.486L652.8 505.606l-1.774 1.774 92.795 89.956 100.627 97.78 6.041 5.69c5.415-8.697 8.532-19.4 8.532-30.938v-325.69c0-14.722-5.095-28.08-13.504-37.683zm-32.71-15.28H224.358v-.012c-5.393 0-10.479.934-15.292 2.845l96.359 99.203 97.428 100.976 1.775 2.143 5.688 5.685 5.69 6.042 83.558 85.688c1.388.864 5.427 4.596 8.58 6.177 4.06 2.027 8.45 3.903 12.98 4.063 4.892.172 9.889-1.229 14.292-3.367 3.297-1.606 4.768-3.904 8.59-6.86l96.71-99.91 97.78-100.626 94.22-97.063a41.352 41.352 0 00-19.91-4.984z" stroke="#000" stroke-width=".4096"/></svg>
