<svg xmlns="http://www.w3.org/2000/svg" xml:space="preserve" style="fill-rule:evenodd;clip-rule:evenodd;stroke-linejoin:round;stroke-miterlimit:2" viewBox="0 0 1024 1024"><path fill="#FDBB2F" d="M512 0c282.58 0 512 229.42 512 512 0 282.58-229.42 512-512 512C229.42 1024 0 794.58 0 512 0 229.42 229.42 0 512 0Zm53.62 467.897L775.438 224h-49.72L543.533 435.772 398.022 224H230.193l220.04 320.237L230.193 800h49.723l192.392-223.639L625.978 800h167.829L565.608 467.897h.012Zm-68.103 79.161-22.294-31.888-177.391-253.739h76.371L517.36 466.206l22.295 31.889 186.086 266.177H649.37L497.517 547.07v-.012Z"/></svg>
